<?xml version="1.0" encoding="iso-8859-1"?>
<!-- Generator: Adobe Illustrator 19.0.0, SVG Export Plug-In . SVG Version: 6.00 Build 0)  -->
<svg xmlns="http://www.w3.org/2000/svg" xmlns:xlink="http://www.w3.org/1999/xlink" version="1.1" id="Capa_1" x="0px" y="0px" viewBox="0 0 512 512" style="enable-background:new 0 0 512 512;" xml:space="preserve" width="512px" height="512px">
<g>
	<g>
		<path d="M491.671,213.884c-10.753-4.931-26.099-9.427-45.613-13.362c-0.153-0.031-0.305-0.048-0.457-0.069    c-7.544-25.068-20.165-48.405-37.137-68.64c-0.041-0.051-0.084-0.1-0.126-0.15c-6.151-7.318-12.862-14.236-20.12-20.674    C351.88,78.753,304.923,61,256,61c-29.921,0-58.671,6.425-85.452,19.096c-6.844,3.238-13.573,6.91-20.001,10.912    c-2.173,1.354-4.346,2.766-6.456,4.196c-15.329,10.392-28.915,22.731-40.515,36.555c-0.003,0.004-0.006,0.007-0.009,0.011    c-16.916,20.163-29.576,43.502-37.152,68.659c-19.512,3.913-34.897,8.381-45.72,13.287C15.577,216.037,0,223.098,0,235.911    c0,14.248,18.687,25.025,58.73,33.862c3.426,48.431,24.838,93.443,60.606,127.173C156.301,431.803,204.835,451,256,451    c51.135,0,99.65-19.178,136.606-54.001c35.802-33.735,57.236-78.776,60.662-127.238c10.069-2.224,18.949-4.614,26.402-7.132    c13.879-4.69,32.33-12.561,32.33-26.718C512,223.206,496.699,216.189,491.671,213.884z M387.95,131.307    c-15.485,2.399-32.312,4.357-50.036,5.833c-5.684-14.147-12.392-26.816-20.022-37.631c-4.713-6.681-9.684-12.517-14.864-17.501    C335.793,90.552,365.055,107.83,387.95,131.307z M182.629,239.248c-4.775-0.257-9.48-0.54-14.128-0.844    c1.482-30.918,6.866-60.148,15.673-85.449c23.001,1.624,47.242,2.474,71.825,2.474c24.562,0,48.781-0.849,71.765-2.469    c4.27,12.286,7.778,25.6,10.401,39.556c-2.551,1.757-4.989,3.742-7.264,5.984l-2.686,2.646c-0.354,0.349-0.972,0.347-1.326,0    l-2.686-2.646c-21.036-20.727-55.265-20.727-76.301,0c-8.695,8.567-14.195,19.52-15.89,31.366    c-10.455-0.444-21.06,3.254-29.025,11.102c-7.989,7.871-11.993,18.439-11.749,29.006c-7.776-0.366-15.43-0.798-22.938-1.293    c-0.144-4.2-0.222-8.427-0.222-12.679c0-0.865,0.01-1.728,0.016-2.591c4.52,0.294,9.092,0.568,13.729,0.817    c0.137,0.007,0.273,0.011,0.409,0.011c3.958,0,7.268-3.099,7.483-7.097C189.938,243.003,186.766,239.47,182.629,239.248z     M247.146,251.651l1.804,1.777c5.097,5.021,13.389,5.021,18.485,0l1.803-1.776c9.272-9.136,24.359-9.135,33.632,0    c8.361,8.238,9.687,21.238,3.164,30.936c-10.612,15.025-23.939,27.636-39.611,37.483l-8.23,5.171l-8.23-5.171    c-15.671-9.847-28.999-22.459-39.612-37.484c-6.521-9.698-5.195-22.697,3.166-30.935    C222.789,242.516,237.875,242.516,247.146,251.651z M194.675,285.145c0.914,2.031,2.008,4.008,3.291,5.906    c0.027,0.041,0.055,0.081,0.083,0.121c11.77,16.682,26.551,30.679,43.933,41.601l9.195,5.777c2.131,1.339,4.574,2.008,7.016,2.008    c2.442,0,4.885-0.669,7.016-2.008l9.195-5.778c6.081-3.821,11.837-8.027,17.264-12.584c4.449,3.269,9.036,6.405,13.693,9.331    l13.696,8.605c2.581,1.622,5.539,2.432,8.497,2.432c2.118,0,4.234-0.423,6.213-1.254c-1.786,6.87-3.78,13.462-5.962,19.744    c-22.996-1.623-47.229-2.472-71.805-2.472c-24.583,0-48.824,0.85-71.825,2.474c-7.835-22.51-12.962-48.128-15.041-75.28    C177.488,284.305,186.015,284.765,194.675,285.145z M328.07,325.422c-0.309,0.194-0.725,0.194-1.033,0l-13.696-8.605    c-3.545-2.228-7.045-4.589-10.47-7.036c5.612-5.764,10.781-11.97,15.466-18.61c0.028-0.04,0.056-0.08,0.083-0.121    c10.618-15.692,8.506-36.756-5.022-50.084c-15.076-14.855-39.608-14.854-54.687,0l-0.518,0.51l-0.519-0.51    c-3.282-3.234-7.012-5.762-10.995-7.588c0.988-9.138,5.082-17.624,11.751-24.195c15.231-15.007,40.015-15.008,55.247,0    l2.687,2.647c6.169,6.079,16.209,6.079,22.38,0l2.686-2.646c15.231-15.006,40.015-15.007,55.247,0    c13.722,13.52,15.888,34.863,5.161,50.777c-16.093,22.793-36.305,41.923-60.071,56.856L328.07,325.422z M256,76    c22.274,0,39.286,17.487,49.635,32.156c6.086,8.627,11.612,18.817,16.462,30.156c-21.242,1.39-43.513,2.116-66.098,2.116    c-22.604,0-44.894-0.727-66.153-2.12c1.698-3.953,3.483-7.791,5.364-11.488C211.889,94.048,233.478,76,256,76z M152.509,107.621    c1.95-1.323,3.958-2.628,5.968-3.879c5.941-3.699,12.161-7.093,18.487-10.086c10.355-4.899,21.033-8.774,31.975-11.641    c-9.985,9.599-19.13,22.351-27.096,38.002c-2.774,5.451-5.358,11.173-7.753,17.125c-17.675-1.472-34.456-3.422-49.905-5.812    C132.715,122.584,142.181,114.622,152.509,107.621z M15,235.911c0-0.094,2.913-9.539,47.296-19.292    c-1.174,5.638-2.113,11.345-2.778,17.114c-0.475,4.115,2.477,7.835,6.591,8.31c4.11,0.471,7.835-2.477,8.31-6.591    c3.863-33.49,17.204-64.853,38.014-90.842c17.16,2.958,36.156,5.35,56.326,7.125c-8.496,25.692-13.715,54.89-15.222,85.594    c-20.725-1.635-40.006-3.762-57.578-6.358c-4.1-0.61-7.91,2.226-8.515,6.324c-0.605,4.098,2.226,7.91,6.324,8.515    c18.113,2.675,37.987,4.86,59.334,6.529c-0.012,1.219-0.023,2.439-0.023,3.662c0,3.881,0.066,7.743,0.182,11.586    c-34.606-2.751-65.449-6.88-89.476-12.058C17.866,245.631,15,236.001,15,235.911z M112.293,367.415    c-21.139-26.433-34.914-58.917-38.256-94.564c22.76,4.163,50.049,7.511,79.985,9.84c1.964,27.765,6.984,54.13,14.737,77.575    C148.535,362.046,129.49,364.446,112.293,367.415z M124.026,380.696c15.493-2.401,32.328-4.36,50.063-5.836    c2.395,5.952,4.979,11.673,7.753,17.125c7.967,15.655,17.115,28.409,27.103,38.009    C176.11,421.438,146.874,404.139,124.026,380.696z M256,436c-22.522,0-44.111-18.048-60.789-50.819    c-1.882-3.697-3.667-7.536-5.364-11.488c21.259-1.392,43.549-2.12,66.153-2.12c22.6,0,44.886,0.727,66.141,2.119    C305.59,412.298,281.421,436,256,436z M302.978,430.009c13.665-13.078,25.622-31.854,34.962-55.147    c17.719,1.476,34.54,3.433,50.021,5.832C365.095,404.153,335.834,421.459,302.978,430.009z M399.694,367.413    c-17.19-2.967-36.227-5.366-56.442-7.146c3.298-10.019,6.145-20.726,8.49-32.037c21.419-13.767,40.1-30.747,55.655-50.619    c10.888-1.437,21.126-3.032,30.564-4.765C434.62,308.492,420.839,340.977,399.694,367.413z M474.869,248.418    c-13.893,4.694-33.202,8.954-56.388,12.475c9.701-20.76,5.52-45.845-11.277-62.395c-14.874-14.654-36.338-18.933-55.076-12.865    c-2.392-11.913-5.376-23.244-8.888-33.899c20.22-1.78,39.26-4.179,56.454-7.147c20.423,25.529,34.015,56.753,37.923,91.183    c0.435,3.829,3.679,6.655,7.443,6.655c0.282,0,0.568-0.016,0.855-0.048c4.116-0.467,7.074-4.182,6.606-8.298    c-0.667-5.881-1.605-11.705-2.803-17.458c44.393,9.757,47.282,19.196,47.282,19.29C497,235.961,495.7,241.38,474.869,248.418z" fill="#FFFFFF"/>
	</g>
</g>
<g>
</g>
<g>
</g>
<g>
</g>
<g>
</g>
<g>
</g>
<g>
</g>
<g>
</g>
<g>
</g>
<g>
</g>
<g>
</g>
<g>
</g>
<g>
</g>
<g>
</g>
<g>
</g>
<g>
</g>
</svg>
