<?xml version="1.0" encoding="UTF-8"?>
<svg viewBox="0 0 640 480" xmlns="http://www.w3.org/2000/svg" xmlns:xlink="http://www.w3.org/1999/xlink">
 <defs>
  <filter id="j">
   <feGaussianBlur stdDeviation="3.0417"/>
  </filter>
  <linearGradient id="af" x1="522.86" x2="940" y1="1060.9" y2="1043.8" gradientUnits="userSpaceOnUse">
   <stop stop-color="#ba00ff" offset="0"/>
   <stop stop-color="#ba00ff" stop-opacity="0" offset="1"/>
  </linearGradient>
  <linearGradient id="ae" x1="917.14" x2="622.86" y1="1086.6" y2="1026.6" gradientUnits="userSpaceOnUse">
   <stop stop-color="#f1caff" offset="0"/>
   <stop stop-color="#f1caff" stop-opacity="0" offset="1"/>
  </linearGradient>
  <linearGradient id="g">
   <stop stop-color="#d76cff" offset="0"/>
   <stop stop-color="#d76cff" stop-opacity="0" offset="1"/>
  </linearGradient>
  <linearGradient id="h">
   <stop stop-color="#f90" offset="0"/>
   <stop stop-color="#f90" stop-opacity="0" offset="1"/>
  </linearGradient>
  <linearGradient id="d">
   <stop stop-color="#b88100" offset="0"/>
   <stop stop-color="#b88100" stop-opacity="0" offset="1"/>
  </linearGradient>
  <linearGradient id="e">
   <stop stop-color="#b50000" offset="0"/>
   <stop stop-color="#b50000" stop-opacity="0" offset="1"/>
  </linearGradient>
  <linearGradient id="i">
   <stop stop-color="#9ade00" offset="0"/>
   <stop stop-color="#9ade00" stop-opacity="0" offset="1"/>
  </linearGradient>
  <linearGradient id="c">
   <stop stop-color="#19aeff" offset="0"/>
   <stop stop-color="#19aeff" stop-opacity="0" offset="1"/>
  </linearGradient>
  <linearGradient id="f">
   <stop stop-color="#fff" offset="0"/>
   <stop stop-color="#fff" stop-opacity="0" offset="1"/>
  </linearGradient>
  <linearGradient id="ac" x1="39.259" x2="487.82" y1="304.27" y2="190" gradientUnits="userSpaceOnUse">
   <stop stop-color="#ccff42" offset="0"/>
   <stop stop-color="#ccff42" stop-opacity="0" offset="1"/>
  </linearGradient>
  <linearGradient id="a" x1="-942.86" x2="-822.86" y1="609.51" y2="626.65" gradientUnits="userSpaceOnUse" xlink:href="#f"/>
  <linearGradient id="ad" x1="-923.1" x2="-822.86" y1="649.05" y2="626.65" gradientUnits="userSpaceOnUse" xlink:href="#f"/>
  <radialGradient id="z" cx="-94.286" cy="998.85" r="242.84" gradientTransform="matrix(2.2237 .14119 -.07754 1.2212 192.82 -211.3)" gradientUnits="userSpaceOnUse">
   <stop stop-color="#f60" offset="0"/>
   <stop stop-color="#f60" stop-opacity="0" offset="1"/>
  </radialGradient>
  <radialGradient id="x" cx="-757.14" cy="966.35" r="242.84" gradientTransform="matrix(1.1897 -1.2562 .8885 .84143 -860.78 -955.99)" gradientUnits="userSpaceOnUse">
   <stop stop-color="#804d00" offset="0"/>
   <stop stop-color="#804d00" stop-opacity="0" offset="1"/>
  </radialGradient>
  <radialGradient id="p" cx="594.29" cy="396.76" r="242.84" gradientTransform="matrix(-1.6929 -1.3627 1.2073 -1.4998 1121.3 1800.1)" gradientUnits="userSpaceOnUse">
   <stop stop-color="#009100" offset="0"/>
   <stop stop-color="#009100" stop-opacity="0" offset="1"/>
  </radialGradient>
  <radialGradient id="k" cx="782.86" cy="401.73" r="243.25" gradientTransform="matrix(-1.5974 -.32889 .24201 -1.1755 1936.2 1110.6)" gradientUnits="userSpaceOnUse">
   <stop stop-color="#0084c8" offset="0"/>
   <stop stop-color="#0084c8" stop-opacity="0" offset="1"/>
  </radialGradient>
  <radialGradient id="ab" cx="934.29" cy="1100.9" r="44.786" gradientTransform="matrix(1.0832e-7 -3.8916 1 2.7834e-8 -166.65 4736.7)" gradientUnits="userSpaceOnUse" xlink:href="#g"/>
  <radialGradient id="aa" cx="-351.43" cy="402.6" r="77.45" gradientTransform="matrix(.22134 -1.4387 .8243 .12681 -605.5 -164.3)" gradientUnits="userSpaceOnUse" xlink:href="#g"/>
  <radialGradient id="y" cx="-22.857" cy="1008.2" r="242.84" gradientTransform="matrix(-2.2001 -.9177 .47108 -1.1294 -548.09 2124.3)" gradientUnits="userSpaceOnUse" xlink:href="#h"/>
  <radialGradient id="w" cx="-780" cy="672.86" r="259.99" gradientTransform="matrix(-1.1539 .27474 -.23494 -.98675 -1522 1550.6)" gradientUnits="userSpaceOnUse" xlink:href="#d"/>
  <radialGradient id="v" cx="-502.86" cy="742.11" r="21.929" gradientTransform="matrix(-4.5603 -2.8664 .9482 -1.5085 -3499.7 413.29)" gradientUnits="userSpaceOnUse" xlink:href="#d"/>
  <radialGradient id="u" cx="-545.91" cy="715.64" r="114.44" gradientTransform="matrix(-1.171 -.41616 .55242 -.36312 -1580.5 708.86)" gradientUnits="userSpaceOnUse" xlink:href="#d"/>
  <radialGradient id="t" cx="-410.21" cy="377.35" r="237.29" gradientTransform="matrix(1.3766 -.01051 .01046 1.093 150.54 -37.262)" gradientUnits="userSpaceOnUse" xlink:href="#e"/>
  <radialGradient id="b" cx="-111.47" cy="411.57" r="237.29" gradientTransform="matrix(-1.0707 -1.261 .97511 -.66044 -632.15 548.14)" gradientUnits="userSpaceOnUse" xlink:href="#e"/>
  <radialGradient id="s" cx="-297.14" cy="389.91" r="70.15" gradientTransform="matrix(.04073 -1.0182 .81607 .03264 -603.23 65.647)" gradientUnits="userSpaceOnUse" xlink:href="#e"/>
  <radialGradient id="r" cx="-467.16" cy="-531.85" r="31.579" gradientTransform="matrix(15.296 .15793 -.00064702 .04999 6678 407.17)" gradientUnits="userSpaceOnUse" xlink:href="#h"/>
  <radialGradient id="q" cx="162.86" cy="389.76" r="242.84" gradientTransform="matrix(1.5766 -1.2905e-8 1.0016e-8 1.2237 -93.899 -90.296)" gradientUnits="userSpaceOnUse" xlink:href="#i"/>
  <radialGradient id="o" cx="214.29" cy="594.44" r="31.929" gradientTransform="matrix(-2.4635e-7 -2.5951 .95526 -9.0681e-8 -353.55 1148.5)" gradientUnits="userSpaceOnUse" xlink:href="#i"/>
  <radialGradient id="n" cx="720.86" cy="650.07" r="242.84" gradientTransform="matrix(.75299 -1.2824 1.0552 .61959 -808.78 1194)" gradientUnits="userSpaceOnUse" xlink:href="#c"/>
  <radialGradient id="m" cx="454.29" cy="820.29" r="44.786" gradientTransform="matrix(1.2759 -1.2759 .57178 .57178 -594.37 925.83)" gradientUnits="userSpaceOnUse" xlink:href="#c"/>
  <radialGradient id="l" cx="-342.09" cy="422.13" r="70.15" gradientTransform="matrix(.57021 -.69239 .63045 .51919 -376.78 -86.525)" gradientUnits="userSpaceOnUse" xlink:href="#c"/>
 </defs>
 <g transform="matrix(.36939 0 0 .36903 422.93 105.3)">
  <g transform="matrix(.25882 -.96593 .96593 .25882 -1626.2 1476)">
   <g stroke="#9f9999">
    <g transform="matrix(1.0412 0 0 1 188.77 -311.43)" stroke="#9f9999" stroke-linecap="square" stroke-linejoin="bevel" stroke-width=".32485">
     <path d="m719.58 758.12c-66.794 0.50406-134.02 29.217-181.46 82.452-34.077 38.333-55.783 90.858-57.551 145.12-1.6688 45.175 9.1443 90.156 27.437 130.2 24.187 53.117 53.533 103.26 87.018 149.6 18.934 25.75 39.852 50.409 65.492 67.846 17.693 11.795 38.082 19.584 58.864 18.68 21.194-0.7236 41.486-9.8056 59.268-22.322 29.726-20.791 53.638-50.07 76.104-79.796 29.102-38.935 55.246-80.698 77.465-124.97 17.969-36.403 31.002-76.642 33.237-118.42 1.9339-37.942-5.3747-76.382-20.927-110.16-15.681-33.765-39.355-62.466-66.895-84.563-39.793-31.898-87.986-49.666-136.69-53.062-7.1133-0.47812-14.235-0.73561-21.362-0.5961z" fill="url(#af)"/>
     <path d="m719.58 758.12c-66.794 0.50406-134.02 29.217-181.46 82.452-34.077 38.333-55.783 90.858-57.551 145.12-1.6688 45.175 9.1443 90.156 27.437 130.2 24.187 53.117 53.533 103.26 87.018 149.6 18.934 25.75 39.852 50.409 65.492 67.846 17.693 11.795 38.082 19.584 58.864 18.68 21.194-0.7236 41.486-9.8056 59.268-22.322 29.726-20.791 53.638-50.07 76.104-79.796 29.102-38.935 55.246-80.698 77.465-124.97 17.969-36.403 31.002-76.642 33.237-118.42 1.9339-37.942-5.3747-76.382-20.927-110.16-15.681-33.765-39.355-62.466-66.895-84.563-39.793-31.898-87.986-49.666-136.69-53.062-7.1133-0.47812-14.235-0.73561-21.362-0.5961z" fill="url(#ae)"/>
    </g>
   </g>
   <path d="m928.57 1003.8-28.571 88.571 88.571-5.7143-8.5714-31.428z" fill="url(#ab)" opacity=".8"/>
   <path transform="translate(1265.7 637.14)" d="m-248.57 340.93c0 31.559-31.34 57.143-70 57.143s-70-25.584-70-57.143 31.34-57.143 70-57.143 70 25.584 70 57.143z" fill="url(#aa)" filter="url(#j)" stroke="#9f9999" stroke-linecap="square" stroke-linejoin="bevel" stroke-width=".3"/>
  </g>
  <g transform="translate(-171.43 -208.57)">
   <g transform="translate(-82.857 -277.14)" stroke="#9f9999" stroke-linecap="square" stroke-linejoin="bevel" stroke-width=".32485">
    <path d="m-17.564 718.12c-66.794 0.50406-134.02 29.217-181.46 82.452-34.077 38.333-55.783 90.858-57.551 145.12-1.6688 45.175 9.1443 90.156 27.437 130.2 24.187 53.117 53.533 103.26 87.018 149.6 18.934 25.75 39.852 50.409 65.492 67.846 17.693 11.795 38.082 19.584 58.864 18.68 21.194-0.7236 41.486-9.8056 59.268-22.322 29.726-20.791 53.638-50.07 76.104-79.796 29.102-38.935 55.246-80.698 77.465-124.97 17.969-36.403 31.002-76.642 33.237-118.42 1.9339-37.942-5.3747-76.382-20.927-110.16-15.681-33.765-39.355-62.466-66.895-84.563-39.793-31.898-87.985-49.666-136.69-53.062-7.1133-0.47812-14.235-0.73561-21.362-0.5961z" fill="url(#z)"/>
    <path d="m-17.564 718.12c-66.794 0.50406-134.02 29.217-181.46 82.452-34.077 38.333-55.783 90.858-57.551 145.12-1.6688 45.175 9.1443 90.156 27.437 130.2 24.187 53.117 53.533 103.26 87.018 149.6 18.934 25.75 39.852 50.409 65.492 67.846 17.693 11.795 38.082 19.584 58.864 18.68 21.194-0.7236 41.486-9.8056 59.268-22.322 29.726-20.791 53.638-50.07 76.104-79.796 29.102-38.935 55.246-80.698 77.465-124.97 17.969-36.403 31.002-76.642 33.237-118.42 1.9339-37.942-5.3747-76.382-20.927-110.16-15.681-33.765-39.355-62.466-66.895-84.563-39.793-31.898-87.985-49.666-136.69-53.062-7.1133-0.47812-14.235-0.73561-21.362-0.5961z" fill="url(#y)"/>
   </g>
   <path d="m-114.29 1015.2-22.857 42.857-14.286 22.857h45.714s20-5.7143 5.7143-22.857-14.286-42.857-14.286-42.857z" fill="#ffc022"/>
  </g>
  <g transform="translate(-8.5347 4.5538)">
   <g transform="translate(142.86 -237.14)" stroke="#9f9999" stroke-linecap="square" stroke-linejoin="bevel" stroke-width=".32485">
    <path d="m-1058.8 519.69c-46.874 47.587-74.106 115.43-70.01 186.62 3.0089 51.202 24.802 103.69 61.92 143.31 30.763 33.123 70.216 57.284 111.46 72.662 54.662 20.457 110.87 35.16 167.31 44.253 31.596 4.8193 63.824 7.4644 94.284 1.6642 20.851-4.1708 40.776-13.081 54.832-28.414 14.475-15.498 22.401-36.269 26.125-57.693 6.318-35.721 2.5227-73.333-2.6106-110.24-6.9528-48.109-17.998-96.127-33.592-143.14-13.035-38.447-32.273-76.116-60.235-107.24-25.462-28.197-57.811-50.21-92.693-63.098-34.964-12.787-71.998-16.342-107.1-12.494-50.693 5.5828-97.334 27.096-134.17 59.134-5.3679 4.6918-10.586 9.5456-15.526 14.683z" fill="url(#x)"/>
    <path d="m-1058.8 519.69c-46.874 47.587-74.106 115.43-70.01 186.62 3.0089 51.202 24.802 103.69 61.92 143.31 30.763 33.123 70.216 57.284 111.46 72.662 54.662 20.457 110.87 35.16 167.31 44.253 31.596 4.8193 63.824 7.4644 94.284 1.6642 20.851-4.1708 40.776-13.081 54.832-28.414 14.475-15.498 22.401-36.269 26.125-57.693 6.318-35.721 2.5227-73.333-2.6106-110.24-6.9528-48.109-17.998-96.127-33.592-143.14-13.035-38.447-32.273-76.116-60.235-107.24-25.462-28.197-57.811-50.21-92.693-63.098-34.964-12.787-71.998-16.342-107.1-12.494-50.693 5.5828-97.334 27.096-134.17 59.134-5.3679 4.6918-10.586 9.5456-15.526 14.683z" fill="url(#w)"/>
   </g>
   <path d="m-522.86 723.79s20 65.714 8.5714 65.714 17.143-48.571 17.143-48.571l17.143-2.8571-2.8571-25.714z" fill="url(#v)"/>
   <path transform="matrix(.72494 0 0 1.4999 -132.82 -310.39)" d="m-482.86 643.79c0 28.403-51.167 51.429-114.29 51.429s-114.29-23.025-114.29-51.429 51.167-51.429 114.29-51.429 114.29 23.025 114.29 51.429z" fill="url(#u)" stroke="#9f9999" stroke-linecap="square" stroke-linejoin="bevel" stroke-width=".3"/>
  </g>
  <g transform="matrix(1.0824 0 0 1.0954 -40.79 -41.548)" stroke="#9f9999">
   <g stroke-linecap="square" stroke-linejoin="bevel" stroke-width=".3">
    <path transform="matrix(1.0233 0 0 1.1458 -68.784 -302.44)" d="m-231.94 95.25c-65.271 0.43993-130.96 25.5-177.32 71.962-33.3 33.456-54.51 79.298-56.238 126.66-1.6307 39.427 8.9357 78.686 26.811 113.63 23.635 46.359 52.312 90.12 85.033 130.57 18.502 22.474 38.943 43.995 63.998 59.214 17.29 10.294 37.214 17.092 57.521 16.304 20.71-0.63156 40.54-8.5581 57.917-19.482 29.048-18.146 52.415-43.7 74.368-69.644 28.438-33.981 53.986-70.431 75.698-109.07 17.56-31.772 30.295-66.891 32.479-103.36 1.8898-33.115-5.2521-66.664-20.45-96.145-15.324-29.469-38.457-54.518-65.369-73.805-38.885-27.839-85.979-43.347-133.57-46.311-6.9511-0.41729-13.91-0.64201-20.874-0.52026z" fill="url(#t)"/>
    <path transform="matrix(1.0233 0 0 1.1458 -19.079 -299.17)" d="m-260 350.93c0 0.78898-14.071 1.4286-31.429 1.4286s-31.429-0.6396-31.429-1.4286 14.071-1.4286 31.429-1.4286 31.429 0.6396 31.429 1.4286z" fill="#dc0000"/>
    <path transform="matrix(1.0233 0 0 1.1458 -68.784 -302.44)" d="m-231.94 95.25c-65.271 0.43993-130.96 25.5-177.32 71.962-33.3 33.456-54.51 79.298-56.238 126.66-1.6307 39.427 8.9357 78.686 26.811 113.63 23.635 46.359 52.312 90.12 85.033 130.57 18.502 22.474 38.943 43.995 63.998 59.214 17.29 10.294 37.214 17.092 57.521 16.304 20.71-0.63156 40.54-8.5581 57.917-19.482 29.048-18.146 52.415-43.7 74.368-69.644 28.438-33.981 53.986-70.431 75.698-109.07 17.56-31.772 30.295-66.891 32.479-103.36 1.8898-33.115-5.2521-66.664-20.45-96.145-15.324-29.469-38.457-54.518-65.369-73.805-38.885-27.839-85.979-43.347-133.57-46.311-6.9511-0.41729-13.91-0.64201-20.874-0.52026z" fill="url(#b)"/>
    <path transform="matrix(1.0233 0 0 1.1458 -68.784 -302.44)" d="m-231.94 95.25c-65.271 0.43993-130.96 25.5-177.32 71.962-33.3 33.456-54.51 79.298-56.238 126.66-1.6307 39.427 8.9357 78.686 26.811 113.63 23.635 46.359 52.312 90.12 85.033 130.57 18.502 22.474 38.943 43.995 63.998 59.214 17.29 10.294 37.214 17.092 57.521 16.304 20.71-0.63156 40.54-8.5581 57.917-19.482 29.048-18.146 52.415-43.7 74.368-69.644 28.438-33.981 53.986-70.431 75.698-109.07 17.56-31.772 30.295-66.891 32.479-103.36 1.8898-33.115-5.2521-66.664-20.45-96.145-15.324-29.469-38.457-54.518-65.369-73.805-38.885-27.839-85.979-43.347-133.57-46.311-6.9511-0.41729-13.91-0.64201-20.874-0.52026z" fill="url(#b)"/>
    <path transform="matrix(1.0233 0 0 1.1458 -68.784 -302.44)" d="m-231.94 95.25c-65.271 0.43993-130.96 25.5-177.32 71.962-33.3 33.456-54.51 79.298-56.238 126.66-1.6307 39.427 8.9357 78.686 26.811 113.63 23.635 46.359 52.312 90.12 85.033 130.57 18.502 22.474 38.943 43.995 63.998 59.214 17.29 10.294 37.214 17.092 57.521 16.304 20.71-0.63156 40.54-8.5581 57.917-19.482 29.048-18.146 52.415-43.7 74.368-69.644 28.438-33.981 53.986-70.431 75.698-109.07 17.56-31.772 30.295-66.891 32.479-103.36 1.8898-33.115-5.2521-66.664-20.45-96.145-15.324-29.469-38.457-54.518-65.369-73.805-38.885-27.839-85.979-43.347-133.57-46.311-6.9511-0.41729-13.91-0.64201-20.874-0.52026z" fill="url(#b)"/>
    <path transform="matrix(1.0233 0 0 1.1458 -68.784 -302.44)" d="m-231.94 95.25c-65.271 0.43993-130.96 25.5-177.32 71.962-33.3 33.456-54.51 79.298-56.238 126.66-1.6307 39.427 8.9357 78.686 26.811 113.63 23.635 46.359 52.312 90.12 85.033 130.57 18.502 22.474 38.943 43.995 63.998 59.214 17.29 10.294 37.214 17.092 57.521 16.304 20.71-0.63156 40.54-8.5581 57.917-19.482 29.048-18.146 52.415-43.7 74.368-69.644 28.438-33.981 53.986-70.431 75.698-109.07 17.56-31.772 30.295-66.891 32.479-103.36 1.8898-33.115-5.2521-66.664-20.45-96.145-15.324-29.469-38.457-54.518-65.369-73.805-38.885-27.839-85.979-43.347-133.57-46.311-6.9511-0.41729-13.91-0.64201-20.874-0.52026z" fill="url(#b)"/>
   </g>
   <path d="m-317.14 400.93-34.286 34.286 57.143-2.8572 5.7143-11.429z" fill="#ff4141"/>
   <path d="m-248.57 340.93c0 31.559-31.34 57.143-70 57.143s-70-25.584-70-57.143 31.34-57.143 70-57.143 70 25.584 70 57.143z" fill="url(#s)" stroke-linecap="square" stroke-linejoin="bevel" stroke-width=".3"/>
  </g>
  <g transform="matrix(.96593 .25882 -.25882 .96593 -139.17 8.2947)">
   <g transform="translate(-162.86 -162.86)" stroke="#9f9999" stroke-linecap="square" stroke-linejoin="bevel">
    <path transform="matrix(1.0233 0 0 1.1458 629.49 80.834)" d="m-260 350.93c0 0.78898-14.071 1.4286-31.429 1.4286s-31.429-0.6396-31.429-1.4286 14.071-1.4286 31.429-1.4286 31.429 0.6396 31.429 1.4286z" fill="#f60" stroke-width=".3"/>
    <path transform="matrix(1.0233 0 0 1.1458 552.35 89.406)" d="m-260 350.93c0 0.78898-14.071 1.4286-31.429 1.4286s-31.429-0.6396-31.429-1.4286 14.071-1.4286 31.429-1.4286 31.429 0.6396 31.429 1.4286z" fill="url(#r)" stroke-width=".3"/>
    <path d="m382.44 106.7c-66.794 0.50406-134.02 29.217-181.46 82.452-34.077 38.333-55.783 90.858-57.551 145.12-1.6688 45.175 9.1443 90.156 27.437 130.2 24.187 53.117 53.533 103.26 87.018 149.6 18.934 25.75 39.852 50.409 65.492 67.846 17.693 11.795 38.082 19.583 58.864 18.68 21.194-0.72362 41.486-9.8056 59.268-22.322 29.726-20.791 53.638-50.07 76.104-79.796 29.102-38.935 55.246-80.698 77.465-124.97 17.969-36.403 31.002-76.642 33.237-118.42 1.9339-37.942-5.3747-76.382-20.927-110.16-15.681-33.765-39.355-62.466-66.895-84.563-39.793-31.898-87.986-49.666-136.69-53.062-7.1133-0.47812-14.235-0.73561-21.362-0.5961z" fill="url(#q)" stroke-width=".32485"/>
    <path d="m382.44 106.7c-66.794 0.50406-134.02 29.217-181.46 82.452-34.077 38.333-55.783 90.858-57.551 145.12-1.6688 45.175 9.1443 90.156 27.437 130.2 24.187 53.117 53.533 103.26 87.018 149.6 18.934 25.75 39.852 50.409 65.492 67.846 17.693 11.795 38.082 19.583 58.864 18.68 21.194-0.72362 41.486-9.8056 59.268-22.322 29.726-20.791 53.638-50.07 76.104-79.796 29.102-38.935 55.246-80.698 77.465-124.97 17.969-36.403 31.002-76.642 33.237-118.42 1.9339-37.942-5.3747-76.382-20.927-110.16-15.681-33.765-39.355-62.466-66.895-84.563-39.793-31.898-87.986-49.666-136.69-53.062-7.1133-0.47812-14.235-0.73561-21.362-0.5961z" fill="url(#p)" stroke-width=".32485"/>
   </g>
   <path d="m214.29 518.08-28.571 60 48.571-11.429 14.286 5.7143z" fill="url(#o)"/>
  </g>
  <g transform="matrix(.96593 .25882 -.25882 .96593 -293.19 -62.772)">
   <path d="m656.56 221.62c-64.649-16.801-137.01-6.4655-196.62 32.677-42.837 28.207-77.398 73.324-93.149 125.28-13.304 43.203-14.502 89.451-7.1956 132.86 9.6148 57.567 24.984 113.59 45.333 167.02 11.624 29.773 25.448 59.006 45.701 82.485 14.038 15.972 31.716 28.773 52.023 33.279 20.659 4.7864 42.61 1.2659 63.026-6.2218 34.095-12.389 64.769-34.482 94.164-57.38 38.187-30.076 74.25-63.65 107.17-100.66 26.779-30.512 49.782-66.007 62.754-105.78 11.688-36.149 14.578-75.17 8.2978-111.82-6.4078-36.673-21.846-70.523-42.729-98.996-30.181-41.11-72.133-70.746-118.3-86.632-6.7472-2.3029-13.56-4.3948-20.479-6.1046z" fill="url(#n)" stroke="#9f9999" stroke-linecap="square" stroke-linejoin="bevel" stroke-width=".32485"/>
   <path d="m488.57 758.08-71.429 45.714 65.714 14.286 22.857 11.429z" fill="url(#m)"/>
   <path transform="translate(800 382.86)" d="m-248.57 340.93c0 31.559-31.34 57.143-70 57.143s-70-25.584-70-57.143 31.34-57.143 70-57.143 70 25.584 70 57.143z" fill="url(#l)" filter="url(#j)" stroke="#9f9999" stroke-linecap="square" stroke-linejoin="bevel" stroke-width=".3"/>
   <path d="m656.56 221.62c-64.649-16.801-137.01-6.4655-196.62 32.677-42.837 28.207-77.398 73.324-93.149 125.28-13.304 43.203-14.502 89.451-7.1956 132.86 9.6148 57.567 24.984 113.59 45.333 167.02 11.624 29.773 25.448 59.006 45.701 82.485 14.038 15.972 31.716 28.773 52.023 33.279 20.659 4.7864 42.61 1.2659 63.026-6.2218 34.095-12.389 64.769-34.482 94.164-57.38 38.187-30.076 74.25-63.65 107.17-100.66 26.779-30.512 49.782-66.007 62.754-105.78 11.688-36.149 14.578-75.17 8.2978-111.82-6.4078-36.673-21.846-70.523-42.729-98.996-30.181-41.11-72.133-70.746-118.3-86.632-6.7472-2.3029-13.56-4.3948-20.479-6.1046z" fill="url(#k)"/>
  </g>
  <path transform="matrix(.86603 -.5 .5 .86603 -409.23 -374.54)" d="m-754.29 543.79c0 74.164-45.411 134.29-101.43 134.29s-101.43-60.122-101.43-134.29 45.411-134.29 101.43-134.29 101.43 60.122 101.43 134.29z" fill="url(#a)"/>
  <path transform="matrix(.70711 -.70711 .70711 .70711 -617.84 -171.06)" d="m-756.74 543.79c0 68.707-44.311 124.4-98.972 124.4s-98.972-55.698-98.972-124.4 44.311-124.4 98.972-124.4 98.972 55.698 98.972 124.4z" fill="url(#ad)"/>
  <path transform="matrix(.90141 0 0 1.2234 240.09 -651.02)" d="m-754.29 543.79c0 74.164-45.411 134.29-101.43 134.29s-101.43-60.122-101.43-134.29 45.411-134.29 101.43-134.29 101.43 60.122 101.43 134.29z" fill="url(#a)"/>
  <path transform="matrix(-.90141 0 0 1.2234 -985.46 -651.02)" d="m-754.29 543.79c0 74.164-45.411 134.29-101.43 134.29s-101.43-60.122-101.43-134.29 45.411-134.29 101.43-134.29 101.43 60.122 101.43 134.29z" fill="url(#a)" opacity=".50732"/>
  <path transform="matrix(.87069 -.2333 .31664 1.1817 161.62 -305.14)" d="m-754.29 543.79c0 74.164-45.411 134.29-101.43 134.29s-101.43-60.122-101.43-134.29 45.411-134.29 101.43-134.29 101.43 60.122 101.43 134.29z" fill="url(#a)"/>
  <path transform="matrix(-.63739 -.63739 -.86508 .86508 48.022 -655.88)" d="m-754.29 543.79c0 74.164-45.411 134.29-101.43 134.29s-101.43-60.122-101.43-134.29 45.411-134.29 101.43-134.29 101.43 60.122 101.43 134.29z" fill="url(#a)"/>
  <g transform="matrix(.96593 .25882 -.25882 .96593 -139.17 8.2947)" fill="url(#ac)">
   <g transform="translate(-162.86 -162.86)" stroke="#9f9999" stroke-linecap="square" stroke-linejoin="bevel">
    <path transform="matrix(1.0233 0 0 1.1458 629.49 80.834)" d="m-260 350.93c0 0.78898-14.071 1.4286-31.429 1.4286s-31.429-0.6396-31.429-1.4286 14.071-1.4286 31.429-1.4286 31.429 0.6396 31.429 1.4286z" stroke-width=".3"/>
    <path transform="matrix(1.0233 0 0 1.1458 552.35 89.406)" d="m-260 350.93c0 0.78898-14.071 1.4286-31.429 1.4286s-31.429-0.6396-31.429-1.4286 14.071-1.4286 31.429-1.4286 31.429 0.6396 31.429 1.4286z" stroke-width=".3"/>
    <path d="m382.44 106.7c-66.794 0.50406-134.02 29.217-181.46 82.452-34.077 38.333-55.783 90.858-57.551 145.12-1.6688 45.175 9.1443 90.156 27.437 130.2 24.187 53.117 53.533 103.26 87.018 149.6 18.934 25.75 39.852 50.409 65.492 67.846 17.693 11.795 38.082 19.583 58.864 18.68 21.194-0.72362 41.486-9.8056 59.268-22.322 29.726-20.791 53.638-50.07 76.104-79.796 29.102-38.935 55.246-80.698 77.465-124.97 17.969-36.403 31.002-76.642 33.237-118.42 1.9339-37.942-5.3747-76.382-20.927-110.16-15.681-33.765-39.355-62.466-66.895-84.563-39.793-31.898-87.986-49.666-136.69-53.062-7.1133-0.47812-14.235-0.73561-21.362-0.5961z" stroke-width=".32485"/>
    <path d="m382.44 106.7c-66.794 0.50406-134.02 29.217-181.46 82.452-34.077 38.333-55.783 90.858-57.551 145.12-1.6688 45.175 9.1443 90.156 27.437 130.2 24.187 53.117 53.533 103.26 87.018 149.6 18.934 25.75 39.852 50.409 65.492 67.846 17.693 11.795 38.082 19.583 58.864 18.68 21.194-0.72362 41.486-9.8056 59.268-22.322 29.726-20.791 53.638-50.07 76.104-79.796 29.102-38.935 55.246-80.698 77.465-124.97 17.969-36.403 31.002-76.642 33.237-118.42 1.9339-37.942-5.3747-76.382-20.927-110.16-15.681-33.765-39.355-62.466-66.895-84.563-39.793-31.898-87.986-49.666-136.69-53.062-7.1133-0.47812-14.235-0.73561-21.362-0.5961z" stroke-width=".32485"/>
   </g>
   <path d="m214.29 518.08-28.571 60 48.571-11.429 14.286 5.7143z"/>
  </g>
  <path transform="matrix(.90141 0 0 1.2234 654.37 -391.02)" d="m-754.29 543.79c0 74.164-45.411 134.29-101.43 134.29s-101.43-60.122-101.43-134.29 45.411-134.29 101.43-134.29 101.43 60.122 101.43 134.29z" fill="url(#a)"/>
  <path transform="matrix(-.63739 -.63739 -.86508 .86508 188.02 -375.88)" d="m-754.29 543.79c0 74.164-45.411 134.29-101.43 134.29s-101.43-60.122-101.43-134.29 45.411-134.29 101.43-134.29 101.43 60.122 101.43 134.29z" fill="url(#a)"/>
  <path d="m-508.57 729.51c14.286 0 268.57 174.29 282.86 237.14s3.3794 7.0141 3.3794 7.0141" fill="none" stroke="#9f9999"/>
  <path d="m-351.43 869.51 120 82.857 6.2365 21.326" fill="none" stroke="#9f9999"/>
  <path d="m-288.57 838.08 51.429 100 9.0936 36.572" fill="none" stroke="#9f9999"/>
  <path d="m-371.43 415.22 148.57 522.86 26.062 41.326" fill="none" stroke="#9f9999"/>
  <path d="m-42.857 620.93-177.14 317.14 15.908 38.469" fill="none" stroke="#9f9999"/>
  <path d="m-51.429 823.79c-14.286 8.5714-168.57 120-168.57 120l21.14 52.806" fill="none" stroke="#9f9999"/>
  <path d="m-220 932.36-40 20z" fill="none" stroke="#9f9999"/>
 </g>
</svg>
