<?xml version="1.0" encoding="UTF-8"?>
<svg viewBox="0 0 450 374" xmlns="http://www.w3.org/2000/svg" xmlns:xlink="http://www.w3.org/1999/xlink">
 <defs>
  <clipPath id="a">
   <path d="m51.431 82.482c5.1156 8.4706 11.076 20.13 12.714 29.889 1.5892 9.4723-3.9529 25.808-2.9042 33.588 5.2117 38.661 26.211 72.247 71.089 101.77 45.128 29.69 113.69 33.347 170.72 19.193 57.11-14.175 112.84-60.501 129.8-107.08 2.8677-7.8713 3.5846-13.119 4.6323-23.164 0.42019-4.0285 3.1434-11.365 4.7532-16.52-4.8665-4.4301-10.144-7.8438-16.842-9.7234-2.7324 3.8846-9.8202 8.8103-14.117 11.645-4.5603 3.0084-10.227 4.9204-15.298 6.9538-43.558 17.466-67.354 47.022-147.48 47.982-80.121 0.96019-118.46-38.63-136.37-54.043-7.0102-6.0316-22.051-12.866-28.284-19.698-5.7636-6.3171-11.169-16.633-13.249-24.927-1.3272-5.2931 1.0289-14.522-0.83421-18.808-7.0237 4.8973-24.986 7.2724-28.667 8.4384-0.5848 5.0971 7.5971 9.9596 10.339 14.499z" fill-rule="evenodd"/>
  </clipPath>
  <clipPath id="v">
   <path d="m49.916 83.997c5.1156 8.4706 11.076 20.13 12.714 29.889 1.5892 9.4723-3.9529 25.808-2.9042 33.588 5.2117 38.661 26.211 72.247 71.089 101.77 45.128 29.69 113.69 33.347 170.72 19.193 57.11-14.175 112.84-60.501 129.8-107.08 2.8677-7.8713 3.5846-13.119 4.6323-23.164 0.42019-4.0285 3.1434-11.365 4.7532-16.52-4.8665-4.4301-10.144-7.8438-16.842-9.7234-2.7324 3.8846-9.8202 8.8103-14.117 11.645-4.5603 3.0084-10.227 4.9204-15.298 6.9538-43.558 17.466-67.354 47.022-147.48 47.982-80.121 0.96019-118.46-38.63-136.37-54.043-7.0102-6.0316-22.051-12.866-28.284-19.698-5.7636-6.3171-11.169-16.633-13.249-24.927-1.3272-5.2931 1.0289-14.522-0.83421-18.808-7.0237 4.8973-24.986 7.2724-28.667 8.4384-0.5848 5.0971 7.5971 9.9596 10.339 14.499z" fill-rule="evenodd"/>
  </clipPath>
  <clipPath id="u">
   <path d="m344.49 151.68c-6.7639 8.4706-14.645 20.13-16.81 29.889-2.1012 9.4723 5.2266 25.808 3.8399 33.588-6.891 38.661-34.656 72.247-93.995 101.77-59.668 29.69-150.32 33.347-225.72 19.193-75.511-14.175-149.19-60.501-171.63-107.08-3.7917-7.8713-4.7395-13.119-6.1249-23.164-0.55558-4.0285-4.1563-11.365-6.2847-16.52 6.4346-4.4301 13.412-7.8438 22.268-9.7234 3.6129 3.8846 12.984 8.8103 18.665 11.645 6.0296 3.0084 13.522 4.9204 20.227 6.9538 57.593 17.466 89.056 47.022 195 47.982 105.94 0.96019 156.62-38.63 180.31-54.043 9.2689-6.0316 29.156-12.866 37.398-19.698 7.6206-6.3171 14.768-16.633 17.518-24.927 1.7549-5.2931-1.3604-14.522 1.103-18.808 9.2868 4.8973 33.037 7.2724 37.903 8.4384 0.77322 5.0971-10.045 9.9596-13.67 14.499z" fill-rule="evenodd"/>
  </clipPath>
  <filter id="t">
   <feGaussianBlur stdDeviation=".59268"/>
  </filter>
  <filter id="s">
   <feGaussianBlur stdDeviation=".58445"/>
  </filter>
  <filter id="d">
   <feGaussianBlur stdDeviation="3.4928"/>
  </filter>
  <filter id="q">
   <feGaussianBlur stdDeviation="2.43741"/>
  </filter>
  <filter id="c">
   <feGaussianBlur stdDeviation=".3527"/>
  </filter>
  <filter id="o">
   <feGaussianBlur stdDeviation="2.7794"/>
  </filter>
  <filter id="n">
   <feGaussianBlur stdDeviation=".74872"/>
  </filter>
  <filter id="r" x="-.07127" y="-.37933" width="1.1426" height="1.7587">
   <feGaussianBlur stdDeviation="7.18471"/>
  </filter>
  <filter id="p" x="-.27613" y="-.13352" width="1.5522" height="1.267">
   <feGaussianBlur stdDeviation="4.80304"/>
  </filter>
  <linearGradient id="b">
   <stop stop-color="#9b9502" offset="0"/>
   <stop stop-color="#9b9502" offset=".5"/>
   <stop stop-color="#99712d" offset="1"/>
  </linearGradient>
  <linearGradient id="m" x1="235.57" x2="231.57" y1="112.21" y2="204.5" gradientUnits="userSpaceOnUse">
   <stop stop-color="#a3b41e" offset="0"/>
   <stop stop-color="#fccc00" offset=".19765"/>
   <stop stop-color="#f2d763" offset="1"/>
  </linearGradient>
  <linearGradient id="l" x1="242.41" x2="235.51" y1="110.2" y2="277.38" gradientUnits="userSpaceOnUse">
   <stop stop-color="#c1c921" offset="0"/>
   <stop stop-color="#fccc00" offset=".19056"/>
   <stop stop-color="#f9d100" offset=".76719"/>
   <stop stop-color="#edd324" offset="1"/>
  </linearGradient>
  <linearGradient id="h" x1="223.21" x2="233.79" y1="274.9" y2="110.8" gradientUnits="userSpaceOnUse">
   <stop stop-color="#f3c50a" offset="0"/>
   <stop stop-color="#f6d30f" offset=".82627"/>
   <stop stop-color="#bdac07" offset="1"/>
  </linearGradient>
  <linearGradient id="g" x1="97.616" x2="67.154" y1="225.6" y2="158.28" gradientUnits="userSpaceOnUse">
   <stop stop-color="#ffffdf" offset="0"/>
   <stop stop-color="#fff" stop-opacity="0" offset="1"/>
  </linearGradient>
  <linearGradient id="e" x1="57.652" x2="52.143" y1="97.719" y2="65.429" gradientUnits="userSpaceOnUse">
   <stop stop-color="#9b9502" offset="0"/>
   <stop stop-color="#9b9502" offset=".09566"/>
   <stop stop-color="#99712d" offset="1"/>
  </linearGradient>
  <linearGradient id="k" x1="100.88" x2="20.735" y1="58.538" y2="92.824" gradientUnits="userSpaceOnUse" xlink:href="#b"/>
  <linearGradient id="j" x1="423.73" x2="474.31" y1="84.252" y2="149.24" gradientUnits="userSpaceOnUse" xlink:href="#b"/>
  <linearGradient id="i" x1="361.43" x2="427.86" y1="169.36" y2="112.93" gradientUnits="userSpaceOnUse" xlink:href="#b"/>
  <linearGradient id="f" x1="93.692" x2="64.109" y1="61.61" y2="65.352" gradientUnits="userSpaceOnUse" xlink:href="#b"/>
 </defs>
 <path d="m51.431 82.482c5.1156 8.4706 11.076 20.13 12.714 29.889 1.5892 9.4723-3.9529 25.808-2.9042 33.588 5.2117 38.661 26.211 72.247 71.089 101.77 45.128 29.69 113.69 33.347 170.72 19.193 57.11-14.175 112.84-60.501 129.8-107.08 2.8677-7.8713 3.5846-13.119 4.6323-23.164 0.42019-4.0285 3.1434-11.365 4.7532-16.52-4.8665-4.4301-10.144-7.8438-16.842-9.7234-2.7324 3.8846-9.8202 8.8103-14.117 11.645-4.5603 3.0084-10.227 4.9204-15.298 6.9538-43.558 17.466-67.354 47.022-147.48 47.982-80.121 0.96019-118.46-38.63-136.37-54.043-7.0102-6.0316-22.051-12.866-28.284-19.698-5.7636-6.3171-11.169-16.633-13.249-24.927-1.3272-5.2931 1.0289-14.522-0.83421-18.808-7.0237 4.8973-24.986 7.2724-28.667 8.4384-0.5848 5.0971 7.5971 9.9596 10.339 14.499z" fill="url(#h)" fill-rule="evenodd"/>
 <path d="m430.94 109.36c-66.429 76.429-144.71 97.778-202.37 94.286s-100.36-36.563-135.71-85c-3.3826-4.6343-8.9312-5.95-15.357-14.286s-21.071-43.929-21.071-43.929l375.58 48.571" clip-path="url(#a)" fill="url(#m)" fill-rule="evenodd"/>
 <path d="m40.357 62.214s22.137 26.135 26.429 38.929c3.2143 9.5815 0.52595 34.072 2.1429 42.857 12.316 66.922 83.508 103.17 153.57 111.79s160.98-38.243 187.14-72.143c26.581-34.445 22.143-59.643 33.214-73.929l0.71429-0.71429s5 0.35714 6.4286 0.35714-6.4286 97.143-6.4286 97.143l-65 63.571-91.786 39.643-195-23.214-57.143-78.214 5.7143-146.07z" clip-path="url(#a)" fill="url(#l)" fill-rule="evenodd"/>
 <path transform="translate(1.5152 -1.5152)" d="m372.75 263.89c0 12.546-65.304 40.406-132.08 40.406s-125.01-29.375-125.01-41.921 56.718 2.0203 123.49 2.0203 133.59-13.051 133.59-0.50508z" clip-path="url(#v)" fill="#a7780c" filter="url(#r)" opacity=".25"/>
 <path d="m433.18 111.54-2.0203-2.5254c-54.715 59.324-101.12 86.037-179.88 96.038 63.668-4.898 125.52-29.52 181.9-93.513z" clip-path="url(#a)" fill="#e2b412" fill-rule="evenodd" filter="url(#o)" opacity=".75"/>
 <path d="m128.41 160.14c38.131 28.87 59.562 40.213 94.832 44.151 35.296 3.941 65.252-4.1838 113.14-21.588-53.13 17.446-82.176 23.179-114.15 19.568-32-3.6146-56.444-13.927-93.822-42.131z" clip-path="url(#a)" fill="#fff789" fill-rule="evenodd" filter="url(#t)" opacity=".75"/>
 <path d="m81.071 175.07c32.254 64.194 120.16 87.522 180.56 82.179s145.56-35.607 169.44-116.82c-25.112 77.884-109.89 109.29-169.95 114.57s-147.15-19.868-180.05-79.924z" clip-path="url(#a)" fill="#fde25f" fill-rule="evenodd" filter="url(#s)"/>
 <path d="m440.48 109.81-2.0203-2.5254c-71.69 87.019-114.21 114.15-197.56 125.33 84.376-0.85738 139.66-16.893 199.58-122.81z" clip-path="url(#a)" fill="#e2b412" fill-rule="evenodd" filter="url(#d)" opacity=".25"/>
 <path transform="matrix(-.75631 0 0 1 311.97 -69.195)" d="m353.34 126.48-2.0203-2.5254c-73.693 101.67-150.28 158.09-227.61 171.8 96.397 10.254 182.4-53.763 229.63-169.27z" clip-path="url(#u)" fill="#e2b412" fill-rule="evenodd" filter="url(#d)" opacity=".12"/>
 <path d="m73.848 175.87c-4.9715 1.8463 3.4792 14.75 9.1429 22.321 5.6002 7.4861 17.381 24.143 23.59 19.769s-12.652-16.31-16.703-23.488-12.763-19.814-16.03-18.601z" fill="url(#g)" fill-rule="evenodd" filter="url(#n)" opacity=".25"/>
 <path d="m52.91 110.66c14.286 12.143 37.6 4.7252 41.885-11.703l7.7346-82.046-107.58 4.0406 57.961 89.709z" clip-path="url(#a)" fill="url(#k)" fill-rule="evenodd" filter="url(#q)" opacity=".7"/>
 <path d="m80-21-52.062 6.1562 34.375 86.688c11.702-0.99842 21.892-2.6382 24.844-5l-7.1562-87.844zm-66.281 7.8438-66.562 7.875 72.125 77.844c5.4301 0.67876 19.402 0.73323 33.344-0.03125l-38.906-85.688z" clip-path="url(#a)" fill="url(#f)" fill-rule="evenodd" filter="url(#c)" opacity=".76984"/>
 <path d="m403.35 106.27c-2.1429 20.714 33.263 39.605 52.549 31.034l43.625-10.29-78.287-86.873-17.887 66.129z" clip-path="url(#a)" fill="url(#j)" fill-rule="evenodd" filter="url(#p)" opacity=".7"/>
 <path d="m414.29 21.143-13.571 67.857c5.7143 15 44.286 45.714 57.857 38.571h82.857l-127.14-106.43z" clip-path="url(#a)" fill="url(#i)" fill-rule="evenodd" filter="url(#c)" opacity=".7"/>
 <path d="m27.938-14.844-14.219 1.6875 38.275 85.561c3.2733-0.17949 7.2867-0.5443 10.445-0.81377l-34.501-86.435z" clip-path="url(#a)" fill="url(#e)" fill-rule="evenodd" filter="url(#c)" opacity=".75"/>
</svg>
