<?xml version="1.0" encoding="UTF-8"?>
<svg viewBox="0 0 617.57611 580.78436" xmlns="http://www.w3.org/2000/svg" xmlns:xlink="http://www.w3.org/1999/xlink">
 <defs>
  <clipPath id="cv">
   <path d="m-347.93 119.64c46.845 14.977 45.495 41.45 41.428 68.571 11.645 5.9311 18.577 12.225 17.857 19.107 13.645 22.564-20.813 25.612-36.072 24.107-26.936 1.4633-51.332 5.813-67.857 19.107 31.007 54.435-4.9523 114.97-33.214 120.18-4.3237 1.3292-8.5598-5.6361-6.3969-15.843 3.8025-17.943-2.8624-42.541-19.258-58.767-4.2602-4.2161 4.5751-5.9545 8.0078-16.243 0.40543-1.2152 0.24692-2.7506-0.74538-3.2544-1.2569-0.63817-2.1301-0.15453-3.8851 1.6702-26.655 27.714-202.9 99.881-253.55 149.09-31.398 30.504-53.76 91.501-61.641 116.46-1.6553 5.2424-1.6649 5.5768-1.1045 8.3166 0.48557 2.3739 3.7096 6.2514 3.7096 6.2514 84.153 39.581 90.344 104.09 75.926 95.195-79.945-47.866-134.99-28.527-199.81 11.5-7.8113 4.2571-8.3715-2.9233-8.375-6.4461-0.0507-51.504 62.93-92.65 88.741-101.45 8.2344-2.8081 5.3353-4.5031 5.1695-7.5482-9.0224-165.73 81.66-300.59 99.643-318.57 13.443-13.443 28.259-41 21.429-52.857-4.6989-8.1572-29.186-6.0699 4.6428-27.857 15.354-8.6609 31.257-7.3706 50.228-1.0081 2.2729 0.7623 5.7 2.6946 8.7008 2.4367 2.1006-0.1805 4.6482-2.1747 5.7104-2.7198 83.27-42.73 167.22-61.079 260.72-29.423z"/>
  </clipPath>
  <clipPath id="cw">
   <path d="m109.56 833.11c-1.0324 0.078-2.0256 0.3907-2.9688 1.0625-5.69 4.0527 3.4003 6.3934 6.3125 11.438 2.7859 4.8254 0.49636 12.792-2.3438 15.219-27.09 23.152-52.22 66.752-68.5 110.53-0.55829 1.5013-1.037 3.3032-2.4062 4.0937-1.2664 0.7312-3.4764 0.3208-5.5625 0.625-25.044 3.6518-38.027 20.976-29.031 21.688 39.556-3.7012 64.07 27.297 64.625 16.812 3.1594-2.0903-10.418-19.025-18.188-32.375-0.65167-1.1198-1.7094-2.0374-1.8125-3.2812-0.15419-1.8592 1.158-3.4587 1.875-5.2813 7.2493-18.426 24.639-42.828 75.906-53.656 18.205-3.845 31.036-4.9746 43.562-4.1563-0.69481 3.4714-2.6896 7.7136-7.9062 13.25-17.824 11.765 22.844 19.5 28.156-10.406 14.093 3.3106 38.688 16.594 38.688 16.594 3.9488 2.4871 5.6928 3.8504 9.4062 6.4688 4.6317 3.2658 12.046 4.0656 12.719 0.8437 1.6033-7.6726-8.2345-13.572-7.9375-18.438 0.55008-9.0107-1.9067-13.114-7.5938-23.219-17.14-30.456-62.964-44.372-89.531-48.094-4.4765-0.627-8.8328-5.2703-13.656-10.094-3.3257-3.3257-10.28-7.6046-18.625-9-1.6645-0.2784-3.4668-0.7545-5.1875-0.625z"/>
  </clipPath>
  <filter id="ck">
   <feGaussianBlur stdDeviation=".8176"/>
  </filter>
  <filter id="cb">
   <feGaussianBlur stdDeviation="4.1394"/>
  </filter>
  <filter id="bv">
   <feGaussianBlur stdDeviation="1.3921"/>
  </filter>
  <filter id="bp">
   <feGaussianBlur stdDeviation="3.2152"/>
  </filter>
  <filter id="bn">
   <feGaussianBlur stdDeviation=".3278"/>
  </filter>
  <filter id="bf">
   <feGaussianBlur stdDeviation="1.1895"/>
  </filter>
  <filter id="be">
   <feGaussianBlur stdDeviation="1.4869"/>
  </filter>
  <filter id="cr">
   <feGaussianBlur stdDeviation="2.7651"/>
  </filter>
  <filter id="e">
   <feBlend in2="BackgroundImage" mode="multiply"/>
  </filter>
  <filter id="bc">
   <feGaussianBlur stdDeviation=".8312"/>
  </filter>
  <filter id="bb">
   <feGaussianBlur stdDeviation=".3059"/>
  </filter>
  <filter id="bs"/>
  <filter id="cl" x="-.04641" y="-.21387" width="1.0928" height="1.4278">
   <feGaussianBlur stdDeviation="2.4982"/>
  </filter>
  <filter id="cd" x="-.04525" y="-.24253" width="1.0905" height="1.4851">
   <feGaussianBlur stdDeviation="4.0013"/>
  </filter>
  <filter id="bw" x="-.13699" y="-.43597" width="1.274" height="1.8719">
   <feGaussianBlur stdDeviation="1.8274"/>
  </filter>
  <filter id="g" x="-.62976" y="-1.0002" width="2.2595" height="3.0004">
   <feGaussianBlur stdDeviation="3.5783"/>
  </filter>
  <filter id="cu" x="-.07199" y="-.14682" width="1.144" height="1.2936">
   <feGaussianBlur stdDeviation=".4886"/>
  </filter>
  <filter id="ct" x="-.28824" y="-.28134" width="1.5765" height="1.5627">
   <feGaussianBlur stdDeviation="15.9363"/>
  </filter>
  <filter id="cs" x="-.30056" y="-.32041" width="1.6011" height="1.6408">
   <feGaussianBlur stdDeviation="13.551"/>
  </filter>
  <filter id="cq" x="-.15046" y="-.16551" width="1.3009" height="1.331">
   <feGaussianBlur stdDeviation="2.0899"/>
  </filter>
  <filter id="cp" x="-.28768" y="-.32473" width="1.5754" height="1.6494">
   <feGaussianBlur stdDeviation="25.0684"/>
  </filter>
  <filter id="co" x="-.25109" y="-.0806" width="1.5022" height="1.1612">
   <feGaussianBlur stdDeviation="5.9419"/>
  </filter>
  <filter id="cj" x="-.04963" y="-.16465" width="1.0993" height="1.3293">
   <feGaussianBlur stdDeviation="2.3202"/>
  </filter>
  <filter id="cg" x="-.43536" y="-.62601" width="1.8707" height="2.252">
   <feGaussianBlur stdDeviation="10.9852"/>
  </filter>
  <filter id="cf" x="-.32286" y="-.52412" width="1.6457" height="2.0482">
   <feGaussianBlur stdDeviation="3.4638"/>
  </filter>
  <filter id="ce" x="-.45797" y="-.7353" width="1.9159" height="2.4706">
   <feGaussianBlur stdDeviation="11.1879"/>
  </filter>
  <filter id="cc" x="-.32082" y="-.83349" width="1.6416" height="2.667">
   <feGaussianBlur stdDeviation="9.9473"/>
  </filter>
  <filter id="ch" x="-.04554" y="-.16347" width="1.0911" height="1.3269">
   <feGaussianBlur stdDeviation="1.1558"/>
  </filter>
  <filter id="bx" x="-.10907" y="-.14822" width="1.2181" height="1.2964">
   <feGaussianBlur stdDeviation="1.022"/>
  </filter>
  <filter id="bz" x="-.18221" y="-.24762" width="1.3644" height="1.4952">
   <feGaussianBlur stdDeviation="1.7073"/>
  </filter>
  <filter id="ci" x="-.31519" y="-.42417" width="1.6304" height="1.8483">
   <feGaussianBlur stdDeviation="2.0503"/>
  </filter>
  <filter id="cm" x="-.12208" y="-.17103" width="1.2442" height="1.342">
   <feGaussianBlur stdDeviation="2.4686"/>
  </filter>
  <filter id="cn" x="-.10698" y="-.10139" width="1.214" height="1.2028">
   <feGaussianBlur stdDeviation="1.0315"/>
  </filter>
  <filter id="bm" x="-.38836" y="-.77777" width="1.7767" height="2.5556">
   <feGaussianBlur stdDeviation="2.0097"/>
  </filter>
  <filter id="ca" x="-.20535" y="-.27635" width="1.4107" height="1.5527">
   <feGaussianBlur stdDeviation="1.3358"/>
  </filter>
  <filter id="bg" x="-.17414" y="-.27652" width="1.3483" height="1.553">
   <feGaussianBlur stdDeviation=".7179"/>
  </filter>
  <filter id="bq" x="-.20412" y="-.23663" width="1.4082" height="1.4733">
   <feGaussianBlur stdDeviation="1.3131"/>
  </filter>
  <filter id="by" x="-.05088" y="-.14755" width="1.1018" height="1.2951">
   <feGaussianBlur stdDeviation=".7074"/>
  </filter>
  <filter id="bu" x="-.12619" y="-.16357" width="1.2524" height="1.3271">
   <feGaussianBlur stdDeviation=".2869"/>
  </filter>
  <filter id="bd" x="-.33809" y="-.33049" width="1.6762" height="1.661">
   <feGaussianBlur stdDeviation=".9798"/>
  </filter>
  <filter id="bt" x="-.13589" y="-.17615" width="1.2718" height="1.3523">
   <feGaussianBlur stdDeviation=".3089"/>
  </filter>
  <filter id="bo" x="-.21851" y="-.39006" width="1.437" height="1.7801">
   <feGaussianBlur stdDeviation="1.2045"/>
  </filter>
  <filter id="br" x="-.51386" y="-.42589" width="2.0277" height="1.8518">
   <feGaussianBlur stdDeviation="1.8062"/>
  </filter>
  <filter id="bk" x="-.08594" y="-.13203" width="1.1719" height="1.2641">
   <feGaussianBlur stdDeviation=".6053"/>
  </filter>
  <filter id="bl" x="-.66112" y="-.84" width="2.3222" height="2.68">
   <feGaussianBlur stdDeviation="3.5114"/>
  </filter>
  <filter id="bj" x="-.0314" y="-.11478" width="1.0628" height="1.2296">
   <feGaussianBlur stdDeviation=".4394"/>
  </filter>
  <filter id="bi" x="-.09606" y="-.18319" width="1.1921" height="1.3664">
   <feGaussianBlur stdDeviation="1.1443"/>
  </filter>
  <filter id="bh" x="-.50349" y="-.36309" width="2.007" height="1.7262">
   <feGaussianBlur stdDeviation="1.246"/>
  </filter>
  <filter id="ba" x="-.27577" y="-.4815" width="1.5515" height="1.963">
   <feGaussianBlur stdDeviation="2.257"/>
  </filter>
  <linearGradient id="b">
   <stop stop-color="#40556a" offset="0"/>
   <stop stop-color="#6a8095" offset="1"/>
  </linearGradient>
  <linearGradient id="c">
   <stop stop-color="#404055" offset="0"/>
   <stop stop-color="#6a8095" offset="1"/>
  </linearGradient>
  <linearGradient id="d">
   <stop stop-color="#80aaea" offset="0"/>
   <stop stop-color="#6a8095" offset="1"/>
  </linearGradient>
  <linearGradient id="a">
   <stop stop-color="#8095bf" offset="0"/>
   <stop stop-color="#8095bf" offset=".2176"/>
   <stop stop-color="#555580" offset=".8647"/>
   <stop stop-color="#555580" offset="1"/>
  </linearGradient>
  <linearGradient id="f">
   <stop stop-color="#6a6a95" offset="0"/>
   <stop stop-color="#2b2b40" offset="1"/>
  </linearGradient>
  <linearGradient id="av" x1="-632.74" x2="-483.51" gradientUnits="userSpaceOnUse" xlink:href="#b"/>
  <linearGradient id="az" x1="365.44" x2="404.78" gradientUnits="userSpaceOnUse" xlink:href="#a"/>
  <linearGradient id="ay" x1="401.05" x2="419.38" gradientUnits="userSpaceOnUse" xlink:href="#a"/>
  <linearGradient id="ax" x1="408.44" x2="442.02" gradientUnits="userSpaceOnUse" xlink:href="#a"/>
  <linearGradient id="aw" x1="337.42" x2="369.4" y1="664.41" y2="694.85" gradientUnits="userSpaceOnUse" xlink:href="#a"/>
  <radialGradient id="p" cx="-379.87" cy="148" r="16.008" gradientTransform="matrix(1 0 0 .31422 0 101.49)" gradientUnits="userSpaceOnUse">
   <stop stop-color="#fff" offset="0"/>
   <stop stop-color="#fff" stop-opacity="0" offset="1"/>
  </radialGradient>
  <radialGradient id="aq" cx="234.6" cy="920.76" r="15.832" gradientUnits="userSpaceOnUse">
   <stop stop-color="#555580" offset="0"/>
   <stop stop-color="#555580" stop-opacity="0" offset="1"/>
  </radialGradient>
  <radialGradient id="ak" cx="458.83" cy="657.16" r="4.9469" gradientTransform="matrix(.9978 .06635 -.11486 1.7273 79.272 -513.88)" gradientUnits="userSpaceOnUse">
   <stop stop-color="#8095bf" offset="0"/>
   <stop stop-color="#8095bf" offset=".2176"/>
   <stop stop-color="#555580" offset=".415"/>
   <stop stop-color="#555580" offset="1"/>
  </radialGradient>
  <radialGradient id="ah" cx="465.21" cy="649.86" r="3.0571" gradientTransform="matrix(.90114 .43353 -.66085 1.3737 473.81 -444.37)" gradientUnits="userSpaceOnUse">
   <stop stop-color="#8095bf" offset="0"/>
   <stop stop-color="#8095bf" offset=".2176"/>
   <stop stop-color="#555580" offset=".4207"/>
   <stop stop-color="#555580" offset="1"/>
  </radialGradient>
  <radialGradient id="ab" cx="-505.04" cy="285.82" r="61.567" gradientTransform="matrix(.82942 -.51193 .32352 .52416 -178.62 -123.98)" gradientUnits="userSpaceOnUse" xlink:href="#c"/>
  <radialGradient id="aa" cx="-401.75" cy="171.42" r="64.592" gradientTransform="matrix(1 0 0 .217 0 134.22)" gradientUnits="userSpaceOnUse" xlink:href="#b"/>
  <radialGradient id="z" cx="-376.28" cy="220.88" r="90.843" gradientTransform="matrix(1 0 0 .49776 0 110.94)" gradientUnits="userSpaceOnUse" xlink:href="#b"/>
  <radialGradient id="y" cx="-424.69" cy="151.63" r="12.477" gradientTransform="matrix(1 0 0 .6923 0 48.679)" gradientUnits="userSpaceOnUse" xlink:href="#d"/>
  <radialGradient id="x" cx="-587.42" cy="359.09" r="84.548" gradientTransform="matrix(.80204 1.2766 -1.5871 .99708 428.87 688.92)" gradientUnits="userSpaceOnUse" xlink:href="#c"/>
  <radialGradient id="w" cx="-417.48" cy="159.7" r="10.944" gradientTransform="matrix(1.6886 .0461 -.02387 .87431 290.97 39.198)" gradientUnits="userSpaceOnUse" xlink:href="#c"/>
  <radialGradient id="v" cx="-422.96" cy="294.17" r="37.939" gradientTransform="matrix(1.7154 1.1485 -.91597 1.3682 572.06 367.08)" gradientUnits="userSpaceOnUse" xlink:href="#c"/>
  <radialGradient id="u" cx="-737.74" cy="458.54" r="28.397" gradientTransform="matrix(1 0 0 3.1151 0 -969.87)" gradientUnits="userSpaceOnUse" xlink:href="#b"/>
  <radialGradient id="t" cx="-752.4" cy="629.5" r="98.969" gradientTransform="matrix(1.4619 .02887 -.00919 .46518 353.32 352.82)" gradientUnits="userSpaceOnUse" xlink:href="#b"/>
  <radialGradient id="s" cx="-618.03" cy="280.74" r="104.57" gradientTransform="matrix(1 0 0 .88592 0 32.026)" gradientUnits="userSpaceOnUse" xlink:href="#d"/>
  <radialGradient id="r" cx="-469.69" cy="194.31" r="30.279" gradientTransform="matrix(1 0 0 .69545 0 59.176)" gradientUnits="userSpaceOnUse" xlink:href="#d"/>
  <radialGradient id="q" cx="-375.24" cy="148.45" r="29.315" gradientTransform="matrix(1 0 0 .62284 0 55.99)" gradientUnits="userSpaceOnUse" xlink:href="#d"/>
  <radialGradient id="o" cx="-641.93" cy="247.86" r="66.346" gradientUnits="userSpaceOnUse" xlink:href="#b"/>
  <radialGradient id="n" cx="-490.73" cy="123.33" r="106.11" gradientTransform="matrix(1 0 0 .18658 0 100.32)" gradientUnits="userSpaceOnUse" xlink:href="#b"/>
  <radialGradient id="m" cx="-329.47" cy="221.61" r="33.875" gradientTransform="matrix(1.2916 -.14607 .11446 1.2395 75.928 -108.9)" gradientUnits="userSpaceOnUse" xlink:href="#d"/>
  <radialGradient id="l" cx="-344.68" cy="191.2" r="56.098" gradientTransform="matrix(1 0 0 .29442 0 134.91)" gradientUnits="userSpaceOnUse" xlink:href="#b"/>
  <radialGradient id="k" cx="561.14" cy="62.576" r="16.668" gradientTransform="matrix(.66481 -.22366 .58578 1.7412 -742.24 172.54)" gradientUnits="userSpaceOnUse" xlink:href="#c"/>
  <radialGradient id="j" cx="-302.68" cy="149.32" r="30.734" gradientTransform="matrix(.76819 -.64022 1.2654 1.5183 -256.59 -274.73)" gradientUnits="userSpaceOnUse" xlink:href="#b"/>
  <radialGradient id="i" cx="-430.17" cy="163.67" r="11.176" gradientTransform="matrix(1.1948 0 0 .73797 82.146 42.837)" gradientUnits="userSpaceOnUse" xlink:href="#c"/>
  <radialGradient id="h" cx="-530.5" cy="373.23" r="125.68" gradientTransform="matrix(1 0 0 .78387 0 72.393)" gradientUnits="userSpaceOnUse" xlink:href="#b"/>
  <radialGradient id="au" cx="412.42" cy="650.65" r="66.413" gradientTransform="matrix(1.8827 0 0 1.3874 -648.46 21.628)" gradientUnits="userSpaceOnUse" xlink:href="#a"/>
  <radialGradient id="at" cx="440.9" cy="662.11" r="8.7219" gradientTransform="matrix(1.7404 .85762 -2.3302 4.7288 961.51 -2564.9)" gradientUnits="userSpaceOnUse" xlink:href="#a"/>
  <radialGradient id="as" cx="394.8" cy="687.7" r="30.457" gradientTransform="matrix(.18271 .98317 -1.2782 .23753 1185.7 104.8)" gradientUnits="userSpaceOnUse" xlink:href="#a"/>
  <radialGradient id="ar" cx="450.55" cy="630.96" r="10.621" gradientTransform="matrix(2.1433 1.7318 -.49695 .61504 -201.57 -537.36)" gradientUnits="userSpaceOnUse" xlink:href="#a"/>
  <radialGradient id="ap" cx="450.69" cy="632.49" r="10.621" gradientTransform="matrix(2.1433 1.7318 -.49695 .61504 -201.57 -537.36)" gradientUnits="userSpaceOnUse" xlink:href="#a"/>
  <radialGradient id="ao" cx="454.27" cy="639.75" r="7.806" gradientTransform="matrix(1.3088 .89217 -.41853 .61399 114.22 -159.8)" gradientUnits="userSpaceOnUse" xlink:href="#a"/>
  <radialGradient id="an" cx="466.97" cy="642.45" r="4.125" gradientTransform="matrix(19.457 13.552 -3.0294 4.3493 -6712.9 -8507.1)" gradientUnits="userSpaceOnUse" xlink:href="#f"/>
  <radialGradient id="am" cx="424.77" cy="636.47" r="16.683" gradientTransform="matrix(-.22373 1.6631 -3.3253 -.44735 2388.4 465.54)" gradientUnits="userSpaceOnUse" xlink:href="#a"/>
  <radialGradient id="al" cx="444.82" cy="645.19" r="7.806" gradientTransform="matrix(1.3088 .89217 -.41853 .61399 140.83 -147.39)" gradientUnits="userSpaceOnUse" xlink:href="#a"/>
  <radialGradient id="aj" cx="461.77" cy="645.47" r="7.7196" gradientTransform="matrix(1 0 0 .86263 -1.1364 88.038)" gradientUnits="userSpaceOnUse" xlink:href="#a"/>
  <radialGradient id="ai" cx="417.71" cy="637.66" r="16.683" gradientTransform="matrix(-.11883 .88333 -1.7662 -.23761 1613.8 406.47)" gradientUnits="userSpaceOnUse" xlink:href="#a"/>
  <radialGradient id="ag" cx="450.55" cy="630.96" r="10.621" gradientTransform="matrix(.62491 .98447 -.59535 -.17919 563.07 322.72)" gradientUnits="userSpaceOnUse" xlink:href="#a"/>
  <radialGradient id="af" cx="450.55" cy="630.96" r="10.621" gradientTransform="matrix(.62491 .98447 -.59535 -.17919 557.39 310.47)" gradientUnits="userSpaceOnUse" xlink:href="#a"/>
  <radialGradient id="ae" cx="425.3" cy="603.14" r="8.4525" gradientTransform="matrix(1 0 0 .65086 .35714 212.92)" gradientUnits="userSpaceOnUse" xlink:href="#a"/>
  <radialGradient id="ad" cx="374.55" cy="691.91" r="2.9696" gradientTransform="matrix(.94473 -.32784 2.7662 7.9713 -1894.4 -4700.3)" gradientUnits="userSpaceOnUse" xlink:href="#a"/>
  <radialGradient id="ac" cx="457.12" cy="653.75" r="11.693" gradientTransform="matrix(1 0 0 .77745 0 145.36)" gradientUnits="userSpaceOnUse" xlink:href="#f"/>
 </defs>
 <g transform="translate(894.43 -93.926)">
  <g transform="translate(-1.5902 8.3191)" clip-path="url(#cv)">
   <path d="m-347.86 119.51c46.845 14.977 45.495 41.45 41.429 68.571 11.645 5.9311 18.577 12.225 17.857 19.107 13.645 22.564-20.813 25.612-36.071 24.107-26.936 1.4633-51.332 5.813-67.857 19.107 31.007 54.435-4.9523 114.97-33.214 120.18-4.3237 1.3292-8.5598-5.6361-6.3969-15.843 3.8025-17.943-2.8624-42.541-19.258-58.767-4.2602-4.2161 4.5751-5.9545 8.0078-16.243 0.40543-1.2152 0.24692-2.7506-0.74538-3.2544-1.2569-0.63817-2.1301-0.15453-3.8851 1.6702-26.655 27.714-202.9 99.881-253.55 149.09-31.398 30.504-53.76 91.501-61.641 116.46-1.6553 5.2424-1.6649 5.5768-1.1045 8.3166 0.48557 2.3739 3.7096 6.2514 3.7096 6.2514 84.153 39.581 90.344 104.09 75.926 95.195-79.945-47.866-134.99-28.527-199.81 11.5-7.8113 4.257-8.3715-2.9234-8.375-6.4462-0.0507-51.504 62.93-92.65 88.741-101.45 8.2344-2.8081 5.3353-4.5031 5.1695-7.5482-9.0224-165.73 81.66-300.59 99.643-318.57 13.443-13.443 28.259-41 21.429-52.857-4.6989-8.1572-29.186-6.0699 4.6428-27.857 15.354-8.6609 31.257-7.3706 50.228-1.0081 2.2729 0.7623 5.7 2.6946 8.7008 2.4367 2.1006-0.1805 4.6482-2.1747 5.7104-2.7198 83.27-42.73 167.22-61.079 260.72-29.423z" fill="#6a8095"/>
   <path d="m-531.39 236.45c-24.705-0.3837-37.11 9.124-48.325 19.266-36.194 32.732-62.351 71.526-93.281 112.81-23.486 31.349-35.855 56.381-34.5 64.938 1.946-2.2001 3.9463-4.2852 5.9688-6.25 46.913-45.577 201.53-110.84 245.28-142.25-9.7224-30.115-50.439-48.132-75.144-48.516z" fill="url(#h)"/>
   <path d="m-437.9375,208.625c-4.26331,1.02254-8.76022,2.43327-13.40625,4.28125 .27007.0108.5398.0312.8125.0312 .41954,0 .83647-.006 1.25-.0312 .30821-.0185.6017-.0617.90625-.0937 .43975-.0462.8811-.0826 1.3125-.15625 .0941-.0161.18754-.0452.28125-.0625 .46856-.0867.94887-.1945 1.40625-.3125l.15625-.0312c.49213-.1311.95985-.30271 1.4375-.46875 .50896-.17721 1.00909-.34728 1.5-.5625l.0625-.0312c.28926-.12798.59251-.26554.875-.40625l.65625-.34375 .28125-.15625c.38585-.21701.75406-.44692 1.125-.6875 .0242-.0157.0384-.0467.0625-.0625 .36667-.24042.74275-.48746 1.09375-.75 .0656-.0491.12244-.10643.1875-.15625zm-25.40625,9.8125c-6.15713,3.20071-12.43773,7.02635-18.65625,11.4375 .15972,2.61252-1.32467,6.33235-5.3125,11.5625-12.84628,11.83671-24.44308,22.29453-35.28125,31.59375l-.0312.0312c-6.42557,12.08126-7.80443,22.9161-2.65625,29.84375 4.98365,6.70624 15.2128,8.58728 28.03125,6.28125 23.75598-12.71608 42.01874-23.54386 49.25-31.0625 1.75498-1.82472 2.64935-2.29442 3.90625-1.65625 .10392.0528.19583.145.28125.21875l23.59375-12.21875c-1.1713.24911-2.33774.45986-3.5.65625l-.375.0937c-.31422.0515-.62397.0777-.9375.125-.40878.0617-.81117.13302-1.21875.1875l-.5.0625c-.49119.0623-.9794.10491-1.46875.15625l-.1875.0312c-.29291.0299-.58277.0367-.875.0625-.17655.0156-.35495.0485-.53125.0625h-.125c-.20703.0161-.41831.0485-.625.0625-.54157.0367-1.08588.072-1.625.0937-.7925.0318-1.58796.0329-2.375.0312h-.25c-.70363-.005-1.3947.002-2.09375-.0312s-1.39522-.0939-2.09375-.15625l-.21875-.0312c-.61457-.0577-1.23306-.10577-1.84375-.1875l-.1875-.0312c-.55516-.0766-1.1044-.18401-1.65625-.28125l-.34375-.0625-.96875-.1875c-.52898-.11018-1.068-.21344-1.59375-.34375l-.59375-.15625c-.64054-.16857-1.27071-.36268-1.90625-.5625-.29817-.0937-.6092-.18046-.90625-.28125l-.5-.1875c-.50132-.17725-1.00196-.3645-1.5-.5625-.66228-.26329-1.31242-.54273-1.96875-.84375-.58456-.26819-1.17032-.5448-1.75-.84375-.72159-.37214-1.44244-.76624-2.15625-1.1875-8.91821-5.26313-11.08106-19.31443-9.59375-29.5625 .076-.52356.1572-1.04287.25-1.5625 .0261-.14554.0664-.29225.0937-.4375 .0707-.37581.13953-.75127.21875-1.125 .19794-.93384.4379-1.86054.6875-2.78125 .0625-.23001.12187-.45832.1875-.6875 .2247-.7867.4896-1.56688.75-2.34375 .0484-.14407.0754-.29378.125-.4375 .32091-.93222.66177-1.86348 1.03125-2.78125z" fill="url(#ab)" filter="url(#cs)" opacity=".6078"/>
   <path d="m-405.9375,157.40625c-3.90334.0161-7.78379.10495-11.625.28125 4.76678.9404 6.21875,4.20112 6.21875,6.5625 0,2.91916-3.31038,5.28125-9.84375,5.28125s-10.84375-1.83084-10.84375-4.75c0-2.27231 2.42025-5.22541 6.5625-6.59375-.9834.0879-1.95669.18997-2.9375.3125-.75484.59128-1.53728,1.21486-2.4375,1.90625-3.2842,2.52235-4.08353,7.12675-3.90625,6.34375 .0459-.20287.14198-1.18088.34375-2.53125 .0909-.5943.20404-1.28174.34375-2 .0153-.0794.0465-.16947.0625-.25 .10151-.50509.21381-1.02565.34375-1.5625 .0883-.36682.1779-.71962.28125-1.09375-2.09489.43098-4.16098.96635-6.1875,1.65625-5.03083,1.71268-11.58113,3.28087-15.4375,6.9375-1.91992,1.82048-10.21739,14.62653-11.25,17.0625-.0968.22837-.11188.38832-.0625.46875 9.55558-5.16626 21.74434-10.94569 26.5625-10.3125s6.72356,3.05935 8.09375,5.8125c5.52385-4.92519 18.00026-10.50766 22.90625-11.625 7.26733-1.65513 16.59248.41739 24.5,2.65625 3.79551,1.07463 7.63819,2.32275 11.25,4 .64427.0214 1.31474.0487 1.96875.0625 .93222.0191 1.85483.0312 2.8125.0312h.625c.2719-.00096.53828-.0285.8125-.0312 1.39313-.0155 2.81923-.0579 4.28125-.125 .66749-.0306 1.3473-.0508 2.03125-.0937l.625-.0312c.90141-.0614 1.81713-.13375 2.75-.21875 4.06163-.37007 8.17882-.52028 12.28125-.375l1.53125.0625c.24999.0134.50019.0469.75.0625 1.79763.11225 3.59353.26469 5.375.5-.59709-.4971-1.46016-1.13703-2.6875-2-3.87797-2.73064-17.83789-10.05602-26.21875-12.15625-12.88572-3.22915-26.50595-4.305-39.875-4.25z" fill="url(#aa)" filter="url(#cl)"/>
   <path d="m-437.25 173.84c-0.1584 0.22359-0.32114 0.44725-0.5 0.65625-9.2271 10.782-19.208 19.65-31.344 27.094 2.1364 3.9928 5.4468 7.2093 9.4375 9.1875-3.5032 6.2324-6.0208 12.85-7.0312 19.812-1.4873 10.248 0.67554 24.299 9.5938 29.562 11.453 6.759 23.912 7.0806 36.906 4.3125l28.562-14.75c16.504-12.755 40.505-17 66.969-18.438 15.258 1.5046 49.739-1.5302 36.094-24.094 0.21789-3.1263-0.54484-0.10768-2.25-0.0937-1.6481-0.0174-4.443-0.03-7.9375 0.0312-15.314-2.0772-17.387 5.0737-34.125-4.7188-23.461-10.899-50.671-27.409-66.406-26.719-0.51115 0.0224-1.001 0.0857-1.5 0.125-9.9247 0.78095-29.781 2.25-29.781 2.25l-1.8125 1.5312c-1.2898-2.1973-2.9506-4.1458-4.875-5.75zm-17.344 38.688c0.30782 0.0619 0.62508 0.1083 0.9375 0.15625-0.31327-0.0489-0.62893-0.0931-0.9375-0.15625zm2.5625 0.34375c0.49078 0.0352 1.0006 0.0625 1.5 0.0625-0.50583 0-1.0035-0.0257-1.5-0.0625z" fill="url(#z)" filter="url(#bp)"/>
   <path transform="matrix(1.0906 .10076 -.08006 .86653 50.907 63.667)" d="m-422.41 149.56c-1.9907 2e-3 -4.0148 0.42276-5.9062 1.4688-5.4359 3.006-6.2602 14.936-6.4375 15.719s0.62205-3.8214 3.9062-6.3438c5.7134-4.388 7.2106-6.8976 20.844-5.7812 1.3758 0.11266-5.2965-5.069-12.406-5.0625z" fill="url(#y)" filter="url(#cf)"/>
   <path d="m-409.35 164.4c0 3.4878-3.9223 6.3153-11.728 6.3153s-12.961-2.1874-12.961-5.6752 4.7387-8.358 12.534-8.7689c9.5102-0.50121 12.155 4.641 12.155 8.1288z" fill="url(#i)"/>
   <path transform="matrix(1.4633 0 0 1.6537 280.45 -200.77)" d="m-527.42 272.82c-51.437 47.394-40.603 43.48-84.058 59.865-27.594 12.696-21.7-0.1889 8.9343-31.599 24.038-24.646 24.198-24.086 50.685-38.366 18.205-7.0779 37.614-8.0206 24.438 10.1z" fill="url(#x)" filter="url(#cb)"/>
   <path d="m-503.37 225.67c7.2606-1.9022 32.143-5.3077 16.07 15.772-51.437 47.394-82.746 72.838-126.2 89.223-27.594 12.696-21.7-0.1889 8.9343-31.599 24.038-24.646 54.95-46.114 81.438-60.394 5.7782-3.1151 8.6018-10.08 19.759-13.003z" fill="#6a8095" filter="url(#bf)"/>
   <path transform="matrix(.97052 0 0 .97052 -12.43 4.8187)" d="m-411.36 164.25c0 2.9192-3.2828 5.2856-9.8161 5.2856s-10.848-1.8307-10.848-4.7499 3.9661-6.9953 10.49-7.3392c7.9596-0.41949 10.173 3.8843 10.173 6.8035z" fill="url(#w)" filter="url(#bn)"/>
   <path transform="matrix(1.0896 0 0 1.0896 37.816 -14.711)" d="m-414.04 164.25c0 2.1967-2.4703 3.9775-7.3867 3.9775s-8.902-1.7808-8.902-3.9775 3.9924-3.7187 8.902-3.9775c5.9897-0.31567 7.3867 1.7808 7.3867 3.9775z" fill="#150015" filter="url(#cu)"/>
   <path d="m-391.62 249.72-52.188 26.969c0.71993 0.63691 0.79781 1.9513 0.4375 3.0312-3.4327 10.289-12.26 12.034-8 16.25 16.396 16.226 23.052 40.807 19.25 58.75-2.1629 10.206 2.0826 17.173 6.4062 15.844 28.262-5.2111 64.226-65.721 33.219-120.16l0.875-0.6875z" fill="url(#v)" filter="url(#ck)"/>
   <path d="m-737.84 439.5c-8.9425 30.119-34.702 107.5-26.812 107.5 0.14834 0 0.32425-0.0436 0.5-0.0937 0.22693-0.82948 0.53687-1.851 0.96875-3.2188 7.2098-22.834 26.561-75.816 53.844-108.03-0.45163-33.617-11.326-84.301-18.233-58.526-5.4532 20.352-0.29951 28.798-10.267 62.369z" fill="url(#u)" filter="url(#co)"/>
   <path d="m-785.66 573.03c-45.608 0-97.339 44.656-99.188 92.094 0.12897-0.066 0.24185-0.11494 0.375-0.1875 64.209-39.647 118.84-58.996 197.56-12.844-0.71839-47.83-52.628-79.062-98.75-79.062z" fill="url(#t)" filter="url(#cr)"/>
   <path d="m-543.21 193.55c10.271-4.4099 56.239-16.908 8.3338 22.013-174.87 115.37-64.392 70.856-162.15 147.29-37.861 24.899-31.958 4.4341 6.3581-48.99 30.065-41.92 66.806-72.194 106.87-100.06 12.413-8.6334 24.804-13.479 40.587-20.256z" fill="url(#s)" filter="url(#cp)"/>
   <path d="m-439.41 173.25c-5.9018 1.429-20.942 8.7249-30.781 14.312-6.7808 3.8509-14.701 6.8909-19.344 13.156-2.6635 3.5944-19.421 20.091-3.9688 12.812 24.335-9.3938 39.677-23.081 54.094-40.281z" fill="url(#r)" filter="url(#cg)"/>
   <path d="m-363.22 114.75c0.25713 1.5963 2.1641 12.99 5.0625 18.281 4.4618 8.1456 14.833 11.882 18.594 20.406 3.0038 6.8085 2.0778 14.834 2.2812 22.375 3.9971 0.52116 7.9279 1.3608 11.75 2.5938 6.7302 2.1711 12.972 5.7479 19.094 9.5625 4.0561-27.089 5.386-53.509-41.406-68.469-5.1486-1.7432-10.283-3.3058-15.375-4.75zm57.688 73.781c1.2505 0.78495 2.5065 1.5857 3.75 2.375 0.0132-0.0936 0.0181-0.18763 0.0312-0.28125-1.1889-0.70112-2.4586-1.4029-3.7812-2.0938z" fill="url(#j)"/>
   <path d="m-345.93 160.42c0 13.193-6.342 2.1331-24.652-1.7428-17.446-3.6929-33.978 4.2533-33.978-8.9399s19.687-24.436 37.336-17.36c15.544 6.2318 21.295 14.85 21.295 28.043z" fill="url(#q)" filter="url(#ce)"/>
   <path d="m-363.91 149.73c-0.72422 4.7119-8.967 3.0253-13.59 2.8847-6.3327-0.19266-19.037-0.88375-18.358-5.0765 0.5555-3.4318 13.969-5.4192 21.011-4.2294 4.1396 0.69946 11.594 2.1474 10.937 6.4212z" fill="url(#p)" filter="url(#bw)"/>
   <path d="m-599.49 190.81c7.5433-5.2889 42.618-25.537 10.767 7.8098-66.808 45.9-149.47 166.59-108.72 95.076 16.814-29.201 41.166-54.976 68.654-80.648 8.5169-7.9542 17.703-14.11 29.295-22.238z" fill="url(#o)" filter="url(#ct)"/>
   <path d="m-441.25 103.53c-53.612-0.18611-104.8 14.984-155.59 39.594 27.697-9.5757 125.61-40.457 174.11-14.808 11.707 6.1906 49.781-14.158 34.576-19.567-17.997-3.4889-35.675-5.1583-53.094-5.2188z" fill="url(#n)" filter="url(#cd)"/>
   <path transform="matrix(.42908 0 0 .32307 -176.83 133.77)" d="m-309.11 203.58c0 2.371-3.0528 4.2932-6.8185 4.2932s-6.8185-1.9221-6.8185-4.2932 3.0528-4.2932 6.8185-4.2932 6.8185 1.9221 6.8185 4.2932z" fill="#fff" filter="url(#g)" opacity=".7716"/>
   <path transform="matrix(.4272 0 0 .23349 -208.49 133.57)" d="m-309.11 203.58c0 2.371-3.0528 4.2932-6.8185 4.2932s-6.8185-1.9221-6.8185-4.2932 3.0528-4.2932 6.8185-4.2932 6.8185 1.9221 6.8185 4.2932z" fill="#fff" filter="url(#g)" opacity=".7716"/>
   <path d="m-504.89 222.64c7.2606-1.9022 32.143-5.3077 16.07 15.772-51.437 47.394-82.746 72.838-126.2 89.223-27.594 12.696-21.7-0.1889 8.9343-31.599 24.038-24.646 54.95-46.114 81.438-60.394 5.7782-3.1151 8.6018-10.08 19.759-13.003z" fill="url(#av)" filter="url(#be)"/>
   <path transform="matrix(1 0 0 .90363 0 18.559)" d="m-358.66 192.59c-0.6213 1.4359 0.71371 4.1752-0.96875 5.6875-15.827 14.226-2.469 22.955 29.564 22.955 14.186 0 32.464-3.2106 38.186-11.893-1.1795-0.88391-2.59-1.8789-4.5938-1.8438-5.2977-0.7186-6.9778-0.93761-11 1.5938-5.3648 3.3763-6.6424 5.5214-24.156-3.1562-8.7606-4.07-18.019-8.8958-27.031-13.344z" fill="url(#m)" filter="url(#cc)"/>
   <path d="m-399.52 179.34c7.7082-0.94272 4.2432 3.6935 14.154 2.453 13.284-1.6628 31.598 9.2219 43.743 14.864 17.514 8.6777 22.462 14.542 27.827 11.165 4.0222-2.5314 7.2155-2.3061 12.513-1.5875 3.4945-0.0613 10.09 4.3635 11.738 4.3809 5.5975 0.0591-0.36542-9.5558-7.0345-13.693-8.9201-5.5339-17.791-11.803-27.683-14.995-10.087-3.2541-21.013-3.8027-31.569-2.841-14.926 1.36-25.636-0.43975-38.179-0.86545l-5.5102 1.118" fill="#404055" filter="url(#cj)"/>
   <path d="m-400.78 175.8c15.46-1.8908 43.674 15.35 67.897 26.603 17.514 8.6777 18.776 6.5187 24.141 3.1424 4.0222-2.5314 5.7003-2.3061 10.998-1.5875 3.4945-0.0613 5.2917 3.1008 6.9398 3.1182 5.5975 0.0591-0.36542-9.5558-7.0345-13.693-8.9201-5.5339-17.791-11.803-27.683-14.995-10.087-3.2541-21.013-3.8027-31.569-2.841-14.926 1.36-25.636-0.43975-38.179-0.86545l-5.5102 1.118" fill="url(#l)" filter="url(#bv)"/>
   <path transform="matrix(.98529 -.17087 .17087 .98529 -31.632 -57.454)" d="m-315.86 156c0 8.3684-7.4623 15.152-16.668 15.152s-16.668-6.7839-16.668-15.152 7.4623-15.152 16.668-15.152 16.668 6.7839 16.668 15.152z" fill="url(#k)" filter="url(#cq)" opacity=".293"/>
  </g>
  <g transform="matrix(1.6302 0 0 1.6302 -702.09 -1008.5)" clip-path="url(#cw)">
   <path d="m115.51 833.48c-2.6632-0.44535-5.6416-1.3628-8.1566 0.42864-5.69 4.0528 3.3964 6.4182 6.3086 11.462 2.7859 4.8254 0.49393 12.774-2.3462 15.201-27.09 23.152-52.215 66.755-68.495 110.53-0.55829 1.5013-1.0244 3.3044-2.3936 4.095-1.2664 0.73116-3.4857 0.31927-5.5718 0.62347-25.044 3.6518-38.019 20.973-29.024 21.684 39.556-3.7012 64.071 27.303 64.627 16.819 3.1594-2.0903-10.416-19.032-18.185-32.382-0.65167-1.1198-1.716-2.0288-1.8192-3.2727-0.15419-1.8592 1.1594-3.45 1.8765-5.2726 7.2493-18.426 24.637-42.853 75.904-53.681 27.027-5.7084 42.21-5.4272 62.139-1.681 13.726 2.5802 40.353 16.978 40.353 16.978 3.9488 2.487 5.6998 3.8412 9.4132 6.4595 4.6317 3.2659 12.036 4.0581 12.709 0.83614 1.6033-7.6726-8.2326-13.551-7.9356-18.417 0.55008-9.0108-1.9029-13.117-7.5899-23.222-17.14-30.456-62.957-44.376-89.525-48.097-4.4765-0.62703-8.8562-5.2593-13.68-10.083-3.3257-3.3257-10.265-7.6171-18.61-9.0125z" fill="url(#au)" filter="url(#e)"/>
   <path d="m171.12 915.38c-0.60792 3.5552-2.553 7.926-8.0017 13.709-18.045 11.911 23.882 19.69 28.356-11.538-0.4506-0.10224-1.1938-0.0951-1.6207-0.17529-6.7466-1.2682-12.432-1.6196-18.734-1.9956z" fill="url(#at)" filter="url(#e)"/>
   <path transform="matrix(1.8827 0 0 1.8827 -648.46 -300.65)" d="m422.72 639.24c-15.951 0-44.415 14.109-41.268 20.629 5.7515-3.5055 21.043-10.223 30.955-12.317 14.355-3.032 22.415-2.896 33-0.90625 1.2898 0.24244 2.8038 0.69176 4.4062 1.25-6.3835-5.2852-16.148-8.6562-27.094-8.6562z" fill="url(#as)" filter="url(#ch)"/>
   <path transform="matrix(2.0076 0 0 1.8113 -706.6 -255)" d="m461.03 639.15c-0.57697 0.91436-2.864-1.5225-2.864-1.5225l-4.1821-3.5886c-11.402-9.7838-15.255-8.9244-15.306-10.153s0.65352-3.4167 12.241 6.0325c0 0 11.572 6.9168 10.111 9.2314z" fill="url(#ar)" filter="url(#bx)"/>
   <path d="m250.39 936.2c-1.5216 3.8439-21.808-13.389-26.298-19.061-3.0541-3.858-6.2117-6.3281-5.103-9.4318 1.4684-4.1106 14.683-3.945 12.694 0.71295-5.8122 13.609 19.829 24.948 18.707 27.78z" fill="url(#aq)" filter="url(#e)"/>
   <path transform="matrix(1.6164 -.04924 .04445 1.4593 -549.11 18.837)" d="m465.96 641.62c-2.2331-1.8242-4.6266-3.4163-7.0889-4.8329-3.9724-2.2854-12.335-5.8796-12.335-5.8796-1.6678-0.79498-13.611-3.5264-11.116-7.4771 0.63641-1.0077 19.847 2.2122 32.027 9.5614 0 0 7.103 10.983 3.5351 13.499-1.877 1.3238-3.2316-3.4079-5.0224-4.8708z" fill="url(#ap)" filter="url(#bz)"/>
   <path transform="matrix(1.8827 0 0 1.8827 -648.46 -300.65)" d="m441.7 642.61c-0.87528 1.516-8.5089-4.9215-10.772-6.2282s-4.5493-2.97-3.674-4.4861 14.207-0.26681 14.701 2.2996c1.2906 6.7108 0.62076 6.8986-0.25451 8.4146z" fill="url(#ao)" filter="url(#ci)"/>
   <path transform="matrix(1.8827 0 0 1.8827 -648.46 -300.65)" d="m470.13 639.2c-6.8541-11.785-38.398-25.218-39.852-22.763-0.38192 0.6449 13.948 5.3992 16.14 6.8672 7.1315 4.776 21.015 10.382 16.924 19.647-0.20162 0.45662-1.4323 0.4876-1.3869 1.0697 0.14444 1.8537 3.3885 1.5863 4.8912 2.6812 1.9296 1.4059 2.8156 4.8558 5.2021 4.9234 0.76167 0.0216 2.3358 0.65411 1.7466-1.4748-2.1673-7.8301-1.4454-7.1344-3.6652-10.951z" fill="url(#an)" filter="url(#bc)"/>
   <path transform="matrix(1.8827 0 0 1.8827 -647.74 -304.93)" d="m397.88 626.21c-8.4704 7.2578-17.35 24.819-17.35 24.819-3.403 6.7088 9.0112-8.3298 13.772-14.904 10.923-15.083 24.396-10.295 29.845-12.051 6.8398-0.8894 4.3186-5.1294 1.0058-4.9695-5.1518-1.2472-15.187-3.2502-27.273 7.1053z" fill="#555580" filter="url(#cm)"/>
   <path transform="matrix(1.7327 -.12688 .12638 1.7396 -677.06 -151.09)" d="m402.31 644.96c-2.1982 0.26895-16.154 6.5063-18.237 7.5601-9.5851 4.8491-16.012 18.741-16.151 23.469 0 1.3665 1.9388-0.6528 2.3912-1.9054 2.7268-6.9309 19.39-22.693 31.997-29.123z" fill="url(#az)" filter="url(#cn)"/>
   <path transform="matrix(1.8808 -.08511 .04219 .93234 -673.09 318.38)" d="m418.59 614.66s-2.8536 0.53709-4.2768 0.83383c-2.4534 0.51153-6.4969 4.5689-7.3468 1.6316-0.72985-2.5224 3.5019-3.2656 5.5516-4.0194 1.5579-0.57296 4.8644-0.28584 4.8644-0.28584 1.5032 0.49637 2.9221 1.037 1.2076 1.8398z" fill="#555580" filter="url(#bm)"/>
   <path d="m182.26 910.38-14.947-20.572c-14.401 1.6634-33.292 1.3844-42.239 1.1223-25.718 0.85701 44.235 26.018 57.186 19.449z" fill="url(#am)" filter="url(#e)"/>
   <path transform="matrix(1.8827 0 0 1.8827 -648.46 -300.65)" d="m468.31 655.02c-0.87528 1.516-8.5089-4.9215-10.772-6.2282s-4.5493-2.97-3.674-4.4861 14.207-0.26681 14.701 2.2996c1.2906 6.7108 0.62076 6.8986-0.25451 8.4146z" fill="url(#al)" filter="url(#ca)" opacity=".5488"/>
   <path transform="matrix(1.8827 0 0 1.8827 -648.46 -300.65)" d="m457.26 639.89c-1.0957 0.33658-2.2805 1.8696-1.8184 2.9185 1.3244 3.006 7.6265 4.3558 9.6888 1.799 0.3418-0.42377-0.25037-1.1174-0.63135-1.5064-1.8472-1.8857-4.7157-3.9863-7.239-3.2111z" fill="url(#ak)" filter="url(#bg)"/>
   <path transform="matrix(1.8827 0 0 1.8827 -648.46 -300.65)" d="m468.02 650.74c-2.0439 2.4422-6.356-1.6757-8.802-3.7151-2.6303-2.193-8.2127-6.3413-5.632-8.5924 1.6351-1.4263 2.8981 3.4601 4.9093 4.2746 1.3644 0.55254 3.1285-0.48994 4.4097 0.23476 0.60737 0.34354 0.78683 1.1527 1.1724 1.7342 1.3323 2.0094 5.49 4.215 3.9426 6.0639z" fill="url(#aj)" filter="url(#bq)"/>
   <path transform="matrix(1.882 -.05161 .04937 1.8003 -679.28 -226.65)" d="m441.97 642.74-7.939-10.926c-7.6492 0.8835-17.683 0.73533-22.435 0.59611-13.66 0.45519 23.495 13.819 30.374 10.33z" fill="url(#ai)" filter="url(#by)"/>
   <path transform="matrix(1.4846 0 0 1.4846 -465.28 -43.982)" d="m463.37 642.34c-0.4531 0.70356-1.9849 0.52398-3.4213-0.40111s-2.2336-2.2454-1.7805-2.9489 1.9849-0.52397 3.4213 0.40112 2.2336 2.2454 1.7805 2.9489z" fill="#6a8095" filter="url(#bu)"/>
   <path transform="matrix(1.8827 0 0 1.8827 -648.46 -300.65)" d="m467.95 647.67c0 1.2553-4.962-0.3788-6.4397-1.6415-1.2194-1.042 0.0661-2.9512 0.3788-4.1669 0.63135-2.4548 1.7606 1.0815 2.5254 1.7678 1.332 1.1953 3.5355 2.7853 3.5355 4.0406z" fill="url(#ah)" filter="url(#bd)"/>
   <path transform="matrix(1.4846 0 0 1.4846 -465.28 -43.982)" d="m462.86 643.45c-0.4531 0.70356-1.9849 0.52398-3.4213-0.40111s-2.2336-2.2454-1.7805-2.9489 1.9849-0.52397 3.4213 0.40112 2.2336 2.2454 1.7805 2.9489z" fill="#15152b" filter="url(#bt)"/>
   <path transform="matrix(-.47419 1.2053 1.752 .68928 -679.18 -80.579)" d="m472.16 658.01c-0.77997-0.19838-1.1858-1.2773-1.1858-1.2773l-1.1265-1.931c-3.0714-5.2648-5.9548-6.8426-5.4441-6.9236s1.7059 0.13512 6.3614 5.6093c0 0 3.3695 5.0248 1.3951 4.5226z" fill="url(#ag)" filter="url(#bo)"/>
   <path transform="matrix(1.617 0 0 1.6382 -526.42 -142.3)" d="m461.84 642.58c-0.28532 0.44303-1.2499 0.32995-2.1544-0.25258s-1.4065-1.4139-1.1212-1.857 1.2499-0.32994 2.1544 0.25259 1.4065 1.4139 1.1212 1.8569z" fill="#000015" filter="url(#bs)"/>
   <path transform="matrix(1.8827 0 0 1.8827 -648.46 -300.65)" d="m466.48 645.76c-0.77997-0.19838-1.1858-1.2773-1.1858-1.2773l-1.1265-1.931c-3.0714-5.2648-5.9548-6.8426-5.4441-6.9236s1.7059 0.13512 6.3614 5.6093c0 0 3.3695 5.0248 1.3951 4.5226z" fill="url(#af)" filter="url(#br)"/>
   <path transform="matrix(1.8827 0 0 1.8827 -648.46 -300.65)" d="m403.45 602.83c-0.6346-0.0383-0.56892 1.8321 0.0625 1.9062 9.4006 1.1036 11.886 5.0367 14.656 8.9375 0.36417 0.51272 2.0638-0.33985 1.6875-0.84375-5.1783-6.9347-7.7492-9.4772-16.406-10z" fill="url(#ae)" filter="url(#bk)"/>
   <path transform="matrix(1.1224 0 0 1.4147 -335.54 -11.781)" d="m403.84 605.31c1.8246-2.271 5.3483-2.3861 7.8703-0.25714s8.8532 8.1781 1.2627 7.9668c-0.21354 0.26587-4.5624 0.32832-4.8286 0.54145" fill="url(#ay)" filter="url(#bl)"/>
   <path transform="matrix(1.8827 0 0 1.8827 -648.46 -300.65)" d="m408.8 633.78c-4.0546 2.4269 27.092 11.714 33.219 8.5312l-1-1.25c-6.2185 2.0023-27.979-3.9622-32.219-7.2812z" fill="url(#ax)" filter="url(#bj)"/>
   <path transform="matrix(1.8827 0 0 1.8827 -648.46 -300.65)" d="m359.56 681.11c-0.2646-2e-3 -0.51528 8e-3 -0.78125 0.0312-4.5479 0.39217-12.893 4.2423-12.21 7.0893 8.4129-1.2507 12.904-2.5752 28.549 7.8705 0.0819-0.33316-3.3232-7.4297-6.0804-9.5938-3.15-2.4723-5.5087-5.3686-9.4777-5.3973z" fill="url(#aw)" filter="url(#bi)"/>
   <path transform="matrix(1.8827 0 0 1.8827 -648.46 -300.65)" d="m368.76 679.57c1.3069 0.71578 1.0582 2.0933 2.2404 4.037 0.55489 0.9123 2.1333 3.065 1.0629 3.8642-0.87338 0.65208-3.2674-1.7889-4.6655-3.336-1.0117-1.1194-1.2883-3.4055-0.26954-4.5184 0.36742-0.40138 1.1556-0.31015 1.6318-0.0468z" fill="url(#ad)" filter="url(#bh)" opacity=".99"/>
   <path transform="matrix(2.0165 -.00367 .00469 1.5771 -709.79 -98.379)" d="m475.57 660.56c-0.28682 0.31642-1.7737 0.23359-2.8547-0.4132-1.9357-1.1582-3.9388-3.6283-5.1535-5.322-1.881-2.6228-2.8649-3.7705-4.6198-5.5346-1.8941-1.9041-4.329-5.1596-4.329-5.1596s1.4023 3.3156 2.5575 4.4446c2.3571 2.3036 4.7524 4.3309 6.2199 6.7729 1.2249 2.0383 3.8346 4.7342 5.7586 5.6581 1.3419 0.64438 2.3058-0.0385 2.421-0.44623z" fill="url(#ac)" filter="url(#bb)"/>
   <path d="m222.57 913.52 10.714 9.4643 8.9286 1.7857-10-4.6429-9.6429-6.6071" fill="#15152b" filter="url(#ba)"/>
  </g>
 </g>
</svg>
