<?xml version="1.0" encoding="UTF-8"?>
<svg width="408.15" height="382.09" enable-background="new 0 192.87 1016.143 239.87" viewBox="0 192.87 408.14917 382.09306" xmlns="http://www.w3.org/2000/svg">
 <g transform="matrix(1.4666 0 0 1.6743 -360.97 -184.04)">
  <path d="m390.86 359.68" fill="#a07024" stroke="#e8c07a" stroke-width=".63815"/>
  <path d="m319.03 453.21s59.584-40.931 37.561-66.695c0 0-8.846-7.146-14.991-24.368 0 0-6.975-12.058-12.804-16.699-4.245-3.384-6.742-7.572-6.385-6.811s-10.489 3.686-17.582-3.493-15.194-10.099-17.704-15.445-0.052-5.013-0.052-5.013l2.453-0.048s-0.303 4.633 9.232 10.221l10.277 9.812s-6.396-7.58-2.008-24.633c0 0-3.728-21.127 8.259-15.589l0.381 2.688s-5.646-2.968-6.644 2.451c0 0 0.054 5.011 0.073 6.937s-3.287 21.657 3.761 24.211c7.04 2.556 15.463 2.771 21.885 12.662s4.294 8.009 6.418 9.89c2.124 1.889 1.055 0.365 2.124 1.889s3.565 5.324 3.565 5.324 20.526-17.385 3.263-23.973c0 0-9.229-10.22-4.417-19.957s7.908-15.583 3.667-18.58l-4.239-2.995 4.92 1.053s6.706 3.72-0.529 16.589c0 0-6.166 14.776 3.382 21.521 9.543 6.743 6.428 11.048 6.428 11.048l7.218-14.799s5.16-10.129 1.521-22.391 5.013-24.392 5.013-24.392-5.505 10.522-3.274 22.812 5.743 12.606-2.78 36.684-1.382 35.885-1.382 35.885 15.814-31.555 23.011-14.352c0 0 14.267 22.455 6.943-7.083 0 0 0.917-13.511 0.547-15.044-0.366-1.536-12.116-17.874-2.428-31.564l9.682-13.692s-18.349 24.276-6.978 37.926l1.413 1.124s7.63-9.022 15.646-14.581c8.012-5.564 6.409-24.809 6.409-24.809s7.592 21.822-9.131 33.345l-1.388 1.57s-12.889 9.13-8.447 31.398c0 0-0.595 10.424 10.52-0.599 11.114-11.024 16.245-24.237 16.245-24.237s9.989-17.938 14.159-21.876c4.173-3.946 5.449-15.924 2.266-18.554-3.187-2.634-10.284-10.585-6.839-16.823l3.44-6.24s-6.929 8.624-0.184 16.197 12.012 7.852 4.797 22.647c-7.22 14.799-11.704 22.216-11.704 22.216s23.117-4.33 24.112-9.749c0.999-5.415 1.933-17.003 1.933-17.003s2.695-10.849 6.877-13.634c4.183-2.784 8.46 3.684 6.74 7.188s-5.216 4.732-5.216 4.732 8.288-12.892-1.829-7.287c0 0-5.512 9.751-4.69 21.301s-7.576 14.034-15.971 16.52c-8.398 2.481-19.818 17.755-19.818 17.755s-17.364 17.704-23.991 22.081c-6.619 4.373-20.508-15.001-27.73-0.974 0 0 5.736 11.832-1.717 37.428-7.457 25.6-9.179 28.718-6.625 38.306l-46.664 0.571z" fill="#7c4d27"/>
  <path d="m331.66 453.33s47.588-47.236 34.079-64.31-8.762-32.59-8.762-32.59 2.339 22.313 8.723 29.12c6.386 6.809 7.864 13.721-3.042 45.171 0 0-4.434 12.428-2.934 21.267l-28.064 1.342z" fill="#8f6746"/>
  <path d="m371.33 314.48c1.531 1.913 13.019 10.109 9.829-4.32s5.089-13.667 5.089-13.667l3.461-0.734s-11.471-2.042-11.13 7.394 4.189 17.296-8.521 7.4l1.272 3.927z" fill="#8f6746"/>
  <path d="m268.71 289.2s9.942 8.189 12.077 3.347 1.065-5.32 2.129-4.841l1.063 0.479s-7.442-10.272-15.269 1.015z" fill="#c2d468" stroke="#059036" stroke-width=".63815"/>
  <path d="m283.94 288.1s-6.575-4.479-15.268 1.015" fill="#c2d468" stroke="#059036" stroke-width=".63815"/>
  <path d="m278.16 266.29s-3.458 12.542 1.811 12.409c5.267-0.136 5.274-1.307 5.267-0.136l-0.011 1.172s6.364-11.158-7.067-13.445z" fill="#84b719" stroke="#059036" stroke-width=".63815"/>
  <path d="m285.29 279.66s1.434-7.892-7.067-13.445" fill="none" stroke="#059036" stroke-width=".63815"/>
  <path d="m271.02 277.42s3.651 12.388 8.099 9.501c4.442-2.884 3.833-3.877 4.442-2.884l0.609 0.992s-0.429-12.752-13.15-7.609z" fill="#5aac32" stroke="#059036" stroke-width=".63815"/>
  <path d="m284.19 284.94s-2.933-7.403-13.149-7.608" fill="#5aac32" stroke="#059036" stroke-width=".63815"/>
  <path d="m292.49 264.25s-3.458 12.539 1.812 12.407c5.265-0.134 5.274-1.307 5.265-0.134l-0.01 1.171s6.363-11.159-7.067-13.444z" fill="#84b719" stroke="#059036" stroke-width=".63815"/>
  <path d="m299.62 277.62s1.435-7.892-7.067-13.446" fill="none" stroke="#059036" stroke-width=".63815"/>
  <path d="m285.35 275.38s3.65 12.387 8.098 9.5c4.443-2.885 3.833-3.877 4.443-2.885l0.609 0.993s-0.431-12.752-13.15-7.608z" fill="#5aac32" stroke="#059036" stroke-width=".63815"/>
  <path d="m298.51 282.9s-2.932-7.404-13.151-7.607" fill="#5aac32" stroke="#059036" stroke-width=".63815"/>
  <path d="m275.42 305.4s9.944 8.189 12.076 3.346 1.066-5.32 2.131-4.841l1.063 0.48s-7.444-10.273-15.27 1.015z" fill="#c2d468" stroke="#059036" stroke-width=".63815"/>
  <path d="m290.65 304.3s-6.574-4.479-15.27 1.016" fill="#c2d468" stroke="#059036" stroke-width=".63815"/>
  <path d="m284.88 282.5s-3.458 12.54 1.812 12.407c5.265-0.134 5.274-1.305 5.265-0.134l-9e-3 1.172s6.361-11.158-7.068-13.445z" fill="#84b719" stroke="#059036" stroke-width=".63815"/>
  <path d="m292 295.87s1.435-7.892-7.067-13.445" fill="none" stroke="#059036" stroke-width=".63815"/>
  <path d="m294.02 288.23s-8.409 9.988-3.605 12.087 5.302 1.03 4.799 2.096l-0.505 1.065s10.444-7.501-0.689-15.248z" fill="#09922f" stroke="#89ba1b" stroke-width=".63815"/>
  <path d="m294.8 303.43s4.623-6.596-0.689-15.248" fill="#09922f" stroke="#89ba1b" stroke-width=".63815"/>
  <path d="m277.74 293.63s3.65 12.387 8.097 9.5c4.442-2.884 3.834-3.877 4.442-2.884l0.611 0.992s-0.431-12.753-13.15-7.608z" fill="#5aac32" stroke="#059036" stroke-width=".63815"/>
  <path d="m290.9 301.14s-2.933-7.402-13.151-7.608" fill="#5aac32" stroke="#059036" stroke-width=".63815"/>
  <path d="m292.89 295.27s9.941 8.189 12.075 3.345 1.066-5.319 2.128-4.84l1.063 0.481s-7.44-10.274-15.266 1.014z" fill="#c2d468" stroke="#059036" stroke-width=".63815"/>
  <path d="m308.12 294.17s-6.573-4.479-15.267 1.016" fill="#c2d468" stroke="#059036" stroke-width=".63815"/>
  <path d="m302.34 272.36s-3.458 12.54 1.812 12.408c5.264-0.134 5.273-1.306 5.264-0.134l-9e-3 1.172s6.364-11.159-7.067-13.446z" fill="#84b719" stroke="#059036" stroke-width=".63815"/>
  <path d="m309.47 285.73s1.433-7.892-7.067-13.445" fill="none" stroke="#059036" stroke-width=".63815"/>
  <path d="m311.49 278.09s-8.408 9.986-3.605 12.085 5.302 1.031 4.799 2.098l-0.504 1.064s10.444-7.501-0.69-15.247z" fill="#09922f" stroke="#89ba1b" stroke-width=".63815"/>
  <path d="m312.27 293.3s4.625-6.597-0.689-15.248" fill="#09922f" stroke="#89ba1b" stroke-width=".63815"/>
  <path d="m295.21 283.49s3.651 12.387 8.097 9.501 3.833-3.878 4.445-2.886l0.608 0.993s-0.43-12.751-13.15-7.608z" fill="#5aac32" stroke="#059036" stroke-width=".63815"/>
  <path d="m308.37 291s-2.933-7.403-13.15-7.607" fill="#5aac32" stroke="#059036" stroke-width=".63815"/>
  <path d="m288.12 303.91s9.943 8.188 12.076 3.345 1.067-5.32 2.13-4.841l1.063 0.482s-7.443-10.275-15.269 1.014z" fill="#c2d468" stroke="#059036" stroke-width=".63815"/>
  <path d="m303.35 302.81s-6.574-4.479-15.269 1.014" fill="#c2d468" stroke="#059036" stroke-width=".63815"/>
  <path d="m299.17 301.65s-8.409 9.986-3.605 12.085 5.303 1.031 4.799 2.097l-0.503 1.065s10.442-7.502-0.691-15.247z" fill="#09922f" stroke="#89ba1b" stroke-width=".63815"/>
  <path d="m299.95 316.86s4.625-6.597-0.689-15.248" fill="#09922f" stroke="#89ba1b" stroke-width=".63815"/>
  <path d="m282.89 307.05s3.65 12.387 8.098 9.501c4.443-2.885 3.833-3.877 4.443-2.885l0.609 0.992s-0.431-12.752-13.15-7.608z" fill="#5aac32" stroke="#059036" stroke-width=".63815"/>
  <path d="m296.05 314.56s-2.933-7.404-13.15-7.609" fill="#5aac32" stroke="#059036" stroke-width=".63815"/>
  <path d="m306.93 303.5s9.943 8.188 12.076 3.345 1.065-5.318 2.13-4.84l1.063 0.481s-7.442-10.274-15.269 1.014z" fill="#c2d468" stroke="#059036" stroke-width=".63815"/>
  <path d="m322.15 302.4s-6.574-4.479-15.268 1.014" fill="#c2d468" stroke="#059036" stroke-width=".63815"/>
  <path d="m316.38 280.59s-3.458 12.539 1.812 12.408c5.267-0.135 5.275-1.307 5.267-0.135l-0.01 1.172s6.361-11.158-7.069-13.445z" fill="#84b719" stroke="#059036" stroke-width=".63815"/>
  <path d="m323.51 293.96s1.435-7.892-7.067-13.445" fill="none" stroke="#059036" stroke-width=".63815"/>
  <path d="m325.53 286.32s-8.409 9.986-3.607 12.086 5.304 1.029 4.8 2.097l-0.503 1.065s10.443-7.502-0.69-15.248z" fill="#09922f" stroke="#89ba1b" stroke-width=".63815"/>
  <path d="m326.3 301.53s4.624-6.598-0.688-15.249" fill="#09922f" stroke="#89ba1b" stroke-width=".63815"/>
  <path d="m307.44 317.84s9.943 8.188 12.076 3.345 1.067-5.319 2.13-4.839l1.063 0.48s-7.442-10.275-15.269 1.014z" fill="#c2d468" stroke="#059036" stroke-width=".63815"/>
  <path d="m322.66 316.74s-6.573-4.479-15.268 1.014" fill="#c2d468" stroke="#059036" stroke-width=".63815"/>
  <path d="m316.89 294.94s-3.458 12.539 1.813 12.406c5.265-0.134 5.274-1.306 5.265-0.134l-0.01 1.173s6.363-11.159-7.068-13.445z" fill="#84b719" stroke="#059036" stroke-width=".63815"/>
  <path d="m324.02 308.31s1.435-7.893-7.066-13.446" fill="none" stroke="#059036" stroke-width=".63815"/>
  <path d="m323.39 300.92s-8.411 9.986-3.608 12.085 5.303 1.032 4.8 2.098l-0.504 1.065s10.443-7.503-0.688-15.248z" fill="#09922f" stroke="#89ba1b" stroke-width=".63815"/>
  <path d="m324.17 316.13s4.624-6.597-0.689-15.247" fill="#09922f" stroke="#89ba1b" stroke-width=".63815"/>
  <path d="m297.12 313.56s9.944 8.19 12.077 3.347 1.064-5.319 2.129-4.84l1.063 0.48s-7.442-10.274-15.269 1.013z" fill="#c2d468" stroke="#059036" stroke-width=".63815"/>
  <path d="m312.34 312.46s-6.574-4.478-15.269 1.014" fill="#c2d468" stroke="#059036" stroke-width=".63815"/>
  <path d="m306.57 290.65s-3.458 12.539 1.812 12.408c5.266-0.136 5.274-1.308 5.266-0.136l-0.01 1.173s6.362-11.158-7.068-13.445z" fill="#84b719" stroke="#059036" stroke-width=".63815"/>
  <path d="m313.7 304.02s1.434-7.892-7.067-13.446" fill="none" stroke="#059036" stroke-width=".63815"/>
  <path d="m292.95 323.66s9.941 8.19 12.075 3.346 1.067-5.319 2.13-4.838l1.064 0.479s-7.441-10.274-15.269 1.013z" fill="#c2d468" stroke="#059036" stroke-width=".63815"/>
  <path d="m308.18 322.56s-6.574-4.479-15.268 1.015" fill="#c2d468" stroke="#059036" stroke-width=".63815"/>
  <path d="m302.41 300.75s-3.458 12.538 1.812 12.407c5.264-0.136 5.273-1.307 5.264-0.136l-9e-3 1.174s6.363-11.16-7.067-13.445z" fill="#84b719" stroke="#059036" stroke-width=".63815"/>
  <path d="m309.54 314.12s1.434-7.891-7.066-13.445" fill="none" stroke="#059036" stroke-width=".63815"/>
  <path d="m311.56 306.48s-8.409 9.987-3.607 12.086 5.304 1.029 4.8 2.097l-0.504 1.064s10.443-7.501-0.689-15.247z" fill="#09922f" stroke="#89ba1b" stroke-width=".63815"/>
  <path d="m312.33 321.69s4.624-6.596-0.689-15.248" fill="#09922f" stroke="#89ba1b" stroke-width=".63815"/>
  <path d="m295.27 311.88s3.651 12.387 8.099 9.501c4.442-2.885 3.833-3.877 4.442-2.885l0.61 0.993s-0.431-12.753-13.151-7.609z" fill="#5aac32" stroke="#059036" stroke-width=".63815"/>
  <path d="m308.43 319.39s-2.933-7.402-13.151-7.607" fill="#5aac32" stroke="#059036" stroke-width=".63815"/>
  <path d="m306.1 328.32s9.943 8.188 12.077 3.346 1.066-5.319 2.13-4.841l1.063 0.481s-7.444-10.274-15.27 1.014z" fill="#c2d468" stroke="#059036" stroke-width=".63815"/>
  <path d="m321.33 327.22s-6.573-4.478-15.268 1.015" fill="#c2d468" stroke="#059036" stroke-width=".63815"/>
  <path d="m324.71 311.14s-8.411 9.987-3.608 12.087 5.303 1.029 4.8 2.096l-0.503 1.066s10.444-7.502-0.689-15.249z" fill="#09922f" stroke="#89ba1b" stroke-width=".63815"/>
  <path d="m325.48 326.35s4.623-6.598-0.69-15.248" fill="#09922f" stroke="#89ba1b" stroke-width=".63815"/>
  <path d="m308.42 316.54s3.65 12.387 8.099 9.501c4.442-2.885 3.832-3.877 4.442-2.885l0.609 0.992s-0.43-12.751-13.15-7.608z" fill="#5aac32" stroke="#059036" stroke-width=".63815"/>
  <path d="m321.58 324.06s-2.933-7.403-13.151-7.608" fill="#5aac32" stroke="#059036" stroke-width=".63815"/>
  <path d="m334.44 244.7s4.123 12.203 8.491 9.215c4.364-2.987 3.713-3.956 4.364-2.987l0.649 0.969s-0.899-12.654-13.504-7.197z" fill="#c2d468" stroke="#059036" stroke-width=".63815"/>
  <path d="m347.95 251.8s-3.219-7.272-13.503-7.196" fill="#c2d468" stroke="#059036" stroke-width=".63815"/>
  <path d="m354.56 230.23s-9.557 8.826-5.011 11.495c4.543 2.664 5.169 1.674 4.543 2.664l-0.626 0.99s11.295-6.118 1.094-15.149z" fill="#84b719" stroke="#059036" stroke-width=".63815"/>
  <path d="m353.56 245.35s5.383-5.945 1.095-15.15" fill="none" stroke="#059036" stroke-width=".63815"/>
  <path d="m342.62 235.92s-3.438 12.446 1.863 12.344c5.296-0.105 5.302-1.271 5.296-0.105l-6e-3 1.165s6.366-11.06-7.153-13.404z" fill="#5aac32" stroke="#059036" stroke-width=".63815"/>
  <path d="m349.84 249.24s1.417-7.836-7.152-13.404" fill="#5aac32" stroke="#059036" stroke-width=".63815"/>
  <path d="m367.8 236.06s-9.556 8.826-5.01 11.494c4.543 2.665 5.17 1.675 4.543 2.665l-0.628 0.99s11.296-6.117 1.095-15.149z" fill="#84b719" stroke="#059036" stroke-width=".63815"/>
  <path d="m366.8 251.18s5.384-5.944 1.095-15.15" fill="none" stroke="#059036" stroke-width=".63815"/>
  <path d="m355.87 241.74s-3.438 12.447 1.862 12.344 5.303-1.27 5.297-0.104l-5e-3 1.166s6.363-11.06-7.154-13.406z" fill="#5aac32" stroke="#059036" stroke-width=".63815"/>
  <path d="m363.08 255.07s1.417-7.836-7.155-13.403" fill="#5aac32" stroke="#059036" stroke-width=".63815"/>
  <path d="m331.59 262s4.125 12.203 8.491 9.215 3.715-3.956 4.365-2.987l0.65 0.969s-0.9-12.654-13.506-7.197z" fill="#c2d468" stroke="#059036" stroke-width=".63815"/>
  <path d="m345.1 269.1s-3.22-7.272-13.504-7.195" fill="#c2d468" stroke="#059036" stroke-width=".63815"/>
  <path d="m351.71 247.53s-9.557 8.827-5.011 11.496c4.542 2.664 5.168 1.674 4.542 2.664l-0.627 0.991s11.295-6.119 1.096-15.151z" fill="#84b719" stroke="#059036" stroke-width=".63815"/>
  <path d="m350.71 262.65s5.383-5.946 1.094-15.15" fill="none" stroke="#059036" stroke-width=".63815"/>
  <path d="m356.45 257.23s-12.414 4.044-9.443 8.363c2.971 4.313 3.96 3.675 2.971 4.313l-0.989 0.64s12.829-0.861 7.461-13.316z" fill="#09922f" stroke="#89ba1b" stroke-width=".63815"/>
  <path d="m349.09 270.56s7.409-3.162 7.461-13.315" fill="#09922f" stroke="#89ba1b" stroke-width=".63815"/>
  <path d="m339.77 253.22s-3.438 12.447 1.863 12.344c5.295-0.106 5.303-1.271 5.295-0.106l-6e-3 1.165s6.366-11.059-7.152-13.403z" fill="#5aac32" stroke="#059036" stroke-width=".63815"/>
  <path d="m346.99 266.55s1.417-7.836-7.153-13.404" fill="#5aac32" stroke="#059036" stroke-width=".63815"/>
  <path d="m351.78 262.61s4.124 12.202 8.492 9.214c4.363-2.987 3.714-3.955 4.363-2.987l0.648 0.97s-0.896-12.655-13.503-7.197z" fill="#c2d468" stroke="#059036" stroke-width=".63815"/>
  <path d="m365.29 269.71s-3.221-7.272-13.504-7.196" fill="#c2d468" stroke="#059036" stroke-width=".63815"/>
  <path d="m371.9 248.14s-9.555 8.824-5.01 11.494 5.169 1.675 4.543 2.665l-0.626 0.989s11.293-6.117 1.093-15.148z" fill="#84b719" stroke="#059036" stroke-width=".63815"/>
  <path d="m370.9 263.26s5.383-5.945 1.095-15.15" fill="none" stroke="#059036" stroke-width=".63815"/>
  <path d="m376.64 257.84s-12.414 4.044-9.444 8.361c2.971 4.314 3.959 3.676 2.971 4.314l-0.989 0.639s12.829-0.859 7.462-13.314z" fill="#09922f" stroke="#89ba1b" stroke-width=".63815"/>
  <path d="m369.28 271.16s7.409-3.162 7.463-13.315" fill="#09922f" stroke="#89ba1b" stroke-width=".63815"/>
  <path d="m359.96 253.83s-3.438 12.446 1.864 12.345c5.296-0.105 5.301-1.271 5.296-0.105l-6e-3 1.164s6.365-11.059-7.154-13.404z" fill="#5aac32" stroke="#059036" stroke-width=".63815"/>
  <path d="m367.18 267.16s1.417-7.835-7.154-13.403" fill="#5aac32" stroke="#059036" stroke-width=".63815"/>
  <path d="m343.17 267.44s4.123 12.202 8.492 9.215c4.363-2.986 3.713-3.955 4.363-2.986l0.65 0.969s-0.9-12.655-13.505-7.198z" fill="#c2d468" stroke="#059036" stroke-width=".63815"/>
  <path d="m356.68 274.54s-3.219-7.273-13.502-7.197" fill="#c2d468" stroke="#059036" stroke-width=".63815"/>
  <path d="m353.74 271.35s-12.412 4.044-9.442 8.362c2.971 4.314 3.96 3.675 2.971 4.314l-0.991 0.639s12.83-0.859 7.462-13.315z" fill="#09922f" stroke="#89ba1b" stroke-width=".63815"/>
  <path d="m346.38 284.68s7.411-3.162 7.464-13.315" fill="#09922f" stroke="#89ba1b" stroke-width=".63815"/>
  <path d="m337.06 267.34s-3.438 12.447 1.863 12.345 5.302-1.27 5.297-0.104l-6e-3 1.164s6.363-11.06-7.154-13.405z" fill="#5aac32" stroke="#059036" stroke-width=".63815"/>
  <path d="m344.28 280.67s1.416-7.836-7.154-13.403" fill="#5aac32" stroke="#059036" stroke-width=".63815"/>
  <path d="m359.35 277.01s4.124 12.203 8.493 9.215c4.363-2.986 3.713-3.955 4.363-2.986l0.648 0.969s-0.897-12.654-13.504-7.198z" fill="#c2d468" stroke="#059036" stroke-width=".63815"/>
  <path d="m372.87 284.11s-3.219-7.273-13.503-7.196" fill="#c2d468" stroke="#059036" stroke-width=".63815"/>
  <path d="m379.48 262.54s-9.554 8.827-5.01 11.495 5.17 1.675 4.543 2.665l-0.627 0.99s11.297-6.119 1.094-15.15z" fill="#84b719" stroke="#059036" stroke-width=".63815"/>
  <path d="m378.47 277.66s5.383-5.946 1.094-15.15" fill="none" stroke="#059036" stroke-width=".63815"/>
  <path d="m384.22 272.24s-12.412 4.044-9.442 8.361c2.971 4.314 3.963 3.675 2.971 4.314l-0.992 0.64s12.831-0.859 7.463-13.315z" fill="#09922f" stroke="#89ba1b" stroke-width=".63815"/>
  <path d="m376.85 285.56s7.408-3.161 7.462-13.316" fill="#09922f" stroke="#89ba1b" stroke-width=".63815"/>
  <path d="m352.22 289.47s4.123 12.202 8.492 9.214c4.363-2.986 3.712-3.956 4.363-2.986l0.648 0.97s-0.898-12.657-13.503-7.198z" fill="#c2d468" stroke="#059036" stroke-width=".63815"/>
  <path d="m365.73 296.57s-3.221-7.273-13.504-7.196" fill="#c2d468" stroke="#059036" stroke-width=".63815"/>
  <path d="m372.34 275s-9.556 8.826-5.01 11.495c4.543 2.665 5.169 1.675 4.543 2.665l-0.626 0.989s11.293-6.118 1.093-15.149z" fill="#84b719" stroke="#059036" stroke-width=".63815"/>
  <path d="m371.33 290.12s5.383-5.946 1.094-15.151" fill="none" stroke="#059036" stroke-width=".63815"/>
  <path d="m374.7 283.51s-12.414 4.044-9.443 8.362c2.97 4.313 3.959 3.674 2.97 4.313l-0.991 0.639s12.832-0.859 7.464-13.314z" fill="#09922f" stroke="#89ba1b" stroke-width=".63815"/>
  <path d="m367.33 296.84s7.409-3.163 7.461-13.316" fill="#09922f" stroke="#89ba1b" stroke-width=".63815"/>
  <path d="m345.71 280.38s4.124 12.203 8.491 9.215 3.715-3.956 4.365-2.988l0.649 0.97s-0.9-12.654-13.505-7.197z" fill="#c2d468" stroke="#059036" stroke-width=".63815"/>
  <path d="m359.23 287.48s-3.22-7.272-13.503-7.196" fill="#c2d468" stroke="#059036" stroke-width=".63815"/>
  <path d="m365.84 265.91s-9.556 8.826-5.01 11.495c4.543 2.665 5.17 1.674 4.543 2.665l-0.628 0.989s11.294-6.118 1.095-15.149z" fill="#84b719" stroke="#059036" stroke-width=".63815"/>
  <path d="m364.83 281.03s5.383-5.945 1.095-15.15" fill="none" stroke="#059036" stroke-width=".63815"/>
  <path d="m336.85 286.76s4.124 12.203 8.491 9.215c4.363-2.985 3.713-3.956 4.363-2.985l0.65 0.969s-0.898-12.655-13.504-7.199z" fill="#c2d468" stroke="#059036" stroke-width=".63815"/>
  <path d="m350.36 293.86s-3.22-7.275-13.504-7.197" fill="#c2d468" stroke="#059036" stroke-width=".63815"/>
  <path d="m356.97 272.29s-9.554 8.826-5.009 11.494c4.543 2.664 5.169 1.674 4.543 2.664l-0.628 0.992s11.295-6.121 1.094-15.15z" fill="#84b719" stroke="#059036" stroke-width=".63815"/>
  <path d="m355.97 287.41s5.383-5.946 1.095-15.151" fill="none" stroke="#059036" stroke-width=".63815"/>
  <path d="m361.71 281.99s-12.413 4.043-9.443 8.36c2.971 4.314 3.962 3.674 2.971 4.314l-0.992 0.639s12.831-0.86 7.464-13.313z" fill="#09922f" stroke="#89ba1b" stroke-width=".63815"/>
  <path d="m354.34 295.31s7.408-3.162 7.462-13.315" fill="#09922f" stroke="#89ba1b" stroke-width=".63815"/>
  <path d="m345.03 277.98s-3.437 12.447 1.864 12.344c5.295-0.105 5.302-1.271 5.295-0.105l-5e-3 1.165s6.365-11.059-7.154-13.404z" fill="#5aac32" stroke="#059036" stroke-width=".63815"/>
  <path d="m352.24 291.31s1.416-7.836-7.154-13.402" fill="#5aac32" stroke="#059036" stroke-width=".63815"/>
  <path d="m345.56 297.66s4.124 12.203 8.491 9.214 3.713-3.955 4.366-2.987l0.647 0.971s-0.897-12.656-13.504-7.198z" fill="#c2d468" stroke="#059036" stroke-width=".63815"/>
  <path d="m359.07 304.76s-3.221-7.272-13.505-7.195" fill="#c2d468" stroke="#059036" stroke-width=".63815"/>
  <path d="m370.42 292.89s-12.414 4.044-9.443 8.362c2.971 4.314 3.96 3.676 2.971 4.314l-0.989 0.64s12.829-0.859 7.461-13.316z" fill="#09922f" stroke="#89ba1b" stroke-width=".63815"/>
  <path d="m363.06 306.21s7.408-3.163 7.461-13.314" fill="#09922f" stroke="#89ba1b" stroke-width=".63815"/>
  <path d="m353.74 288.88s-3.437 12.447 1.863 12.344c5.296-0.105 5.301-1.271 5.296-0.105l-7e-3 1.165s6.366-11.06-7.152-13.404z" fill="#5aac32" stroke="#059036" stroke-width=".63815"/>
  <path d="m360.96 302.21s1.416-7.836-7.154-13.403" fill="#5aac32" stroke="#059036" stroke-width=".63815"/>
  <path d="m298.74 275.13s9.94 8.189 12.075 3.346 1.066-5.319 2.13-4.84l1.063 0.48s-7.442-10.273-15.268 1.014z" fill="#c2d468" stroke="#059036" stroke-width=".63815"/>
  <path d="m313.97 274.03s-6.573-4.479-15.267 1.015" fill="#c2d468" stroke="#059036" stroke-width=".63815"/>
  <path d="m308.63 251.2s-3.458 12.541 1.811 12.408 5.274-1.306 5.267-0.134l-0.011 1.172s6.363-11.159-7.067-13.446z" fill="#84b719" stroke="#059036" stroke-width=".63815"/>
  <path d="m315.33 265.59s1.434-7.893-7.067-13.446" fill="none" stroke="#059036" stroke-width=".63815"/>
  <path d="m301.06 263.35s3.65 12.386 8.099 9.5c4.442-2.884 3.833-3.877 4.442-2.884l0.61 0.992s-0.431-12.751-13.151-7.608z" fill="#5aac32" stroke="#059036" stroke-width=".63815"/>
  <path d="m314.22 270.86s-2.933-7.402-13.15-7.609" fill="#5aac32" stroke="#059036" stroke-width=".63815"/>
  <path d="m322.52 250.18s-3.458 12.539 1.813 12.406 5.275-1.306 5.266-0.134l-9e-3 1.172s6.361-11.158-7.07-13.444z" fill="#84b719" stroke="#059036" stroke-width=".63815"/>
  <path d="m329.65 263.55s1.435-7.892-7.067-13.445" fill="none" stroke="#059036" stroke-width=".63815"/>
  <path d="m315.38 261.31s3.649 12.388 8.097 9.501c4.443-2.884 3.834-3.877 4.443-2.884l0.609 0.992s-0.431-12.751-13.149-7.609z" fill="#5aac32" stroke="#059036" stroke-width=".63815"/>
  <path d="m328.55 268.82s-2.931-7.404-13.15-7.608" fill="#5aac32" stroke="#059036" stroke-width=".63815"/>
  <path d="m305.46 291.33s9.945 8.188 12.076 3.345 1.066-5.321 2.131-4.841l1.064 0.479s-7.443-10.272-15.271 1.017z" fill="#c2d468" stroke="#059036" stroke-width=".63815"/>
  <path d="m320.68 290.23s-6.575-4.478-15.268 1.016" fill="#c2d468" stroke="#059036" stroke-width=".63815"/>
  <path d="m314.91 268.42s-3.459 12.541 1.812 12.408c5.264-0.135 5.273-1.306 5.264-0.135l-0.01 1.173s6.364-11.159-7.066-13.446z" fill="#84b719" stroke="#059036" stroke-width=".63815"/>
  <path d="m322.04 281.8s1.435-7.891-7.067-13.444" fill="none" stroke="#059036" stroke-width=".63815"/>
  <path d="m324.06 274.16s-8.41 9.987-3.607 12.087 5.303 1.03 4.801 2.096l-0.505 1.065s10.444-7.501-0.689-15.248z" fill="#09922f" stroke="#89ba1b" stroke-width=".63815"/>
  <path d="m324.83 289.36s4.623-6.597-0.689-15.247" fill="#09922f" stroke="#89ba1b" stroke-width=".63815"/>
  <path d="m307.77 279.56s3.651 12.386 8.098 9.501c4.442-2.886 3.834-3.879 4.442-2.886l0.61 0.993s-0.43-12.752-13.15-7.608z" fill="#5aac32" stroke="#059036" stroke-width=".63815"/>
  <path d="m320.94 287.07s-2.932-7.404-13.149-7.609" fill="#5aac32" stroke="#059036" stroke-width=".63815"/>
  <path d="m322.92 281.19s9.942 8.188 12.075 3.346 1.067-5.32 2.129-4.841l1.063 0.48s-7.442-10.273-15.267 1.015z" fill="#c2d468" stroke="#059036" stroke-width=".63815"/>
  <path d="m338.15 280.1s-6.573-4.479-15.267 1.016" fill="#c2d468" stroke="#059036" stroke-width=".63815"/>
  <path d="m332.38 258.29s-3.458 12.54 1.812 12.407c5.265-0.133 5.274-1.305 5.265-0.133l-0.011 1.172s6.364-11.159-7.066-13.446z" fill="#84b719" stroke="#059036" stroke-width=".63815"/>
  <path d="m339.51 271.66s1.435-7.891-7.066-13.445" fill="none" stroke="#059036" stroke-width=".63815"/>
  <path d="m341.53 264.02s-8.409 9.986-3.606 12.086 5.303 1.03 4.8 2.097l-0.504 1.064s10.444-7.501-0.69-15.247z" fill="#09922f" stroke="#89ba1b" stroke-width=".63815"/>
  <path d="m342.3 279.22s4.625-6.597-0.69-15.25" fill="#09922f" stroke="#89ba1b" stroke-width=".63815"/>
  <path d="m325.24 269.42s3.651 12.387 8.099 9.501c4.443-2.885 3.833-3.878 4.443-2.885l0.609 0.992s-0.431-12.752-13.151-7.608z" fill="#5aac32" stroke="#059036" stroke-width=".63815"/>
  <path d="m338.4 276.93s-2.933-7.403-13.15-7.608" fill="#5aac32" stroke="#059036" stroke-width=".63815"/>
  <path d="m318.16 289.84s9.943 8.188 12.076 3.345 1.066-5.319 2.129-4.84l1.064 0.48s-7.442-10.274-15.269 1.015z" fill="#c2d468" stroke="#059036" stroke-width=".63815"/>
  <path d="m333.39 288.74s-6.574-4.478-15.27 1.015" fill="#c2d468" stroke="#059036" stroke-width=".63815"/>
  <path d="m329.21 287.58s-8.409 9.986-3.606 12.087 5.303 1.03 4.8 2.097l-0.503 1.065s10.442-7.503-0.691-15.249z" fill="#09922f" stroke="#89ba1b" stroke-width=".63815"/>
  <path d="m329.98 302.78s4.623-6.598-0.688-15.248" fill="#09922f" stroke="#89ba1b" stroke-width=".63815"/>
  <path d="m312.92 292.98s3.65 12.386 8.098 9.5c4.443-2.885 3.833-3.877 4.443-2.885l0.609 0.992s-0.43-12.75-13.15-7.607z" fill="#5aac32" stroke="#059036" stroke-width=".63815"/>
  <path d="m326.09 300.49s-2.932-7.403-13.15-7.608" fill="#5aac32" stroke="#059036" stroke-width=".63815"/>
  <path d="m336.96 289.42s9.943 8.189 12.076 3.346 1.066-5.319 2.129-4.84l1.063 0.481s-7.442-10.274-15.268 1.013z" fill="#c2d468" stroke="#059036" stroke-width=".63815"/>
  <path d="m352.19 288.32s-6.573-4.479-15.267 1.015" fill="#c2d468" stroke="#059036" stroke-width=".63815"/>
  <path d="m346.42 266.51s-3.458 12.541 1.811 12.409c5.266-0.135 5.275-1.307 5.266-0.135l-9e-3 1.172s6.363-11.157-7.068-13.446z" fill="#84b719" stroke="#059036" stroke-width=".63815"/>
  <path d="m353.54 279.89s1.435-7.892-7.067-13.446" fill="none" stroke="#059036" stroke-width=".63815"/>
  <path d="m355.56 272.25s-8.41 9.986-3.607 12.086 5.304 1.03 4.8 2.097l-0.503 1.066s10.442-7.503-0.69-15.249z" fill="#09922f" stroke="#89ba1b" stroke-width=".63815"/>
  <path d="m356.34 287.45s4.624-6.596-0.689-15.247" fill="#09922f" stroke="#89ba1b" stroke-width=".63815"/>
  <path d="m337.47 303.77s9.943 8.188 12.077 3.344 1.066-5.319 2.13-4.839l1.062 0.48s-7.442-10.274-15.269 1.015z" fill="#c2d468" stroke="#059036" stroke-width=".63815"/>
  <path d="m352.7 302.67s-6.574-4.478-15.269 1.015" fill="#c2d468" stroke="#059036" stroke-width=".63815"/>
  <path d="m346.93 280.86s-3.459 12.54 1.812 12.407c5.265-0.134 5.275-1.305 5.265-0.134l-0.01 1.172s6.363-11.158-7.067-13.445z" fill="#84b719" stroke="#059036" stroke-width=".63815"/>
  <path d="m354.05 294.24s1.435-7.892-7.066-13.447" fill="none" stroke="#059036" stroke-width=".63815"/>
  <path d="m353.43 286.85s-8.41 9.986-3.606 12.085 5.301 1.031 4.799 2.098l-0.504 1.065s10.443-7.502-0.689-15.248z" fill="#09922f" stroke="#89ba1b" stroke-width=".63815"/>
  <path d="m354.2 302.05s4.625-6.597-0.689-15.247" fill="#09922f" stroke="#89ba1b" stroke-width=".63815"/>
  <path d="m327.15 299.49s9.942 8.189 12.075 3.345 1.065-5.319 2.129-4.84l1.064 0.481s-7.444-10.274-15.268 1.014z" fill="#c2d468" stroke="#059036" stroke-width=".63815"/>
  <path d="m342.38 298.39s-6.574-4.479-15.269 1.016" fill="#c2d468" stroke="#059036" stroke-width=".63815"/>
  <path d="m336.61 276.58s-3.457 12.54 1.812 12.408c5.266-0.135 5.276-1.307 5.266-0.135l-9e-3 1.173s6.362-11.159-7.069-13.446z" fill="#84b719" stroke="#059036" stroke-width=".63815"/>
  <path d="m343.74 289.95s1.434-7.89-7.067-13.444" fill="none" stroke="#059036" stroke-width=".63815"/>
  <path d="m322.99 309.58s9.943 8.19 12.076 3.347 1.066-5.32 2.13-4.84l1.063 0.48s-7.442-10.274-15.269 1.013z" fill="#c2d468" stroke="#059036" stroke-width=".63815"/>
  <path d="m338.21 308.48s-6.573-4.479-15.267 1.015" fill="#c2d468" stroke="#059036" stroke-width=".63815"/>
  <path d="m332.44 286.68s-3.458 12.539 1.811 12.407c5.264-0.136 5.273-1.307 5.264-0.136l-8e-3 1.173s6.363-11.158-7.067-13.444z" fill="#84b719" stroke="#059036" stroke-width=".63815"/>
  <path d="m339.57 300.05s1.434-7.891-7.066-13.445" fill="none" stroke="#059036" stroke-width=".63815"/>
  <path d="m341.59 292.41s-8.41 9.988-3.606 12.087 5.303 1.03 4.799 2.097l-0.504 1.065s10.442-7.503-0.689-15.249z" fill="#09922f" stroke="#89ba1b" stroke-width=".63815"/>
  <path d="m342.36 307.61s4.625-6.597-0.689-15.248" fill="#09922f" stroke="#89ba1b" stroke-width=".63815"/>
  <path d="m325.3 297.81s3.651 12.387 8.098 9.501c4.442-2.885 3.833-3.878 4.442-2.885l0.61 0.992s-0.432-12.751-13.15-7.608z" fill="#5aac32" stroke="#059036" stroke-width=".63815"/>
  <path d="m338.47 305.32s-2.932-7.403-13.15-7.608" fill="#5aac32" stroke="#059036" stroke-width=".63815"/>
  <path d="m336.14 314.25s9.943 8.188 12.077 3.345 1.066-5.318 2.129-4.84l1.063 0.481s-7.443-10.274-15.269 1.014z" fill="#c2d468" stroke="#059036" stroke-width=".63815"/>
  <path d="m351.37 313.15s-6.573-4.479-15.268 1.014" fill="#c2d468" stroke="#059036" stroke-width=".63815"/>
  <path d="m354.74 297.07s-8.411 9.987-3.606 12.086 5.302 1.031 4.799 2.097l-0.503 1.065s10.441-7.501-0.69-15.248z" fill="#09922f" stroke="#89ba1b" stroke-width=".63815"/>
  <path d="m355.52 312.28s4.623-6.598-0.691-15.249" fill="#09922f" stroke="#89ba1b" stroke-width=".63815"/>
  <path d="m338.46 302.47s3.65 12.386 8.098 9.5c4.443-2.885 3.833-3.876 4.443-2.885l0.61 0.993s-0.431-12.753-13.151-7.608z" fill="#5aac32" stroke="#059036" stroke-width=".63815"/>
  <path d="m351.62 309.98s-2.932-7.403-13.15-7.608" fill="#5aac32" stroke="#059036" stroke-width=".63815"/>
  <path d="m311.12 283.11s6.498 11.121 10.175 7.313c3.672-3.806 2.84-4.623 3.672-3.806l0.832 0.819s-3.433-12.213-14.679-4.326z" fill="#c2d468" stroke="#059036" stroke-width=".63815"/>
  <path d="m325.79 287.35s-4.619-6.475-14.678-4.325" fill="#c2d468" stroke="#059036" stroke-width=".63815"/>
  <path d="m327.91 264.89s-7.581 10.571-2.59 12.269c4.986 1.694 5.401 0.598 4.986 1.694l-0.414 1.096s9.829-8.272-1.982-15.059z" fill="#84b719" stroke="#059036" stroke-width=".63815"/>
  <path d="m329.98 279.9s4.075-6.907-1.983-15.059" fill="none" stroke="#059036" stroke-width=".63815"/>
  <path d="m317.36 272.86s-0.856 12.883 4.313 11.713 4.937-2.313 5.166-1.17l0.23 1.143s4.004-12.116-9.709-11.686z" fill="#5aac32" stroke="#059036" stroke-width=".63815"/>
  <path d="m327.12 284.46s-0.193-7.96-9.71-11.685" fill="#5aac32" stroke="#059036" stroke-width=".63815"/>
  <path d="m342.06 267.92s-7.58 10.571-2.589 12.269c4.986 1.694 5.4 0.599 4.986 1.694l-0.414 1.097s9.829-8.272-1.983-15.06z" fill="#84b719" stroke="#059036" stroke-width=".63815"/>
  <path d="m344.12 282.93s4.074-6.907-1.983-15.059" fill="none" stroke="#059036" stroke-width=".63815"/>
  <path d="m331.51 275.9s-0.856 12.884 4.314 11.713 4.937-2.313 5.166-1.17l0.23 1.142s4.003-12.116-9.71-11.685z" fill="#5aac32" stroke="#059036" stroke-width=".63815"/>
  <path d="m341.26 287.5s-0.191-7.962-9.708-11.685" fill="#5aac32" stroke="#059036" stroke-width=".63815"/>
  <path d="m311.81 300.64s6.5 11.121 10.174 7.313 2.839-4.623 3.673-3.805l0.831 0.818s-3.432-12.212-14.678-4.326z" fill="#c2d468" stroke="#059036" stroke-width=".63815"/>
  <path d="m326.48 304.87s-4.621-6.474-14.678-4.325" fill="#c2d468" stroke="#059036" stroke-width=".63815"/>
  <path d="m328.6 282.41s-7.58 10.572-2.59 12.269c4.987 1.694 5.401 0.599 4.987 1.694l-0.414 1.096s9.828-8.271-1.983-15.059z" fill="#84b719" stroke="#059036" stroke-width=".63815"/>
  <path d="m330.67 297.42s4.074-6.907-1.982-15.059" fill="none" stroke="#059036" stroke-width=".63815"/>
  <path d="m335.2 290.96s-11.344 6.464-7.562 10.094 4.618 2.8 3.779 3.626l-0.841 0.825s12.392-3.427 4.624-14.545z" fill="#09922f" stroke="#89ba1b" stroke-width=".63815"/>
  <path d="m330.68 305.49s6.619-4.59 4.624-14.546" fill="#09922f" stroke="#89ba1b" stroke-width=".63815"/>
  <path d="m318.06 290.39s-0.856 12.885 4.313 11.715 4.938-2.313 5.166-1.172l0.23 1.143s4.005-12.114-9.709-11.686z" fill="#5aac32" stroke="#059036" stroke-width=".63815"/>
  <path d="m327.81 301.99s-0.192-7.96-9.709-11.686" fill="#5aac32" stroke="#059036" stroke-width=".63815"/>
  <path d="m331.71 297.17s6.499 11.12 10.174 7.312 2.841-4.622 3.671-3.805l0.832 0.818s-3.43-12.213-14.677-4.325z" fill="#c2d468" stroke="#059036" stroke-width=".63815"/>
  <path d="m346.38 301.4s-4.62-6.475-14.678-4.325" fill="#c2d468" stroke="#059036" stroke-width=".63815"/>
  <path d="m348.5 278.94s-7.58 10.571-2.589 12.268 5.4 0.601 4.985 1.696l-0.415 1.096s9.83-8.271-1.981-15.06z" fill="#84b719" stroke="#059036" stroke-width=".63815"/>
  <path d="m350.57 293.95s4.075-6.907-1.983-15.059" fill="none" stroke="#059036" stroke-width=".63815"/>
  <path d="m355.1 287.48s-11.342 6.466-7.562 10.095 4.619 2.801 3.779 3.627l-0.841 0.826s12.393-3.431 4.624-14.548z" fill="#09922f" stroke="#89ba1b" stroke-width=".63815"/>
  <path d="m350.58 302.02s6.621-4.592 4.625-14.547" fill="#09922f" stroke="#89ba1b" stroke-width=".63815"/>
  <path d="m337.95 286.92s-0.856 12.884 4.315 11.714 4.938-2.314 5.167-1.172l0.229 1.144s4.004-12.116-9.711-11.686z" fill="#5aac32" stroke="#059036" stroke-width=".63815"/>
  <path d="m347.71 298.52s-0.192-7.961-9.709-11.685" fill="#5aac32" stroke="#059036" stroke-width=".63815"/>
  <path d="m324.25 303.63s6.498 11.12 10.175 7.313c3.672-3.806 2.839-4.623 3.672-3.806l0.83 0.819s-3.431-12.214-14.677-4.326z" fill="#c2d468" stroke="#059036" stroke-width=".63815"/>
  <path d="m338.92 307.86s-4.621-6.475-14.678-4.326" fill="#c2d468" stroke="#059036" stroke-width=".63815"/>
  <path d="m335.4 305.33s-11.344 6.464-7.563 10.095 4.62 2.801 3.778 3.627l-0.839 0.825s12.391-3.43 4.624-14.547z" fill="#09922f" stroke="#89ba1b" stroke-width=".63815"/>
  <path d="m330.87 319.87s6.62-4.591 4.625-14.546" fill="#09922f" stroke="#89ba1b" stroke-width=".63815"/>
  <path d="m318.25 304.76s-0.858 12.884 4.314 11.714 4.937-2.312 5.166-1.172l0.229 1.144s4.004-12.115-9.709-11.686z" fill="#5aac32" stroke="#059036" stroke-width=".63815"/>
  <path d="m328 316.37s-0.193-7.962-9.709-11.686" fill="#5aac32" stroke="#059036" stroke-width=".63815"/>
  <path d="m342.04 309.74s6.499 11.12 10.173 7.312c3.672-3.804 2.841-4.621 3.672-3.804l0.832 0.817s-3.43-12.213-14.677-4.325z" fill="#c2d468" stroke="#059036" stroke-width=".63815"/>
  <path d="m356.7 313.97s-4.621-6.477-14.678-4.327" fill="#c2d468" stroke="#059036" stroke-width=".63815"/>
  <path d="m358.83 291.51s-7.581 10.57-2.591 12.27c4.987 1.693 5.401 0.597 4.987 1.693l-0.414 1.096s9.829-8.269-1.982-15.059z" fill="#84b719" stroke="#059036" stroke-width=".63815"/>
  <path d="m360.89 306.52s4.074-6.909-1.983-15.06" fill="none" stroke="#059036" stroke-width=".63815"/>
  <path d="m365.43 300.06s-11.344 6.464-7.562 10.094 4.619 2.8 3.778 3.626l-0.841 0.827s12.393-3.43 4.625-14.547z" fill="#09922f" stroke="#89ba1b" stroke-width=".63815"/>
  <path d="m360.9 314.59s6.621-4.591 4.627-14.546" fill="#09922f" stroke="#89ba1b" stroke-width=".63815"/>
  <path d="m337.55 323.38s6.499 11.121 10.175 7.313c3.672-3.806 2.84-4.624 3.672-3.806l0.831 0.819s-3.432-12.214-14.678-4.326z" fill="#c2d468" stroke="#059036" stroke-width=".63815"/>
  <path d="m352.22 327.61s-4.62-6.475-14.678-4.326" fill="#c2d468" stroke="#059036" stroke-width=".63815"/>
  <path d="m354.34 305.16s-7.58 10.569-2.588 12.268 5.4 0.599 4.986 1.695l-0.414 1.096s9.828-8.272-1.984-15.059z" fill="#84b719" stroke="#059036" stroke-width=".63815"/>
  <path d="m356.41 320.16s4.075-6.908-1.981-15.06" fill="none" stroke="#059036" stroke-width=".63815"/>
  <path d="m358.38 313.02s-11.344 6.465-7.563 10.093 4.619 2.802 3.779 3.628l-0.842 0.826s12.393-3.429 4.626-14.547z" fill="#09922f" stroke="#89ba1b" stroke-width=".63815"/>
  <path d="m353.85 327.55s6.619-4.591 4.625-14.546" fill="#09922f" stroke="#89ba1b" stroke-width=".63815"/>
  <path d="m329.35 315.79s6.5 11.121 10.176 7.314c3.671-3.807 2.84-4.625 3.671-3.807l0.832 0.818s-3.433-12.211-14.679-4.325z" fill="#c2d468" stroke="#059036" stroke-width=".63815"/>
  <path d="m344.02 320.02s-4.619-6.475-14.677-4.325" fill="#c2d468" stroke="#059036" stroke-width=".63815"/>
  <path d="m346.14 297.56s-7.58 10.571-2.59 12.27c4.987 1.693 5.401 0.598 4.987 1.693l-0.413 1.097s9.828-8.271-1.984-15.06z" fill="#84b719" stroke="#059036" stroke-width=".63815"/>
  <path d="m348.21 312.58s4.073-6.907-1.983-15.058" fill="none" stroke="#059036" stroke-width=".63815"/>
  <path d="m321.96 323.83s6.499 11.122 10.174 7.314c3.671-3.804 2.84-4.623 3.671-3.804l0.833 0.817s-3.432-12.212-14.678-4.327z" fill="#c2d468" stroke="#059036" stroke-width=".63815"/>
  <path d="m336.62 328.06s-4.621-6.476-14.677-4.325" fill="#c2d468" stroke="#059036" stroke-width=".63815"/>
  <path d="m338.75 305.6s-7.58 10.571-2.589 12.27c4.987 1.692 5.401 0.597 4.987 1.692l-0.414 1.099s9.828-8.273-1.984-15.061z" fill="#84b719" stroke="#059036" stroke-width=".63815"/>
  <path d="m340.81 320.61s4.073-6.907-1.983-15.06" fill="none" stroke="#059036" stroke-width=".63815"/>
  <path d="m345.35 314.14s-11.343 6.465-7.563 10.094 4.62 2.801 3.779 3.627l-0.841 0.825s12.393-3.428 4.625-14.546z" fill="#09922f" stroke="#89ba1b" stroke-width=".63815"/>
  <path d="m340.82 328.68s6.618-4.591 4.624-14.547" fill="#09922f" stroke="#89ba1b" stroke-width=".63815"/>
  <path d="m328.2 313.58s-0.856 12.886 4.315 11.715 4.937-2.313 5.166-1.171l0.229 1.143s4.003-12.116-9.71-11.687z" fill="#5aac32" stroke="#059036" stroke-width=".63815"/>
  <path d="m337.96 325.18s-0.193-7.961-9.71-11.685" fill="#5aac32" stroke="#059036" stroke-width=".63815"/>
  <path d="m332.68 332.75s6.498 11.12 10.174 7.312c3.672-3.805 2.841-4.622 3.672-3.805l0.831 0.819s-3.43-12.214-14.677-4.326z" fill="#c2d468" stroke="#059036" stroke-width=".63815"/>
  <path d="m347.35 336.98s-4.619-6.475-14.677-4.325" fill="#c2d468" stroke="#059036" stroke-width=".63815"/>
  <path d="m356.08 323.06s-11.342 6.464-7.562 10.094 4.619 2.801 3.779 3.626l-0.84 0.826s12.393-3.429 4.623-14.546z" fill="#09922f" stroke="#89ba1b" stroke-width=".63815"/>
  <path d="m351.55 337.6s6.619-4.593 4.625-14.547" fill="#09922f" stroke="#89ba1b" stroke-width=".63815"/>
  <path d="m338.93 322.5s-0.856 12.885 4.315 11.716 4.937-2.313 5.166-1.171l0.229 1.141s4.003-12.116-9.71-11.686z" fill="#5aac32" stroke="#059036" stroke-width=".63815"/>
  <path d="m348.68 334.1s-0.192-7.96-9.71-11.684" fill="#5aac32" stroke="#059036" stroke-width=".63815"/>
  <path d="m395.69 231.86s-0.442 12.875 4.699 11.617 4.869-2.394 5.138-1.258l0.266 1.136s3.618-12.16-10.103-11.495z" fill="#c2d468" stroke="#059036" stroke-width=".63815"/>
  <path d="m405.83 243.28s-0.45-7.942-10.101-11.495" fill="#c2d468" stroke="#059036" stroke-width=".63815"/>
  <path d="m419.62 225.42s-12.053 4.892-8.739 8.992c3.312 4.095 4.247 3.39 3.312 4.095l-0.935 0.705s12.727-1.745 6.362-13.792z" fill="#84b719" stroke="#059036" stroke-width=".63815"/>
  <path d="m413.35 239.21s7.131-3.668 6.361-13.793" fill="none" stroke="#059036" stroke-width=".63815"/>
  <path d="m406.44 226.53s-7.604 10.437-2.605 12.208c4.991 1.769 5.409 0.681 4.991 1.769l-0.415 1.089s9.853-8.109-1.971-15.066z" fill="#5aac32" stroke="#059036" stroke-width=".63815"/>
  <path d="m408.49 241.55s4.088-6.833-1.97-15.063" fill="#5aac32" stroke="#059036" stroke-width=".63815"/>
  <path d="m429.96 235.54s-12.054 4.893-8.739 8.993c3.312 4.095 4.247 3.388 3.312 4.095l-0.936 0.706s12.728-1.747 6.363-13.794z" fill="#84b719" stroke="#059036" stroke-width=".63815"/>
  <path d="m423.69 249.33s7.134-3.666 6.364-13.792" fill="none" stroke="#059036" stroke-width=".63815"/>
  <path d="m416.78 236.65s-7.603 10.438-2.608 12.208 5.41 0.68 4.993 1.769l-0.414 1.089s9.853-8.107-1.971-15.066z" fill="#5aac32" stroke="#059036" stroke-width=".63815"/>
  <path d="m418.83 251.67s4.087-6.834-1.971-15.063" fill="#5aac32" stroke="#059036" stroke-width=".63815"/>
  <path d="m386.92 247.06s-0.44 12.874 4.699 11.616 4.87-2.394 5.137-1.256l0.265 1.135s3.618-12.158-10.101-11.495z" fill="#c2d468" stroke="#059036" stroke-width=".63815"/>
  <path d="m397.06 258.46s-0.452-7.942-10.103-11.494" fill="#c2d468" stroke="#059036" stroke-width=".63815"/>
  <path d="m410.85 240.61s-12.055 4.892-8.741 8.992c3.311 4.095 4.248 3.389 3.311 4.095l-0.936 0.705s12.728-1.746 6.366-13.792z" fill="#84b719" stroke="#059036" stroke-width=".63815"/>
  <path d="m404.58 254.4s7.132-3.666 6.362-13.793" fill="none" stroke="#059036" stroke-width=".63815"/>
  <path d="m411.87 251.35s-13.042-0.591-11.784 4.498c1.26 5.084 2.411 4.833 1.26 5.084l-1.152 0.248s12.311 3.717 11.676-9.83z" fill="#09922f" stroke="#89ba1b" stroke-width=".63815"/>
  <path d="m400.28 261.23s8.048-0.348 11.676-9.83" fill="#09922f" stroke="#89ba1b" stroke-width=".63815"/>
  <path d="m397.67 241.72s-7.604 10.438-2.608 12.209c4.993 1.768 5.41 0.679 4.993 1.768l-0.415 1.088s9.853-8.107-1.97-15.065z" fill="#5aac32" stroke="#059036" stroke-width=".63815"/>
  <path d="m399.73 256.74s4.086-6.835-1.973-15.065" fill="#5aac32" stroke="#059036" stroke-width=".63815"/>
  <path d="m405.6 254.74s-0.442 12.873 4.699 11.616c5.135-1.259 4.869-2.395 5.135-1.259l0.266 1.137s3.619-12.159-10.1-11.494z" fill="#c2d468" stroke="#059036" stroke-width=".63815"/>
  <path d="m415.74 266.15s-0.451-7.941-10.103-11.493" fill="#c2d468" stroke="#059036" stroke-width=".63815"/>
  <path d="m429.53 248.29s-12.053 4.893-8.741 8.99 4.248 3.391 3.313 4.097l-0.938 0.705s12.729-1.746 6.366-13.792z" fill="#84b719" stroke="#059036" stroke-width=".63815"/>
  <path d="m423.26 262.09s7.132-3.666 6.364-13.791" fill="none" stroke="#059036" stroke-width=".63815"/>
  <path d="m430.55 259.04s-13.044-0.589-11.786 4.498c1.26 5.084 2.411 4.834 1.26 5.084l-1.151 0.25s12.309 3.716 11.677-9.832z" fill="#09922f" stroke="#89ba1b" stroke-width=".63815"/>
  <path d="m418.96 268.91s8.05-0.348 11.677-9.831" fill="#09922f" stroke="#89ba1b" stroke-width=".63815"/>
  <path d="m416.35 249.41s-7.604 10.438-2.607 12.209c4.994 1.768 5.41 0.68 4.994 1.768l-0.415 1.09s9.854-8.109-1.972-15.067z" fill="#5aac32" stroke="#059036" stroke-width=".63815"/>
  <path d="m418.41 264.42s4.087-6.833-1.973-15.063" fill="#5aac32" stroke="#059036" stroke-width=".63815"/>
  <path d="m395.84 256.22s-0.441 12.874 4.699 11.616 4.869-2.394 5.136-1.258l0.266 1.136s3.619-12.157-10.101-11.494z" fill="#c2d468" stroke="#059036" stroke-width=".63815"/>
  <path d="m405.98 267.64s-0.449-7.942-10.101-11.494" fill="#c2d468" stroke="#059036" stroke-width=".63815"/>
  <path d="m404.36 263.61s-13.042-0.591-11.784 4.497 2.412 4.835 1.26 5.085l-1.152 0.249s12.31 3.717 11.676-9.831z" fill="#09922f" stroke="#89ba1b" stroke-width=".63815"/>
  <path d="m392.77 273.48s8.047-0.349 11.676-9.83" fill="#09922f" stroke="#89ba1b" stroke-width=".63815"/>
  <path d="m390.16 253.98s-7.604 10.438-2.608 12.209 5.41 0.68 4.995 1.768l-0.417 1.088s9.855-8.106-1.97-15.065z" fill="#5aac32" stroke="#059036" stroke-width=".63815"/>
  <path d="m392.22 269s4.089-6.835-1.971-15.063" fill="#5aac32" stroke="#059036" stroke-width=".63815"/>
  <path d="m407.62 270.89s-0.442 12.873 4.697 11.615 4.87-2.393 5.136-1.257l0.266 1.136s3.62-12.159-10.099-11.494z" fill="#c2d468" stroke="#059036" stroke-width=".63815"/>
  <path d="m417.76 282.3s-0.45-7.942-10.102-11.494" fill="#c2d468" stroke="#059036" stroke-width=".63815"/>
  <path d="m431.55 264.44s-12.052 4.893-8.741 8.992 4.249 3.389 3.313 4.096l-0.936 0.704s12.727-1.745 6.364-13.792z" fill="#84b719" stroke="#059036" stroke-width=".63815"/>
  <path d="m425.28 278.24s7.133-3.667 6.362-13.794" fill="none" stroke="#059036" stroke-width=".63815"/>
  <path d="m432.57 275.18s-13.043-0.591-11.784 4.498c1.258 5.084 2.412 4.834 1.258 5.084l-1.152 0.25s12.311 3.716 11.678-9.832z" fill="#09922f" stroke="#89ba1b" stroke-width=".63815"/>
  <path d="m420.98 285.06s8.052-0.348 11.679-9.83" fill="#09922f" stroke="#89ba1b" stroke-width=".63815"/>
  <path d="m396.54 280.03s-0.442 12.872 4.7 11.616 4.869-2.395 5.136-1.258l0.267 1.136s3.617-12.159-10.103-11.494z" fill="#c2d468" stroke="#059036" stroke-width=".63815"/>
  <path d="m406.69 291.44s-0.45-7.941-10.101-11.495" fill="#c2d468" stroke="#059036" stroke-width=".63815"/>
  <path d="m420.47 273.58s-12.053 4.892-8.739 8.991c3.312 4.095 4.246 3.39 3.312 4.095l-0.937 0.706s12.727-1.746 6.364-13.792z" fill="#84b719" stroke="#059036" stroke-width=".63815"/>
  <path d="m414.21 287.38s7.134-3.667 6.364-13.791" fill="none" stroke="#059036" stroke-width=".63815"/>
  <path d="m419.68 282.38s-13.043-0.59-11.783 4.497c1.26 5.084 2.412 4.834 1.26 5.084l-1.152 0.249s12.309 3.718 11.675-9.83z" fill="#09922f" stroke="#89ba1b" stroke-width=".63815"/>
  <path d="m408.09 292.25s8.047-0.349 11.676-9.831" fill="#09922f" stroke="#89ba1b" stroke-width=".63815"/>
  <path d="m393.66 269.23s-0.442 12.874 4.7 11.616c5.135-1.257 4.869-2.395 5.135-1.257l0.266 1.136s3.619-12.159-10.101-11.495z" fill="#c2d468" stroke="#059036" stroke-width=".63815"/>
  <path d="m403.8 280.64s-0.451-7.941-10.102-11.494" fill="#c2d468" stroke="#059036" stroke-width=".63815"/>
  <path d="m417.59 262.78s-12.054 4.892-8.741 8.991c3.313 4.095 4.25 3.39 3.313 4.095l-0.935 0.706s12.726-1.746 6.363-13.792z" fill="#84b719" stroke="#059036" stroke-width=".63815"/>
  <path d="m411.32 276.58s7.132-3.665 6.361-13.792" fill="none" stroke="#059036" stroke-width=".63815"/>
  <path d="m383.12 272.08s-0.442 12.873 4.698 11.616 4.868-2.394 5.136-1.257l0.266 1.137s3.619-12.159-10.1-11.496z" fill="#c2d468" stroke="#059036" stroke-width=".63815"/>
  <path d="m393.26 283.49s-0.45-7.941-10.101-11.494" fill="#c2d468" stroke="#059036" stroke-width=".63815"/>
  <path d="m407.04 265.63s-12.053 4.891-8.74 8.992c3.313 4.093 4.249 3.388 3.313 4.093l-0.937 0.707s12.728-1.747 6.364-13.792z" fill="#84b719" stroke="#059036" stroke-width=".63815"/>
  <path d="m400.78 279.43s7.133-3.667 6.363-13.794" fill="none" stroke="#059036" stroke-width=".63815"/>
  <path d="m408.07 276.38s-13.043-0.59-11.783 4.498c1.258 5.084 2.41 4.834 1.258 5.084l-1.152 0.249s12.311 3.717 11.677-9.831z" fill="#09922f" stroke="#89ba1b" stroke-width=".63815"/>
  <path d="m396.48 286.25s8.049-0.349 11.676-9.831" fill="#09922f" stroke="#89ba1b" stroke-width=".63815"/>
  <path d="m393.87 266.74s-7.604 10.438-2.607 12.209c4.992 1.768 5.409 0.68 4.992 1.768l-0.416 1.088s9.854-8.107-1.969-15.065z" fill="#5aac32" stroke="#059036" stroke-width=".63815"/>
  <path d="m395.92 281.76s4.087-6.834-1.972-15.064" fill="#5aac32" stroke="#059036" stroke-width=".63815"/>
  <path d="m387.42 285.35s-0.442 12.873 4.7 11.616 4.868-2.394 5.136-1.258l0.265 1.137s3.619-12.159-10.101-11.495z" fill="#c2d468" stroke="#059036" stroke-width=".63815"/>
  <path d="m397.57 296.76s-0.451-7.94-10.103-11.495" fill="#c2d468" stroke="#059036" stroke-width=".63815"/>
  <path d="m412.38 289.65s-13.043-0.59-11.785 4.498c1.26 5.083 2.412 4.834 1.26 5.083l-1.152 0.25s12.31 3.717 11.677-9.831z" fill="#09922f" stroke="#89ba1b" stroke-width=".63815"/>
  <path d="m400.79 299.52s8.049-0.35 11.677-9.831" fill="#09922f" stroke="#89ba1b" stroke-width=".63815"/>
  <path d="m398.18 280.01s-7.602 10.438-2.605 12.209c4.993 1.768 5.407 0.68 4.993 1.768l-0.416 1.089s9.852-8.107-1.972-15.066z" fill="#5aac32" stroke="#059036" stroke-width=".63815"/>
  <path d="m400.23 295.03s4.087-6.834-1.972-15.063" fill="#5aac32" stroke="#059036" stroke-width=".63815"/>
  <path d="m350.46 268.64s6.499 11.12 10.174 7.313 2.84-4.623 3.672-3.806l0.833 0.819s-3.433-12.212-14.679-4.326z" fill="#c2d468" stroke="#059036" stroke-width=".63815"/>
  <path d="m365.13 272.88s-4.619-6.475-14.677-4.326" fill="#c2d468" stroke="#059036" stroke-width=".63815"/>
  <path d="m367.25 250.42s-7.581 10.571-2.59 12.27c4.987 1.692 5.402 0.598 4.987 1.692l-0.416 1.097s9.831-8.271-1.981-15.059z" fill="#84b719" stroke="#059036" stroke-width=".63815"/>
  <path d="m369.32 265.43s4.075-6.908-1.983-15.06" fill="none" stroke="#059036" stroke-width=".63815"/>
  <path d="m356.71 258.39s-0.857 12.883 4.314 11.714 4.936-2.314 5.165-1.171l0.23 1.142s4.006-12.114-9.709-11.685z" fill="#5aac32" stroke="#059036" stroke-width=".63815"/>
  <path d="m366.46 269.99s-0.192-7.96-9.709-11.685" fill="#5aac32" stroke="#059036" stroke-width=".63815"/>
  <path d="m381.4 253.45s-7.58 10.571-2.588 12.269 5.4 0.598 4.985 1.695l-0.412 1.096s9.828-8.271-1.985-15.06z" fill="#84b719" stroke="#059036" stroke-width=".63815"/>
  <path d="m383.47 268.46s4.075-6.907-1.982-15.06" fill="none" stroke="#059036" stroke-width=".63815"/>
  <path d="m370.85 261.43s-0.857 12.884 4.313 11.713 4.938-2.313 5.166-1.171l0.231 1.143s4.002-12.114-9.71-11.685z" fill="#5aac32" stroke="#059036" stroke-width=".63815"/>
  <path d="m380.61 273.03s-0.191-7.961-9.709-11.686" fill="#5aac32" stroke="#059036" stroke-width=".63815"/>
  <path d="m351.16 286.17s6.499 11.121 10.174 7.313 2.84-4.623 3.673-3.805l0.831 0.817s-3.432-12.213-14.678-4.325z" fill="#c2d468" stroke="#059036" stroke-width=".63815"/>
  <path d="m365.83 290.4s-4.62-6.474-14.678-4.325" fill="#c2d468" stroke="#059036" stroke-width=".63815"/>
  <path d="m367.95 267.94s-7.58 10.572-2.589 12.271c4.986 1.692 5.402 0.598 4.986 1.692l-0.413 1.097s9.829-8.271-1.984-15.06z" fill="#84b719" stroke="#059036" stroke-width=".63815"/>
  <path d="m370.02 282.95s4.074-6.908-1.983-15.061" fill="none" stroke="#059036" stroke-width=".63815"/>
  <path d="m374.55 276.48s-11.344 6.464-7.563 10.096 4.619 2.799 3.779 3.626l-0.84 0.824s12.391-3.429 4.624-14.546z" fill="#09922f" stroke="#89ba1b" stroke-width=".63815"/>
  <path d="m370.02 291.02s6.619-4.592 4.624-14.546" fill="#09922f" stroke="#89ba1b" stroke-width=".63815"/>
  <path d="m357.4 275.92s-0.857 12.886 4.313 11.716 4.938-2.313 5.166-1.172l0.23 1.143s4.004-12.116-9.709-11.687z" fill="#5aac32" stroke="#059036" stroke-width=".63815"/>
  <path d="m367.16 287.52s-0.192-7.96-9.709-11.685" fill="#5aac32" stroke="#059036" stroke-width=".63815"/>
  <path d="m371.06 282.7s6.5 11.12 10.175 7.313c3.671-3.806 2.839-4.624 3.671-3.806l0.831 0.819s-3.431-12.213-14.677-4.326z" fill="#c2d468" stroke="#059036" stroke-width=".63815"/>
  <path d="m385.72 286.93s-4.62-6.474-14.678-4.325" fill="#c2d468" stroke="#059036" stroke-width=".63815"/>
  <path d="m387.85 264.47s-7.581 10.571-2.589 12.268 5.401 0.6 4.987 1.695l-0.416 1.097s9.83-8.271-1.982-15.06z" fill="#84b719" stroke="#059036" stroke-width=".63815"/>
  <path d="m389.91 279.48s4.074-6.907-1.983-15.059" fill="none" stroke="#059036" stroke-width=".63815"/>
  <path d="m394.45 273.01s-11.342 6.464-7.562 10.094 4.618 2.801 3.779 3.627l-0.842 0.825s12.393-3.429 4.625-14.546z" fill="#09922f" stroke="#89ba1b" stroke-width=".63815"/>
  <path d="m389.92 287.55s6.621-4.592 4.625-14.548" fill="#09922f" stroke="#89ba1b" stroke-width=".63815"/>
  <path d="m377.3 272.45s-0.856 12.884 4.316 11.714 4.938-2.313 5.167-1.172l0.229 1.144s4.003-12.117-9.712-11.686z" fill="#5aac32" stroke="#059036" stroke-width=".63815"/>
  <path d="m387.06 284.05s-0.193-7.962-9.712-11.686" fill="#5aac32" stroke="#059036" stroke-width=".63815"/>
  <path d="m363.6 289.16s6.5 11.121 10.176 7.313c3.672-3.806 2.839-4.624 3.672-3.806l0.831 0.818s-3.433-12.213-14.679-4.325z" fill="#c2d468" stroke="#059036" stroke-width=".63815"/>
  <path d="m378.26 293.39s-4.62-6.475-14.679-4.326" fill="#c2d468" stroke="#059036" stroke-width=".63815"/>
  <path d="m374.742,290.859c0,0-11.344,6.464-7.563,10.094s4.622,2.802 3.779,3.627-.839.825-.839.825 12.393-3.43 4.623-14.546z" fill="#09922f" stroke="#89ba1b" stroke-width=".63815"/>
  <path d="m370.21 305.4s6.62-4.592 4.625-14.546" fill="#09922f" stroke="#89ba1b" stroke-width=".63815"/>
  <path d="m357.6 290.3s-0.857 12.885 4.314 11.714 4.936-2.313 5.167-1.172l0.229 1.143s4.003-12.115-9.71-11.685z" fill="#5aac32" stroke="#059036" stroke-width=".63815"/>
  <path d="m367.35 301.9s-0.193-7.961-9.711-11.686" fill="#5aac32" stroke="#059036" stroke-width=".63815"/>
  <path d="m381.38 295.27s6.499 11.121 10.174 7.313 2.84-4.622 3.672-3.805l0.831 0.818s-3.431-12.211-14.677-4.326z" fill="#c2d468" stroke="#059036" stroke-width=".63815"/>
  <path d="m396.05 299.5s-4.619-6.477-14.677-4.326" fill="#c2d468" stroke="#059036" stroke-width=".63815"/>
  <path d="m398.17 277.04s-7.58 10.572-2.589 12.271c4.985 1.694 5.399 0.597 4.985 1.694l-0.415 1.095s9.831-8.27-1.981-15.06z" fill="#84b719" stroke="#059036" stroke-width=".63815"/>
  <path d="m400.24 292.06s4.076-6.908-1.983-15.061" fill="none" stroke="#059036" stroke-width=".63815"/>
  <path d="m404.77 285.58s-11.343 6.465-7.563 10.094 4.62 2.8 3.779 3.627l-0.841 0.826s12.394-3.429 4.625-14.547z" fill="#09922f" stroke="#89ba1b" stroke-width=".63815"/>
  <path d="m400.24 300.12s6.62-4.591 4.625-14.546" fill="#09922f" stroke="#89ba1b" stroke-width=".63815"/>
  <path d="m376.9 308.91s6.498 11.121 10.173 7.313 2.84-4.623 3.673-3.805l0.83 0.818s-3.431-12.213-14.676-4.326z" fill="#c2d468" stroke="#059036" stroke-width=".63815"/>
  <path d="m391.57 313.14s-4.619-6.476-14.678-4.325" fill="#c2d468" stroke="#059036" stroke-width=".63815"/>
  <path d="m393.69 290.68s-7.581 10.57-2.589 12.268 5.402 0.599 4.986 1.695l-0.414 1.096s9.829-8.27-1.983-15.059z" fill="#84b719" stroke="#059036" stroke-width=".63815"/>
  <path d="m395.76 305.69s4.077-6.908-1.981-15.06" fill="none" stroke="#059036" stroke-width=".63815"/>
  <path d="m397.72 298.55s-11.345 6.464-7.564 10.093 4.619 2.8 3.78 3.627l-0.842 0.825s12.394-3.429 4.626-14.545z" fill="#09922f" stroke="#89ba1b" stroke-width=".63815"/>
  <path d="m393.19 313.08s6.619-4.591 4.625-14.544" fill="#09922f" stroke="#89ba1b" stroke-width=".63815"/>
  <path d="m368.7 301.32s6.501 11.12 10.176 7.313 2.839-4.625 3.67-3.806l0.831 0.817s-3.431-12.211-14.677-4.324z" fill="#c2d468" stroke="#059036" stroke-width=".63815"/>
  <path d="m383.37 305.55s-4.621-6.475-14.678-4.325" fill="#c2d468" stroke="#059036" stroke-width=".63815"/>
  <path d="m385.49 283.1s-7.58 10.57-2.59 12.268c4.987 1.694 5.402 0.598 4.987 1.694l-0.413 1.097s9.828-8.269-1.984-15.059z" fill="#84b719" stroke="#059036" stroke-width=".63815"/>
  <path d="m387.56 298.11s4.073-6.909-1.982-15.06" fill="none" stroke="#059036" stroke-width=".63815"/>
  <path d="m361.3 309.36s6.5 11.121 10.175 7.313c3.67-3.806 2.839-4.624 3.67-3.806l0.834 0.819s-3.431-12.213-14.679-4.326z" fill="#c2d468" stroke="#059036" stroke-width=".63815"/>
  <path d="m375.97 313.59s-4.619-6.475-14.676-4.326" fill="#c2d468" stroke="#059036" stroke-width=".63815"/>
  <path d="m378.09 291.13s-7.581 10.571-2.591 12.27c4.987 1.691 5.4 0.597 4.987 1.691l-0.412 1.1s9.827-8.274-1.984-15.061z" fill="#84b719" stroke="#059036" stroke-width=".63815"/>
  <path d="m380.16 306.14s4.074-6.909-1.984-15.062" fill="none" stroke="#059036" stroke-width=".63815"/>
  <path d="m384.69 299.67s-11.343 6.464-7.563 10.093 4.621 2.801 3.779 3.627l-0.84 0.825s12.392-3.429 4.624-14.545z" fill="#09922f" stroke="#89ba1b" stroke-width=".63815"/>
  <path d="m380.16 314.21s6.619-4.592 4.625-14.546" fill="#09922f" stroke="#89ba1b" stroke-width=".63815"/>
  <path d="m367.54 299.11s-0.856 12.884 4.313 11.714 4.938-2.313 5.167-1.172l0.229 1.144s4.004-12.116-9.709-11.686z" fill="#5aac32" stroke="#059036" stroke-width=".63815"/>
  <path d="m377.3 310.71s-0.193-7.961-9.71-11.685" fill="#5aac32" stroke="#059036" stroke-width=".63815"/>
  <path d="m372.03 318.28s6.499 11.122 10.176 7.314c3.669-3.807 2.838-4.624 3.669-3.807l0.833 0.819s-3.432-12.213-14.678-4.326z" fill="#c2d468" stroke="#059036" stroke-width=".63815"/>
  <path d="m386.7 322.51s-4.621-6.475-14.678-4.326" fill="#c2d468" stroke="#059036" stroke-width=".63815"/>
  <path d="m395.42 308.59s-11.343 6.464-7.563 10.094 4.619 2.801 3.78 3.627l-0.841 0.826s12.393-3.429 4.624-14.547z" fill="#09922f" stroke="#89ba1b" stroke-width=".63815"/>
  <path d="m390.89 323.13s6.62-4.593 4.625-14.546" fill="#09922f" stroke="#89ba1b" stroke-width=".63815"/>
  <path d="m378.27 308.03s-0.856 12.884 4.315 11.714 4.935-2.313 5.165-1.171l0.229 1.143s4.004-12.115-9.709-11.686z" fill="#5aac32" stroke="#059036" stroke-width=".63815"/>
  <path d="m388.03 319.63s-0.19-7.961-9.711-11.685" fill="#5aac32" stroke="#059036" stroke-width=".63815"/>
  <path d="m412.66 275.97s-5.019 11.862 0.232 12.527 5.402-0.493 5.246 0.663l-0.159 1.156s7.731-10.058-5.319-14.346z" fill="#c2d468" stroke="#059036" stroke-width=".63815"/>
  <path d="m418.05 290.25s2.422-7.576-5.32-14.348" fill="#c2d468" stroke="#059036" stroke-width=".63815"/>
  <path d="m437.31 278.51s-13.007 0.255-11.378 5.268 2.752 4.686 1.628 5.011l-1.126 0.323s12.508 2.923 10.876-10.602z" fill="#84b719" stroke="#059036" stroke-width=".63815"/>
  <path d="m426.52 289.15s7.973-0.873 10.876-10.604" fill="none" stroke="#059036" stroke-width=".63815"/>
  <path d="m424.61 274.83s-10.835 7.025-6.802 10.47c4.03 3.436 4.808 2.568 4.03 3.436l-0.777 0.868s12.1-4.045 3.549-14.774z" fill="#5aac32" stroke="#059036" stroke-width=".63815"/>
  <path d="m421.15 289.59s6.262-4.919 3.55-14.772" fill="#5aac32" stroke="#059036" stroke-width=".63815"/>
  <path d="m443.34 291.66s-13.005 0.256-11.378 5.271 2.753 4.683 1.627 5.008l-1.124 0.325s12.508 2.921 10.875-10.604z" fill="#84b719" stroke="#059036" stroke-width=".63815"/>
  <path d="m432.56 302.3s7.974-0.872 10.878-10.603" fill="none" stroke="#059036" stroke-width=".63815"/>
  <path d="m430.64 287.98s-10.835 7.026-6.804 10.467 4.81 2.571 4.032 3.438l-0.776 0.867s12.1-4.043 3.548-14.772z" fill="#5aac32" stroke="#059036" stroke-width=".63815"/>
  <path d="m427.19 302.74s6.263-4.919 3.55-14.771" fill="#5aac32" stroke="#059036" stroke-width=".63815"/>
  <path d="m399.03 287.01s-5.018 11.864 0.232 12.529 5.404-0.493 5.248 0.663l-0.158 1.156s7.728-10.057-5.322-14.348z" fill="#c2d468" stroke="#059036" stroke-width=".63815"/>
  <path d="m404.42 301.3s2.421-7.577-5.321-14.348" fill="#c2d468" stroke="#059036" stroke-width=".63815"/>
  <path d="m423.69 289.56s-13.007 0.255-11.379 5.27 2.754 4.685 1.627 5.009l-1.125 0.325s12.509 2.922 10.877-10.604z" fill="#84b719" stroke="#059036" stroke-width=".63815"/>
  <path d="m412.9 300.2s7.975-0.873 10.877-10.604" fill="none" stroke="#059036" stroke-width=".63815"/>
  <path d="m420.8 299.96s-11.968-5.218-12.612-0.016 0.521 5.377-0.643 5.198l-1.164-0.18s10.162 7.876 14.419-5.002z" fill="#09922f" stroke="#89ba1b" stroke-width=".63815"/>
  <path d="m406.44 305.03s7.64 2.556 14.421-5.001" fill="#09922f" stroke="#89ba1b" stroke-width=".63815"/>
  <path d="m410.98 285.88s-10.835 7.026-6.802 10.468 4.808 2.569 4.03 3.436l-0.778 0.869s12.102-4.045 3.55-14.773z" fill="#5aac32" stroke="#059036" stroke-width=".63815"/>
  <path d="m407.53 300.64s6.262-4.92 3.549-14.773" fill="#5aac32" stroke="#059036" stroke-width=".63815"/>
  <path d="m413.73 300.88s-5.018 11.863 0.232 12.527 5.403-0.491 5.247 0.663l-0.16 1.156s7.731-10.059-5.319-14.346z" fill="#c2d468" stroke="#059036" stroke-width=".63815"/>
  <path d="m419.12 315.16s2.423-7.576-5.32-14.348" fill="#c2d468" stroke="#059036" stroke-width=".63815"/>
  <path d="m438.38 303.42s-13.007 0.254-11.378 5.27c1.627 5.007 2.753 4.685 1.627 5.007l-1.126 0.325s12.509 2.923 10.877-10.602z" fill="#84b719" stroke="#059036" stroke-width=".63815"/>
  <path d="m427.59 314.06s7.973-0.872 10.876-10.603" fill="none" stroke="#059036" stroke-width=".63815"/>
  <path d="m435.49 313.82s-11.969-5.219-12.613-0.018 0.521 5.377-0.643 5.199l-1.165-0.181s10.166 7.877 14.421-5z" fill="#09922f" stroke="#89ba1b" stroke-width=".63815"/>
  <path d="m421.13 318.89s7.642 2.555 14.421-5.002" fill="#09922f" stroke="#89ba1b" stroke-width=".63815"/>
  <path d="m425.68 299.74s-10.834 7.026-6.801 10.468 4.81 2.57 4.031 3.438l-0.779 0.867s12.102-4.043 3.549-14.773z" fill="#5aac32" stroke="#059036" stroke-width=".63815"/>
  <path d="m422.22 314.5s6.263-4.92 3.548-14.772" fill="#5aac32" stroke="#059036" stroke-width=".63815"/>
  <path d="m404.08 298.77s-5.017 11.861 0.232 12.528c5.247 0.662 5.404-0.494 5.247 0.662l-0.158 1.156s7.728-10.059-5.321-14.346z" fill="#c2d468" stroke="#059036" stroke-width=".63815"/>
  <path d="m409.47 313.05s2.421-7.576-5.321-14.348" fill="#c2d468" stroke="#059036" stroke-width=".63815"/>
  <path d="m409.4 308.72s-11.967-5.218-12.613-0.016c-0.642 5.199 0.522 5.377-0.642 5.199l-1.165-0.181s10.163 7.876 14.42-5.002z" fill="#09922f" stroke="#89ba1b" stroke-width=".63815"/>
  <path d="m395.04 313.79s7.642 2.555 14.422-5.003" fill="#09922f" stroke="#89ba1b" stroke-width=".63815"/>
  <path d="m399.58 294.64s-10.836 7.025-6.803 10.466 4.808 2.571 4.031 3.438l-0.777 0.867s12.1-4.043 3.549-14.771z" fill="#5aac32" stroke="#059036" stroke-width=".63815"/>
  <path d="m396.13 309.4s6.264-4.919 3.55-14.772" fill="#5aac32" stroke="#059036" stroke-width=".63815"/>
  <path d="m409.84 316.67s-5.02 11.862 0.232 12.527 5.402-0.492 5.245 0.664l-0.157 1.156s7.729-10.058-5.32-14.347z" fill="#c2d468" stroke="#059036" stroke-width=".63815"/>
  <path d="m415.23 330.96s2.421-7.577-5.319-14.348" fill="#c2d468" stroke="#059036" stroke-width=".63815"/>
  <path d="m434.49 319.22s-13.007 0.255-11.38 5.27 2.755 4.684 1.628 5.009l-1.127 0.324s12.51 2.922 10.879-10.603z" fill="#84b719" stroke="#059036" stroke-width=".63815"/>
  <path d="m423.7 329.85s7.974-0.871 10.878-10.602" fill="none" stroke="#059036" stroke-width=".63815"/>
  <path d="m431.6 329.62s-11.969-5.218-12.612-0.017c-0.646 5.198 0.522 5.377-0.646 5.198l-1.165-0.179s10.168 7.875 14.423-5.002z" fill="#09922f" stroke="#89ba1b" stroke-width=".63815"/>
  <path d="m417.24 334.69s7.641 2.555 14.423-5.002" fill="#09922f" stroke="#89ba1b" stroke-width=".63815"/>
  <path d="m396.23 321.25s-5.02 11.862 0.231 12.528c5.246 0.663 5.403-0.493 5.246 0.663l-0.16 1.156s7.732-10.058-5.317-14.347z" fill="#c2d468" stroke="#059036" stroke-width=".63815"/>
  <path d="m401.62 335.53s2.421-7.577-5.32-14.349" fill="#c2d468" stroke="#059036" stroke-width=".63815"/>
  <path d="m420.88 323.79s-13.005 0.255-11.378 5.27 2.754 4.684 1.628 5.008l-1.126 0.325s12.507 2.921 10.876-10.603z" fill="#84b719" stroke="#059036" stroke-width=".63815"/>
  <path d="m410.09 334.43s7.973-0.872 10.878-10.603" fill="none" stroke="#059036" stroke-width=".63815"/>
  <path d="m416.99 331.72s-11.969-5.217-12.614-0.015c-0.644 5.197 0.522 5.376-0.644 5.197l-1.164-0.181s10.167 7.877 14.422-5.001z" fill="#09922f" stroke="#89ba1b" stroke-width=".63815"/>
  <path d="m402.64 336.8s7.638 2.554 14.42-5.002" fill="#09922f" stroke="#89ba1b" stroke-width=".63815"/>
  <path d="m397.395,310.136c0,0-5.018,11.863.232,12.529 5.247.662 5.405-.494 5.247.662s-.159,1.156-.159,1.156 7.731-10.059-5.32-14.347z" fill="#c2d468" stroke="#059036" stroke-width=".63815"/>
  <path d="m402.78 324.42s2.422-7.576-5.318-14.347" fill="#c2d468" stroke="#059036" stroke-width=".63815"/>
  <path d="m422.05 312.68s-13.006 0.256-11.379 5.269 2.755 4.686 1.627 5.01l-1.126 0.324s12.509 2.921 10.878-10.603z" fill="#84b719" stroke="#059036" stroke-width=".63815"/>
  <path d="m411.26 323.32s7.973-0.873 10.877-10.604" fill="none" stroke="#059036" stroke-width=".63815"/>
  <path d="m386.53 309.02s-5.019 11.863 0.231 12.527 5.403-0.493 5.245 0.664l-0.157 1.156s7.729-10.058-5.319-14.347z" fill="#c2d468" stroke="#059036" stroke-width=".63815"/>
  <path d="m391.92 323.3s2.421-7.577-5.32-14.347" fill="#c2d468" stroke="#059036" stroke-width=".63815"/>
  <path d="m411.18 311.56s-13.004 0.255-11.38 5.27c1.631 5.008 2.755 4.685 1.631 5.008l-1.128 0.324s12.509 2.923 10.877-10.602z" fill="#84b719" stroke="#059036" stroke-width=".63815"/>
  <path d="m400.39 322.2s7.972-0.872 10.876-10.604" fill="none" stroke="#059036" stroke-width=".63815"/>
  <path d="m408.29 321.96s-11.966-5.219-12.61-0.017 0.522 5.377-0.643 5.197l-1.165-0.18s10.165 7.876 14.418-5z" fill="#09922f" stroke="#89ba1b" stroke-width=".63815"/>
  <path d="m393.94 327.03s7.64 2.554 14.419-5.004" fill="#09922f" stroke="#89ba1b" stroke-width=".63815"/>
  <path d="m398.48 307.89s-10.835 7.025-6.802 10.468 4.808 2.569 4.032 3.438l-0.778 0.867s12.1-4.046 3.548-14.773z" fill="#5aac32" stroke="#059036" stroke-width=".63815"/>
  <path d="m395.03 322.64s6.262-4.918 3.549-14.771" fill="#5aac32" stroke="#059036" stroke-width=".63815"/>
  <path d="m385.81 322.95s-5.018 11.861 0.232 12.528c5.246 0.662 5.401-0.493 5.246 0.662l-0.158 1.156s7.728-10.058-5.32-14.346z" fill="#c2d468" stroke="#059036" stroke-width=".63815"/>
  <path d="m391.2 337.24s2.421-7.575-5.321-14.347" fill="#c2d468" stroke="#059036" stroke-width=".63815"/>
  <path d="m407.57 335.89s-11.97-5.218-12.613-0.017 0.521 5.378-0.644 5.198l-1.165-0.178s10.167 7.875 14.422-5.003z" fill="#09922f" stroke="#89ba1b" stroke-width=".63815"/>
  <path d="m393.21 340.97s7.64 2.552 14.421-5.004" fill="#09922f" stroke="#89ba1b" stroke-width=".63815"/>
  <path d="m397.76 321.82s-10.835 7.025-6.803 10.468 4.809 2.569 4.032 3.438l-0.778 0.867s12.101-4.045 3.549-14.773z" fill="#5aac32" stroke="#059036" stroke-width=".63815"/>
  <path d="m394.3 336.58s6.263-4.92 3.549-14.773" fill="#5aac32" stroke="#059036" stroke-width=".63815"/>
  <path d="m448.21 249.57s-6.656 11.026-1.554 12.434c5.1 1.403 5.419 0.281 5.1 1.403l-0.321 1.122s9.082-8.857-3.225-14.959z" fill="#c2d468" stroke="#059036" stroke-width=".63815"/>
  <path d="m451.52 264.47s3.475-7.155-3.225-14.959" fill="#c2d468" stroke="#059036" stroke-width=".63815"/>
  <path d="m472.25 255.59s-12.911-1.599-12.014 3.596c0.9 5.19 2.058 5.029 0.9 5.19l-1.162 0.161s11.966 4.673 12.276-8.947z" fill="#84b719" stroke="#059036" stroke-width=".63815"/>
  <path d="m460.06 264.59s8.016 0.271 12.274-8.946" fill="none" stroke="#059036" stroke-width=".63815"/>
  <path d="m460.2 250.15s-11.724 5.411-8.223 9.394 4.394 3.228 3.5 3.975l-0.893 0.748s12.554-2.28 5.616-14.117z" fill="#5aac32" stroke="#059036" stroke-width=".63815"/>
  <path d="m454.68 264.26s6.899-3.978 5.617-14.116" fill="#5aac32" stroke="#059036" stroke-width=".63815"/>
  <path d="m476.35 269.47s-12.909-1.6-12.011 3.595c0.897 5.188 2.058 5.029 0.897 5.188l-1.162 0.162s11.967 4.674 12.276-8.945z" fill="#84b719" stroke="#059036" stroke-width=".63815"/>
  <path d="m464.16 278.46s8.014 0.271 12.274-8.946" fill="none" stroke="#059036" stroke-width=".63815"/>
  <path d="m464.3 264.02s-11.725 5.412-8.223 9.393 4.396 3.229 3.5 3.977l-0.893 0.748s12.555-2.281 5.616-14.118z" fill="#5aac32" stroke="#059036" stroke-width=".63815"/>
  <path d="m458.78 278.14s6.899-3.977 5.615-14.117" fill="#5aac32" stroke="#059036" stroke-width=".63815"/>
  <path d="m433.16 258.56s-6.655 11.029-1.553 12.435c5.098 1.403 5.419 0.28 5.098 1.403l-0.321 1.121s9.082-8.855-3.224-14.959z" fill="#c2d468" stroke="#059036" stroke-width=".63815"/>
  <path d="m436.46 273.47s3.475-7.155-3.224-14.959" fill="#c2d468" stroke="#059036" stroke-width=".63815"/>
  <path d="m457.2 264.59s-12.912-1.599-12.015 3.596c0.898 5.189 2.06 5.029 0.898 5.189l-1.161 0.162s11.967 4.673 12.278-8.947z" fill="#84b719" stroke="#059036" stroke-width=".63815"/>
  <path d="m445 273.58s8.015 0.271 12.275-8.948" fill="none" stroke="#059036" stroke-width=".63815"/>
  <path d="m452.85 274.47s-11.102-6.869-12.482-1.812c-1.376 5.054-0.248 5.396-1.376 5.054l-1.125-0.345s8.938 9.243 14.983-2.897z" fill="#09922f" stroke="#89ba1b" stroke-width=".63815"/>
  <path d="m437.92 277.45s7.197 3.614 14.984-2.899" fill="#09922f" stroke="#89ba1b" stroke-width=".63815"/>
  <path d="m445.14 259.14s-11.723 5.413-8.223 9.393 4.394 3.229 3.501 3.978l-0.893 0.747s12.553-2.281 5.615-14.118z" fill="#5aac32" stroke="#059036" stroke-width=".63815"/>
  <path d="m439.62 273.26s6.898-3.979 5.616-14.117" fill="#5aac32" stroke="#059036" stroke-width=".63815"/>
  <path d="m445.73 274.37s-6.656 11.026-1.554 12.434c5.097 1.402 5.419 0.281 5.097 1.402l-0.32 1.122s9.084-8.857-3.223-14.958z" fill="#c2d468" stroke="#059036" stroke-width=".63815"/>
  <path d="m449.03 289.28s3.475-7.155-3.223-14.959" fill="#c2d468" stroke="#059036" stroke-width=".63815"/>
  <path d="m469.76 280.4s-12.911-1.599-12.012 3.596c0.897 5.188 2.058 5.028 0.897 5.188l-1.161 0.163s11.966 4.673 12.276-8.947z" fill="#84b719" stroke="#059036" stroke-width=".63815"/>
  <path d="m457.57 289.39s8.016 0.273 12.274-8.945" fill="none" stroke="#059036" stroke-width=".63815"/>
  <path d="m465.42 290.28s-11.102-6.868-12.481-1.812c-1.375 5.054-0.249 5.396-1.375 5.054l-1.129-0.345s8.94 9.244 14.985-2.897z" fill="#09922f" stroke="#89ba1b" stroke-width=".63815"/>
  <path d="m450.49 293.26s7.198 3.615 14.984-2.898" fill="#09922f" stroke="#89ba1b" stroke-width=".63815"/>
  <path d="m457.72 274.95s-11.724 5.411-8.222 9.394 4.395 3.228 3.5 3.976l-0.893 0.747s12.554-2.281 5.615-14.117z" fill="#5aac32" stroke="#059036" stroke-width=".63815"/>
  <path d="m452.2 289.07s6.898-3.978 5.616-14.116" fill="#5aac32" stroke="#059036" stroke-width=".63815"/>
  <path d="m436.48 270.92s-6.655 11.027-1.554 12.434c5.099 1.403 5.419 0.281 5.099 1.403l-0.32 1.122s9.081-8.859-3.225-14.959z" fill="#c2d468" stroke="#059036" stroke-width=".63815"/>
  <path d="m439.78 285.82s3.473-7.155-3.226-14.959" fill="#c2d468" stroke="#059036" stroke-width=".63815"/>
  <path d="m440.32 281.52s-11.102-6.868-12.48-1.811c-1.378 5.053-0.249 5.396-1.378 5.053l-1.125-0.343s8.939 9.242 14.983-2.899z" fill="#09922f" stroke="#89ba1b" stroke-width=".63815"/>
  <path d="m425.39 284.49s7.198 3.616 14.986-2.898" fill="#09922f" stroke="#89ba1b" stroke-width=".63815"/>
  <path d="m432.61 266.19s-11.725 5.411-8.223 9.393 4.393 3.228 3.5 3.976l-0.894 0.748s12.555-2.282 5.617-14.117z" fill="#5aac32" stroke="#059036" stroke-width=".63815"/>
  <path d="m427.1 280.3s6.898-3.978 5.615-14.117" fill="#5aac32" stroke="#059036" stroke-width=".63815"/>
  <path d="m439.62 289.46s-6.656 11.028-1.555 12.433 5.418 0.283 5.098 1.404l-0.32 1.123s9.082-8.858-3.223-14.96z" fill="#c2d468" stroke="#059036" stroke-width=".63815"/>
  <path d="m442.93 304.36s3.478-7.154-3.225-14.959" fill="#c2d468" stroke="#059036" stroke-width=".63815"/>
  <path d="m463.66 295.48s-12.91-1.598-12.014 3.597c0.899 5.189 2.061 5.028 0.899 5.189l-1.163 0.16s11.969 4.674 12.278-8.946z" fill="#84b719" stroke="#059036" stroke-width=".63815"/>
  <path d="m451.47 304.48s8.015 0.272 12.275-8.947" fill="none" stroke="#059036" stroke-width=".63815"/>
  <path d="m459.32 305.36s-11.104-6.867-12.481-1.811c-1.377 5.053-0.249 5.397-1.377 5.053l-1.127-0.343s8.94 9.242 14.985-2.899z" fill="#09922f" stroke="#89ba1b" stroke-width=".63815"/>
  <path d="m444.39 308.34s7.199 3.616 14.987-2.897" fill="#09922f" stroke="#89ba1b" stroke-width=".63815"/>
  <path d="m425.5 292.05s-6.658 11.026-1.555 12.434c5.099 1.403 5.419 0.281 5.099 1.403l-0.323 1.122s9.083-8.858-3.221-14.959z" fill="#c2d468" stroke="#059036" stroke-width=".63815"/>
  <path d="m428.8 306.95s3.476-7.154-3.222-14.958" fill="#c2d468" stroke="#059036" stroke-width=".63815"/>
  <path d="m449.54 298.07s-12.911-1.599-12.013 3.597c0.899 5.189 2.06 5.028 0.899 5.189l-1.161 0.16s11.966 4.673 12.275-8.946z" fill="#84b719" stroke="#059036" stroke-width=".63815"/>
  <path d="m437.35 307.07s8.017 0.272 12.275-8.946" fill="none" stroke="#059036" stroke-width=".63815"/>
  <path d="m444.56 305.37s-11.103-6.868-12.481-1.811c-1.377 5.053-0.249 5.396-1.377 5.053l-1.127-0.344s8.942 9.243 14.985-2.898z" fill="#09922f" stroke="#89ba1b" stroke-width=".63815"/>
  <path d="m429.64 308.35s7.198 3.614 14.987-2.898" fill="#09922f" stroke="#89ba1b" stroke-width=".63815"/>
  <path d="m428.24 281.22s-6.656 11.027-1.554 12.435c5.098 1.403 5.419 0.28 5.098 1.403l-0.32 1.121s9.082-8.857-3.224-14.959z" fill="#c2d468" stroke="#059036" stroke-width=".63815"/>
  <path d="m431.54 296.12s3.476-7.155-3.223-14.958" fill="#c2d468" stroke="#059036" stroke-width=".63815"/>
  <path d="m452.28 287.24s-12.912-1.598-12.013 3.596 2.061 5.029 0.899 5.19l-1.162 0.16s11.965 4.674 12.276-8.946z" fill="#84b719" stroke="#059036" stroke-width=".63815"/>
  <path d="m440.09 296.24s8.013 0.271 12.274-8.946" fill="none" stroke="#059036" stroke-width=".63815"/>
  <path d="m417.65 278.56s-6.658 11.026-1.557 12.433c5.098 1.404 5.419 0.281 5.098 1.404l-0.321 1.121s9.084-8.855-3.22-14.958z" fill="#c2d468" stroke="#059036" stroke-width=".63815"/>
  <path d="m420.95 293.47s3.476-7.155-3.223-14.958" fill="#c2d468" stroke="#059036" stroke-width=".63815"/>
  <path d="m441.68 284.59s-12.908-1.6-12.014 3.595c0.901 5.19 2.061 5.029 0.901 5.19l-1.161 0.16s11.966 4.673 12.274-8.945z" fill="#84b719" stroke="#059036" stroke-width=".63815"/>
  <path d="m429.49 293.58s8.015 0.271 12.275-8.947" fill="none" stroke="#059036" stroke-width=".63815"/>
  <path d="m437.34 294.47s-11.104-6.868-12.481-1.812c-1.378 5.053-0.249 5.396-1.378 5.053l-1.125-0.344s8.939 9.242 14.984-2.897z" fill="#09922f" stroke="#89ba1b" stroke-width=".63815"/>
  <path d="m422.41 297.45s7.198 3.616 14.986-2.899" fill="#09922f" stroke="#89ba1b" stroke-width=".63815"/>
  <path d="m429.64 279.14s-11.723 5.413-8.223 9.394 4.393 3.229 3.501 3.976l-0.893 0.748s12.553-2.281 5.615-14.118z" fill="#5aac32" stroke="#059036" stroke-width=".63815"/>
  <path d="m424.12 293.26s6.897-3.978 5.615-14.116" fill="#5aac32" stroke="#059036" stroke-width=".63815"/>
  <path d="m414.95 292.25s-6.656 11.027-1.553 12.434c5.097 1.404 5.418 0.282 5.097 1.404l-0.321 1.122s9.084-8.859-3.223-14.96z" fill="#c2d468" stroke="#059036" stroke-width=".63815"/>
  <path d="m418.25 307.16s3.474-7.155-3.225-14.959" fill="#c2d468" stroke="#059036" stroke-width=".63815"/>
  <path d="m434.64 308.16s-11.105-6.867-12.483-1.811c-1.376 5.054-0.248 5.397-1.376 5.054l-1.126-0.343s8.939 9.242 14.985-2.9z" fill="#09922f" stroke="#89ba1b" stroke-width=".63815"/>
  <path d="m419.71 311.14s7.2 3.614 14.987-2.899" fill="#09922f" stroke="#89ba1b" stroke-width=".63815"/>
  <path d="m426.94 292.83s-11.723 5.41-8.223 9.393 4.393 3.228 3.5 3.975l-0.894 0.747s12.555-2.28 5.617-14.115z" fill="#5aac32" stroke="#059036" stroke-width=".63815"/>
  <path d="m421.41 306.95s6.9-3.978 5.617-14.117" fill="#5aac32" stroke="#059036" stroke-width=".63815"/>
  <path d="m472.09 275.51s-6.555 11.089-1.439 12.447c5.112 1.356 5.42 0.232 5.112 1.356l-0.312 1.125s9.001-8.94-3.361-14.928z" fill="#c2d468" stroke="#059036" stroke-width=".63815"/>
  <path d="m475.53 290.38s3.41-7.187-3.361-14.929" fill="#c2d468" stroke="#059036" stroke-width=".63815"/>
  <path d="m496.19 281.31s-12.925-1.479-11.98 3.707c0.947 5.182 2.106 5.009 0.947 5.182l-1.16 0.171s12.009 4.563 12.193-9.06z" fill="#84b719" stroke="#059036" stroke-width=".63815"/>
  <path d="m484.08 290.42s8.019 0.198 12.192-9.059" fill="none" stroke="#059036" stroke-width=".63815"/>
  <path d="m484.09 275.98s-11.674 5.521-8.136 9.469c3.538 3.944 4.423 3.188 3.538 3.944l-0.886 0.756s12.531-2.396 5.484-14.169z" fill="#5aac32" stroke="#059036" stroke-width=".63815"/>
  <path d="m478.7 290.14s6.863-4.043 5.487-14.168" fill="#5aac32" stroke="#059036" stroke-width=".63815"/>
  <path d="m500.41 295.15s-12.922-1.479-11.978 3.708c0.946 5.181 2.108 5.01 0.946 5.181l-1.158 0.172s12.008 4.563 12.19-9.061z" fill="#84b719" stroke="#059036" stroke-width=".63815"/>
  <path d="m488.31 304.26s8.019 0.197 12.193-9.06" fill="none" stroke="#059036" stroke-width=".63815"/>
  <path d="m488.32 289.81s-11.672 5.521-8.134 9.468c3.535 3.945 4.422 3.188 3.535 3.945l-0.886 0.756s12.531-2.397 5.485-14.169z" fill="#5aac32" stroke="#059036" stroke-width=".63815"/>
  <path d="m482.93 303.98s6.862-4.041 5.485-14.168" fill="#5aac32" stroke="#059036" stroke-width=".63815"/>
  <path d="m457.12 284.64s-6.553 11.09-1.438 12.448c5.112 1.356 5.422 0.231 5.112 1.356l-0.31 1.125s9-8.939-3.364-14.929z" fill="#c2d468" stroke="#059036" stroke-width=".63815"/>
  <path d="m460.56 299.52s3.409-7.187-3.363-14.928" fill="#c2d468" stroke="#059036" stroke-width=".63815"/>
  <path d="m481.21 290.45s-12.923-1.479-11.979 3.706c0.946 5.182 2.108 5.01 0.946 5.182l-1.159 0.173s12.009 4.561 12.192-9.061z" fill="#84b719" stroke="#059036" stroke-width=".63815"/>
  <path d="m469.1 299.56s8.017 0.196 12.192-9.061" fill="none" stroke="#059036" stroke-width=".63815"/>
  <path d="m476.96 300.37s-11.166-6.766-12.498-1.694-0.198 5.398-1.328 5.066l-1.133-0.334s9.026 9.158 14.959-3.038z" fill="#09922f" stroke="#89ba1b" stroke-width=".63815"/>
  <path d="m462.06 303.48s7.232 3.549 14.959-3.038" fill="#09922f" stroke="#89ba1b" stroke-width=".63815"/>
  <path d="m469.11 285.11s-11.674 5.521-8.137 9.47c3.538 3.942 4.424 3.188 3.538 3.942l-0.887 0.756s12.533-2.396 5.486-14.168z" fill="#5aac32" stroke="#059036" stroke-width=".63815"/>
  <path d="m463.72 299.28s6.862-4.041 5.485-14.168" fill="#5aac32" stroke="#059036" stroke-width=".63815"/>
  <path d="m469.83 300.34s-6.553 11.09-1.438 12.448c5.11 1.355 5.421 0.232 5.11 1.355l-0.312 1.124s9.004-8.939-3.36-14.927z" fill="#c2d468" stroke="#059036" stroke-width=".63815"/>
  <path d="m473.28 315.21s3.408-7.186-3.363-14.928" fill="#c2d468" stroke="#059036" stroke-width=".63815"/>
  <path d="m493.93 306.14s-12.922-1.479-11.977 3.706c0.945 5.182 2.104 5.01 0.945 5.182l-1.159 0.172s12.007 4.563 12.191-9.06z" fill="#84b719" stroke="#059036" stroke-width=".63815"/>
  <path d="m481.82 315.25s8.018 0.199 12.191-9.06" fill="none" stroke="#059036" stroke-width=".63815"/>
  <path d="m489.68 316.06s-11.166-6.766-12.498-1.696-0.2 5.398-1.33 5.066l-1.131-0.334s9.025 9.16 14.959-3.036z" fill="#09922f" stroke="#89ba1b" stroke-width=".63815"/>
  <path d="m474.78 319.18s7.232 3.549 14.958-3.038" fill="#09922f" stroke="#89ba1b" stroke-width=".63815"/>
  <path d="m481.83 300.8s-11.673 5.522-8.136 9.471c3.538 3.944 4.424 3.188 3.538 3.944l-0.887 0.755s12.533-2.398 5.485-14.17z" fill="#5aac32" stroke="#059036" stroke-width=".63815"/>
  <path d="m476.44 314.97s6.861-4.042 5.483-14.169" fill="#5aac32" stroke="#059036" stroke-width=".63815"/>
  <path d="m460.56 296.97s-6.553 11.088-1.438 12.448c5.111 1.355 5.419 0.23 5.111 1.355l-0.312 1.125s9.002-8.941-3.361-14.928z" fill="#c2d468" stroke="#059036" stroke-width=".63815"/>
  <path d="m464 311.84s3.409-7.188-3.363-14.929" fill="#c2d468" stroke="#059036" stroke-width=".63815"/>
  <path d="m464.5 307.53s-11.165-6.766-12.499-1.695c-1.329 5.064-0.199 5.398-1.329 5.064l-1.131-0.332s9.025 9.158 14.959-3.037z" fill="#09922f" stroke="#89ba1b" stroke-width=".63815"/>
  <path d="m449.59 310.65s7.233 3.55 14.959-3.037" fill="#09922f" stroke="#89ba1b" stroke-width=".63815"/>
  <path d="m456.65 292.28s-11.674 5.521-8.135 9.469c3.536 3.944 4.422 3.188 3.536 3.944l-0.886 0.756s12.533-2.397 5.485-14.169z" fill="#5aac32" stroke="#059036" stroke-width=".63815"/>
  <path d="m451.26 306.44s6.863-4.042 5.484-14.168" fill="#5aac32" stroke="#059036" stroke-width=".63815"/>
  <path d="m463.87 315.48s-6.553 11.09-1.438 12.448c5.109 1.355 5.421 0.231 5.109 1.355l-0.309 1.125s9.001-8.938-3.362-14.928z" fill="#c2d468" stroke="#059036" stroke-width=".63815"/>
  <path d="m467.31 330.35s3.409-7.187-3.36-14.928" fill="#c2d468" stroke="#059036" stroke-width=".63815"/>
  <path d="m487.97 321.28s-12.923-1.479-11.981 3.708c0.948 5.182 2.106 5.009 0.948 5.182l-1.16 0.17s12.007 4.563 12.193-9.06z" fill="#84b719" stroke="#059036" stroke-width=".63815"/>
  <path d="m475.86 330.39s8.018 0.196 12.191-9.061" fill="none" stroke="#059036" stroke-width=".63815"/>
  <path d="m483.72 331.2s-11.166-6.764-12.499-1.694-0.199 5.399-1.331 5.066l-1.13-0.333s9.027 9.158 14.96-3.039z" fill="#09922f" stroke="#89ba1b" stroke-width=".63815"/>
  <path d="m468.81 334.32s7.233 3.551 14.958-3.037" fill="#09922f" stroke="#89ba1b" stroke-width=".63815"/>
  <path d="m449.78 318.2s-6.554 11.088-1.438 12.446c5.109 1.357 5.419 0.233 5.109 1.357l-0.311 1.124s9.001-8.94-3.36-14.927z" fill="#c2d468" stroke="#059036" stroke-width=".63815"/>
  <path d="m453.22 333.07s3.408-7.187-3.361-14.929" fill="#c2d468" stroke="#059036" stroke-width=".63815"/>
  <path d="m473.87 324s-12.921-1.479-11.978 3.707c0.946 5.183 2.107 5.009 0.946 5.183l-1.159 0.17s12.007 4.562 12.191-9.06z" fill="#84b719" stroke="#059036" stroke-width=".63815"/>
  <path d="m461.76 333.11s8.019 0.197 12.194-9.06" fill="none" stroke="#059036" stroke-width=".63815"/>
  <path d="m468.96 331.35s-11.167-6.765-12.498-1.695-0.198 5.397-1.329 5.066l-1.131-0.334s9.027 9.159 14.958-3.037z" fill="#09922f" stroke="#89ba1b" stroke-width=".63815"/>
  <path d="m454.06 334.46s7.232 3.549 14.957-3.038" fill="#09922f" stroke="#89ba1b" stroke-width=".63815"/>
  <path d="m452.42 307.34s-6.554 11.09-1.44 12.448 5.421 0.231 5.111 1.356l-0.31 1.124s9.002-8.94-3.361-14.928z" fill="#c2d468" stroke="#059036" stroke-width=".63815"/>
  <path d="m455.86 322.22s3.408-7.187-3.362-14.927" fill="#c2d468" stroke="#059036" stroke-width=".63815"/>
  <path d="m476.51 313.14s-12.924-1.478-11.979 3.707 2.106 5.01 0.947 5.183l-1.161 0.171s12.009 4.561 12.193-9.061z" fill="#84b719" stroke="#059036" stroke-width=".63815"/>
  <path d="m464.4 322.25s8.017 0.197 12.191-9.061" fill="none" stroke="#059036" stroke-width=".63815"/>
  <path d="m441.8 304.79s-6.555 11.088-1.44 12.447c5.111 1.356 5.422 0.232 5.111 1.356l-0.31 1.125s9.001-8.94-3.361-14.928z" fill="#c2d468" stroke="#059036" stroke-width=".63815"/>
  <path d="m445.24 319.66s3.409-7.187-3.364-14.927" fill="#c2d468" stroke="#059036" stroke-width=".63815"/>
  <path d="m465.89 310.59s-12.922-1.479-11.979 3.707c0.948 5.181 2.105 5.008 0.948 5.181l-1.161 0.171s12.01 4.562 12.192-9.059z" fill="#84b719" stroke="#059036" stroke-width=".63815"/>
  <path d="m453.78 319.7s8.018 0.196 12.193-9.061" fill="none" stroke="#059036" stroke-width=".63815"/>
  <path d="m461.64 320.51s-11.167-6.766-12.499-1.696-0.2 5.398-1.33 5.065l-1.132-0.332s9.028 9.158 14.961-3.037z" fill="#09922f" stroke="#89ba1b" stroke-width=".63815"/>
  <path d="m446.74 323.63s7.232 3.548 14.957-3.038" fill="#09922f" stroke="#89ba1b" stroke-width=".63815"/>
  <path d="m453.79 305.26s-11.675 5.521-8.137 9.47c3.539 3.942 4.423 3.187 3.539 3.942l-0.887 0.757s12.532-2.398 5.485-14.169z" fill="#5aac32" stroke="#059036" stroke-width=".63815"/>
  <path d="m448.4 319.42s6.86-4.041 5.484-14.168" fill="#5aac32" stroke="#059036" stroke-width=".63815"/>
  <path d="m439.22 318.5s-6.554 11.088-1.439 12.447c5.112 1.356 5.422 0.231 5.112 1.356l-0.312 1.125s9.003-8.941-3.361-14.928z" fill="#c2d468" stroke="#059036" stroke-width=".63815"/>
  <path d="m442.66 333.38s3.41-7.187-3.363-14.929" fill="#c2d468" stroke="#059036" stroke-width=".63815"/>
  <path d="m459.07 334.22s-11.167-6.765-12.499-1.696-0.199 5.399-1.328 5.067l-1.132-0.333s9.027 9.159 14.959-3.038z" fill="#09922f" stroke="#89ba1b" stroke-width=".63815"/>
  <path d="m444.16 337.34s7.234 3.548 14.959-3.038" fill="#09922f" stroke="#89ba1b" stroke-width=".63815"/>
  <path d="m451.22 318.97s-11.672 5.521-8.135 9.468c3.538 3.945 4.423 3.188 3.538 3.945l-0.888 0.755s12.532-2.396 5.485-14.168z" fill="#5aac32" stroke="#059036" stroke-width=".63815"/>
  <path d="m445.83 333.14s6.861-4.042 5.485-14.169" fill="#5aac32" stroke="#059036" stroke-width=".63815"/>
  <path d="m506.85 298.82s-11.495 5.812-7.918 9.712 4.444 3.114 3.577 3.896l-0.868 0.781s12.399-2.686 5.209-14.389z" fill="#c2d468" stroke="#059036" stroke-width=".63815"/>
  <path d="m501.74 313.21s6.743-4.218 5.208-14.387" fill="#c2d468" stroke="#059036" stroke-width=".63815"/>
  <path d="m524.02 316.69s-10.092-8.208-12.089-3.331c-1.994 4.877-0.924 5.356-1.994 4.877l-1.07-0.48s7.661 10.312 15.153-1.066z" fill="#84b719" stroke="#059036" stroke-width=".63815"/>
  <path d="m508.92 317.84s6.647 4.486 15.149-1.065" fill="none" stroke="#059036" stroke-width=".63815"/>
  <path d="m516.7 305.68s-12.809-1.636-11.955 3.597 2.009 5.068 0.855 5.228l-1.153 0.158s11.849 4.731 12.253-8.983z" fill="#5aac32" stroke="#059036" stroke-width=".63815"/>
  <path d="m504.53 314.71s7.958 0.292 12.252-8.982" fill="#5aac32" stroke="#059036" stroke-width=".63815"/>
  <path d="m520.14 330.62s-10.093-8.207-12.091-3.328c-1.993 4.875-0.923 5.355-1.993 4.875l-1.069-0.479s7.659 10.312 15.153-1.068z" fill="#84b719" stroke="#059036" stroke-width=".63815"/>
  <path d="m505.03 331.78s6.649 4.484 15.153-1.067" fill="none" stroke="#059036" stroke-width=".63815"/>
  <path d="m512.81 319.61s-12.81-1.637-11.954 3.596c0.855 5.228 2.009 5.069 0.855 5.228l-1.153 0.16s11.848 4.73 12.252-8.984z" fill="#5aac32" stroke="#059036" stroke-width=".63815"/>
  <path d="m500.64 328.65s7.959 0.291 12.252-8.983" fill="#5aac32" stroke="#059036" stroke-width=".63815"/>
  <path d="m489.31 298.46s-11.495 5.813-7.917 9.713 4.442 3.114 3.575 3.896l-0.867 0.78s12.399-2.685 5.209-14.389z" fill="#c2d468" stroke="#059036" stroke-width=".63815"/>
  <path d="m484.2 312.84s6.742-4.219 5.206-14.389" fill="#c2d468" stroke="#059036" stroke-width=".63815"/>
  <path d="m506.49 316.32s-10.093-8.208-12.09-3.329c-1.993 4.875-0.923 5.354-1.993 4.875l-1.071-0.48s7.661 10.312 15.154-1.066z" fill="#84b719" stroke="#059036" stroke-width=".63815"/>
  <path d="m491.38 317.47s6.648 4.485 15.152-1.066" fill="none" stroke="#059036" stroke-width=".63815"/>
  <path d="m497.56 322.39s-5.764-11.713-9.616-8.159-3.077 4.439-3.85 3.552l-0.772-0.891s2.67 12.578 14.238 5.498z" fill="#09922f" stroke="#89ba1b" stroke-width=".63815"/>
  <path d="m483.33 316.99s4.182 6.885 14.24 5.498" fill="#09922f" stroke="#89ba1b" stroke-width=".63815"/>
  <path d="m499.17 305.31s-12.81-1.637-11.954 3.596c0.854 5.228 2.008 5.068 0.854 5.228l-1.153 0.16s11.85 4.732 12.253-8.984z" fill="#5aac32" stroke="#059036" stroke-width=".63815"/>
  <path d="m487 314.34s7.959 0.291 12.254-8.982" fill="#5aac32" stroke="#059036" stroke-width=".63815"/>
  <path d="m491.57 318.53s-11.494 5.813-7.915 9.713 4.442 3.115 3.575 3.896l-0.868 0.779s12.399-2.685 5.208-14.388z" fill="#c2d468" stroke="#059036" stroke-width=".63815"/>
  <path d="m486.46 332.91s6.743-4.22 5.206-14.388" fill="#c2d468" stroke="#059036" stroke-width=".63815"/>
  <path d="m508.75 336.39s-10.091-8.207-12.087-3.328c-1.995 4.874-0.926 5.354-1.995 4.874l-1.07-0.479s7.66 10.311 15.152-1.067z" fill="#84b719" stroke="#059036" stroke-width=".63815"/>
  <path d="m493.64 337.54s6.647 4.485 15.151-1.065" fill="none" stroke="#059036" stroke-width=".63815"/>
  <path d="m499.82 342.46s-5.762-11.713-9.616-8.161-3.074 4.441-3.848 3.552l-0.772-0.89s2.669 12.58 14.236 5.499z" fill="#09922f" stroke="#89ba1b" stroke-width=".63815"/>
  <path d="m485.59 337.06s4.182 6.886 14.24 5.498" fill="#09922f" stroke="#89ba1b" stroke-width=".63815"/>
  <path d="m501.43 325.38s-12.809-1.637-11.954 3.595 2.008 5.067 0.854 5.228l-1.154 0.158s11.85 4.733 12.254-8.981z" fill="#5aac32" stroke="#059036" stroke-width=".63815"/>
  <path d="m489.26 334.42s7.958 0.291 12.255-8.983" fill="#5aac32" stroke="#059036" stroke-width=".63815"/>
  <path d="m485.57 310.69s-11.494 5.812-7.917 9.713 4.444 3.114 3.576 3.895l-0.868 0.781s12.399-2.685 5.209-14.389z" fill="#c2d468" stroke="#059036" stroke-width=".63815"/>
  <path d="m480.46 325.07s6.743-4.219 5.208-14.389" fill="#c2d468" stroke="#059036" stroke-width=".63815"/>
  <path d="m483.2 321.71s-5.763-11.713-9.618-8.16c-3.848 3.552-3.074 4.44-3.848 3.552l-0.772-0.889s2.672 12.577 14.238 5.497z" fill="#09922f" stroke="#89ba1b" stroke-width=".63815"/>
  <path d="m468.97 316.31s4.18 6.886 14.239 5.499" fill="#09922f" stroke="#89ba1b" stroke-width=".63815"/>
  <path d="m484.81 304.63s-12.81-1.637-11.955 3.595 2.01 5.068 0.856 5.229l-1.153 0.159s11.849 4.731 12.252-8.983z" fill="#5aac32" stroke="#059036" stroke-width=".63815"/>
  <path d="m472.64 313.66s7.958 0.29 12.254-8.983" fill="#5aac32" stroke="#059036" stroke-width=".63815"/>
  <path d="m478.4 328.07s-11.496 5.812-7.918 9.712 4.442 3.115 3.575 3.896l-0.867 0.781s12.398-2.684 5.21-14.389z" fill="#c2d468" stroke="#059036" stroke-width=".63815"/>
  <path d="m473.28 342.46s6.741-4.219 5.207-14.388" fill="#c2d468" stroke="#059036" stroke-width=".63815"/>
  <path d="m495.57 345.94s-10.092-8.208-12.09-3.33c-1.994 4.876-0.923 5.355-1.994 4.876l-1.07-0.479s7.66 10.311 15.154-1.067z" fill="#84b719" stroke="#059036" stroke-width=".63815"/>
  <path d="m480.46 347.09s6.65 4.485 15.155-1.066" fill="none" stroke="#059036" stroke-width=".63815"/>
  <path d="m486.65 352.01s-5.764-11.714-9.617-8.161-3.076 4.44-3.849 3.552l-0.775-0.889s2.673 12.578 14.241 5.498z" fill="#09922f" stroke="#89ba1b" stroke-width=".63815"/>
  <path d="m472.41 346.61s4.181 6.886 14.239 5.497" fill="#09922f" stroke="#89ba1b" stroke-width=".63815"/>
  <path d="m465.05 322.77s-11.494 5.813-7.916 9.713 4.443 3.114 3.576 3.896l-0.869 0.78s12.399-2.685 5.209-14.389z" fill="#c2d468" stroke="#059036" stroke-width=".63815"/>
  <path d="m459.94 337.15s6.742-4.219 5.208-14.39" fill="#c2d468" stroke="#059036" stroke-width=".63815"/>
  <path d="m482.23 340.64s-10.091-8.207-12.089-3.328c-1.993 4.875-0.923 5.355-1.993 4.875l-1.068-0.48s7.659 10.31 15.15-1.067z" fill="#84b719" stroke="#059036" stroke-width=".63815"/>
  <path d="m467.12 341.79s6.65 4.485 15.152-1.066" fill="none" stroke="#059036" stroke-width=".63815"/>
  <path d="m474.14 344.18s-5.762-11.716-9.614-8.163-3.076 4.441-3.85 3.553l-0.773-0.89s2.669 12.58 14.237 5.5z" fill="#09922f" stroke="#89ba1b" stroke-width=".63815"/>
  <path d="m459.9 338.78s4.182 6.885 14.24 5.498" fill="#09922f" stroke="#89ba1b" stroke-width=".63815"/>
  <path d="m473.13 315.04s-11.497 5.813-7.919 9.713 4.442 3.115 3.576 3.896l-0.867 0.779s12.398-2.684 5.21-14.388z" fill="#c2d468" stroke="#059036" stroke-width=".63815"/>
  <path d="m468.01 329.43s6.744-4.22 5.208-14.388" fill="#c2d468" stroke="#059036" stroke-width=".63815"/>
  <path d="m490.3 332.91s-10.091-8.207-12.088-3.328c-1.994 4.875-0.924 5.354-1.994 4.875l-1.069-0.479s7.658 10.31 15.151-1.068z" fill="#84b719" stroke="#059036" stroke-width=".63815"/>
  <path d="m475.19 334.06s6.648 4.484 15.152-1.066" fill="none" stroke="#059036" stroke-width=".63815"/>
  <path d="m465.55 307.17s-11.495 5.813-7.917 9.712c3.573 3.896 4.442 3.115 3.573 3.896l-0.865 0.78s12.397-2.685 5.209-14.388z" fill="#c2d468" stroke="#059036" stroke-width=".63815"/>
  <path d="m460.44 321.56s6.745-4.219 5.208-14.388" fill="#c2d468" stroke="#059036" stroke-width=".63815"/>
  <path d="m482.73 325.04s-10.09-8.208-12.09-3.329c-1.992 4.875-0.924 5.354-1.992 4.875l-1.071-0.48s7.662 10.312 15.153-1.066z" fill="#84b719" stroke="#059036" stroke-width=".63815"/>
  <path d="m467.62 326.19s6.648 4.485 15.152-1.066" fill="none" stroke="#059036" stroke-width=".63815"/>
  <path d="m473.8 331.11s-5.764-11.714-9.616-8.161-3.074 4.442-3.85 3.552l-0.773-0.89s2.671 12.579 14.239 5.499z" fill="#09922f" stroke="#89ba1b" stroke-width=".63815"/>
  <path d="m459.57 325.71s4.181 6.885 14.239 5.497" fill="#09922f" stroke="#89ba1b" stroke-width=".63815"/>
  <path d="m475.41 314.03s-12.809-1.635-11.954 3.597 2.009 5.067 0.855 5.228l-1.155 0.16s11.85 4.73 12.254-8.985z" fill="#5aac32" stroke="#059036" stroke-width=".63815"/>
  <path d="m463.24 323.06s7.958 0.291 12.251-8.982" fill="#5aac32" stroke="#059036" stroke-width=".63815"/>
  <path d="m456 317.34s-11.494 5.812-7.917 9.713 4.442 3.114 3.576 3.896l-0.868 0.78s12.4-2.686 5.209-14.389z" fill="#c2d468" stroke="#059036" stroke-width=".63815"/>
  <path d="m450.88 331.72s6.743-4.22 5.208-14.39" fill="#c2d468" stroke="#059036" stroke-width=".63815"/>
  <path d="m464.25 341.28s-5.765-11.714-9.616-8.162-3.077 4.442-3.85 3.554l-0.773-0.89s2.671 12.579 14.239 5.498z" fill="#09922f" stroke="#89ba1b" stroke-width=".63815"/>
  <path d="m450.01 335.88s4.183 6.885 14.239 5.498" fill="#09922f" stroke="#89ba1b" stroke-width=".63815"/>
  <path d="m465.85 324.2s-12.809-1.637-11.955 3.595 2.009 5.067 0.854 5.228l-1.154 0.16s11.851 4.731 12.255-8.983z" fill="#5aac32" stroke="#059036" stroke-width=".63815"/>
  <path d="m453.68 333.23s7.958 0.292 12.251-8.982" fill="#5aac32" stroke="#059036" stroke-width=".63815"/>
  <path d="m246.5 297.33s9.624 8.562 11.939 3.803 1.267-5.276 2.312-4.756l1.044 0.521s-7.046-10.551-15.295 0.432z" fill="#c2d468" stroke="#059036" stroke-width=".63815"/>
  <path d="m261.76 296.81s-6.399-4.725-15.296 0.432" fill="#c2d468" stroke="#059036" stroke-width=".63815"/>
  <path d="m256.82 274.8s-3.933 12.399 1.335 12.468 5.321-1.104 5.269 0.065l-0.055 1.172s6.785-10.909-6.549-13.705z" fill="#84b719" stroke="#059036" stroke-width=".63815"/>
  <path d="m263.43 288.43s1.735-7.831-6.55-13.703" fill="none" stroke="#059036" stroke-width=".63815"/>
  <path d="m249.26 285.65s3.177 12.517 7.731 9.803 3.978-3.729 4.547-2.713l0.571 1.014s0.057-12.759-12.849-8.104z" fill="#5aac32" stroke="#059036" stroke-width=".63815"/>
  <path d="m262.13 293.66s-2.649-7.51-12.852-8.104" fill="#5aac32" stroke="#059036" stroke-width=".63815"/>
  <path d="m271.21 273.31s-3.931 12.399 1.339 12.468 5.32-1.104 5.266 0.065l-0.054 1.171s6.785-10.908-6.551-13.704z" fill="#84b719" stroke="#059036" stroke-width=".63815"/>
  <path d="m277.82 286.94s1.734-7.832-6.551-13.705" fill="none" stroke="#059036" stroke-width=".63815"/>
  <path d="m263.65 284.16s3.176 12.517 7.729 9.803 3.979-3.729 4.549-2.713l0.572 1.013s0.055-12.756-12.85-8.103z" fill="#5aac32" stroke="#059036" stroke-width=".63815"/>
  <path d="m276.52 292.17s-2.647-7.511-12.851-8.103" fill="#5aac32" stroke="#059036" stroke-width=".63815"/>
  <path d="m252.59 313.78s9.626 8.563 11.941 3.803c2.313-4.755 1.268-5.275 2.313-4.755l1.043 0.52s-7.046-10.549-15.297 0.432z" fill="#c2d468" stroke="#059036" stroke-width=".63815"/>
  <path d="m267.85 313.26s-6.4-4.723-15.296 0.435" fill="#c2d468" stroke="#059036" stroke-width=".63815"/>
  <path d="m262.91 291.25s-3.932 12.399 1.338 12.469 5.319-1.105 5.267 0.065l-0.054 1.172s6.782-10.91-6.551-13.706z" fill="#84b719" stroke="#059036" stroke-width=".63815"/>
  <path d="m269.52 304.88s1.735-7.831-6.551-13.704" fill="none" stroke="#059036" stroke-width=".63815"/>
  <path d="m271.83 297.32s-8.783 9.659-4.063 11.94 5.258 1.232 4.716 2.277l-0.544 1.045s10.722-7.098-0.109-15.262z" fill="#09922f" stroke="#89ba1b" stroke-width=".63815"/>
  <path d="m272.03 312.55s4.872-6.416-0.109-15.264" fill="#09922f" stroke="#89ba1b" stroke-width=".63815"/>
  <path d="m255.35 302.1s3.176 12.517 7.73 9.802 3.978-3.727 4.549-2.713l0.571 1.016s0.055-12.76-12.85-8.105z" fill="#5aac32" stroke="#059036" stroke-width=".63815"/>
  <path d="m268.22 310.11s-2.648-7.511-12.852-8.104" fill="#5aac32" stroke="#059036" stroke-width=".63815"/>
  <path d="m270.43 304.32s9.624 8.56 11.938 3.801c2.313-4.755 1.27-5.275 2.313-4.755l1.044 0.521s-7.047-10.55-15.295 0.433z" fill="#c2d468" stroke="#059036" stroke-width=".63815"/>
  <path d="m285.69 303.8s-6.398-4.726-15.295 0.433" fill="#c2d468" stroke="#059036" stroke-width=".63815"/>
  <path d="m280.75 281.78s-3.932 12.397 1.338 12.466 5.32-1.104 5.266 0.067l-0.054 1.17s6.784-10.907-6.55-13.703z" fill="#84b719" stroke="#059036" stroke-width=".63815"/>
  <path d="m287.37 295.42s1.734-7.83-6.55-13.705" fill="none" stroke="#059036" stroke-width=".63815"/>
  <path d="m289.67 287.86s-8.783 9.658-4.064 11.94 5.259 1.231 4.717 2.277l-0.544 1.045s10.721-7.098-0.109-15.262z" fill="#09922f" stroke="#89ba1b" stroke-width=".63815"/>
  <path d="m289.87 303.08s4.873-6.416-0.108-15.264" fill="#09922f" stroke="#89ba1b" stroke-width=".63815"/>
  <path d="m273.2 292.64s3.175 12.516 7.73 9.801c4.55-2.713 3.978-3.729 4.55-2.713l0.571 1.015s0.054-12.761-12.851-8.103z" fill="#5aac32" stroke="#059036" stroke-width=".63815"/>
  <path d="m286.06 300.64s-2.648-7.51-12.852-8.104" fill="#5aac32" stroke="#059036" stroke-width=".63815"/>
  <path d="m265.34 312.77s9.623 8.562 11.94 3.802c2.312-4.756 1.267-5.275 2.312-4.756l1.044 0.521s-7.045-10.549-15.296 0.433z" fill="#c2d468" stroke="#059036" stroke-width=".63815"/>
  <path d="m280.6 312.25s-6.399-4.726-15.297 0.434" fill="#c2d468" stroke="#059036" stroke-width=".63815"/>
  <path d="m276.47 310.93s-8.783 9.658-4.063 11.94c4.715 2.276 5.259 1.23 4.715 2.276l-0.542 1.046s10.719-7.099-0.11-15.262z" fill="#09922f" stroke="#89ba1b" stroke-width=".63815"/>
  <path d="m276.66 326.16s4.874-6.416-0.107-15.264" fill="#09922f" stroke="#89ba1b" stroke-width=".63815"/>
  <path d="m259.99 315.71s3.175 12.515 7.73 9.802c4.55-2.714 3.977-3.729 4.55-2.714l0.57 1.015s0.056-12.76-12.85-8.103z" fill="#5aac32" stroke="#059036" stroke-width=".63815"/>
  <path d="m272.86 323.72s-2.65-7.511-12.851-8.104" fill="#5aac32" stroke="#059036" stroke-width=".63815"/>
  <path d="m284.14 313.07s9.624 8.562 11.939 3.803c2.312-4.755 1.27-5.274 2.312-4.755l1.045 0.52s-7.044-10.549-15.296 0.432z" fill="#c2d468" stroke="#059036" stroke-width=".63815"/>
  <path d="m299.4 312.55s-6.399-4.725-15.295 0.433" fill="#c2d468" stroke="#059036" stroke-width=".63815"/>
  <path d="m294.46 290.54s-3.932 12.399 1.338 12.469 5.32-1.105 5.268 0.066l-0.055 1.171s6.785-10.908-6.551-13.706z" fill="#84b719" stroke="#059036" stroke-width=".63815"/>
  <path d="m301.08 304.17s1.734-7.832-6.551-13.706" fill="none" stroke="#059036" stroke-width=".63815"/>
  <path d="m303.39 296.62s-8.784 9.66-4.064 11.94 5.26 1.231 4.716 2.276l-0.542 1.048s10.718-7.098-0.11-15.264z" fill="#09922f" stroke="#89ba1b" stroke-width=".63815"/>
  <path d="m303.58 311.84s4.874-6.416-0.107-15.263" fill="#09922f" stroke="#89ba1b" stroke-width=".63815"/>
  <path d="m284.11 327.43s9.624 8.562 11.94 3.801c2.311-4.754 1.267-5.274 2.311-4.754l1.044 0.521s-7.045-10.552-15.295 0.432z" fill="#c2d468" stroke="#059036" stroke-width=".63815"/>
  <path d="m299.37 326.91s-6.399-4.724-15.297 0.435" fill="#c2d468" stroke="#059036" stroke-width=".63815"/>
  <path d="m294.43 304.9s-3.933 12.399 1.338 12.468 5.32-1.105 5.267 0.065l-0.054 1.17s6.782-10.909-6.551-13.703z" fill="#84b719" stroke="#059036" stroke-width=".63815"/>
  <path d="m301.04 318.53s1.734-7.832-6.551-13.706" fill="none" stroke="#059036" stroke-width=".63815"/>
  <path d="m300.7 311.13s-8.785 9.658-4.065 11.938 5.259 1.232 4.716 2.277l-0.543 1.046s10.721-7.098-0.108-15.261z" fill="#09922f" stroke="#89ba1b" stroke-width=".63815"/>
  <path d="m300.89 326.35s4.871-6.415-0.108-15.264" fill="#09922f" stroke="#89ba1b" stroke-width=".63815"/>
  <path d="m273.96 322.75s9.625 8.563 11.94 3.804c2.313-4.755 1.269-5.275 2.313-4.755l1.043 0.52s-7.046-10.55-15.296 0.431z" fill="#c2d468" stroke="#059036" stroke-width=".63815"/>
  <path d="m289.22 322.24s-6.398-4.726-15.295 0.433" fill="#c2d468" stroke="#059036" stroke-width=".63815"/>
  <path d="m284.28 300.22s-3.933 12.399 1.339 12.468 5.319-1.104 5.266 0.066-0.054 1.171-0.054 1.171 6.783-10.908-6.551-13.705z" fill="#84b719" stroke="#059036" stroke-width=".63815"/>
  <path d="m290.9 313.86s1.733-7.831-6.551-13.704" fill="none" stroke="#059036" stroke-width=".63815"/>
  <path d="m269.42 332.69s9.625 8.562 11.938 3.803c2.313-4.754 1.27-5.275 2.313-4.754l1.044 0.52s-7.045-10.549-15.295 0.431z" fill="#c2d468" stroke="#059036" stroke-width=".63815"/>
  <path d="m284.67 332.17s-6.398-4.727-15.295 0.433" fill="#c2d468" stroke="#059036" stroke-width=".63815"/>
  <path d="m279.74 310.16s-3.934 12.398 1.337 12.469 5.319-1.105 5.266 0.065l-0.054 1.171s6.785-10.909-6.549-13.705z" fill="#84b719" stroke="#059036" stroke-width=".63815"/>
  <path d="m286.35 323.79s1.733-7.83-6.551-13.704" fill="none" stroke="#059036" stroke-width=".63815"/>
  <path d="m288.66 316.23s-8.784 9.66-4.065 11.939 5.261 1.23 4.717 2.277l-0.544 1.045s10.721-7.097-0.108-15.261z" fill="#09922f" stroke="#89ba1b" stroke-width=".63815"/>
  <path d="m288.85 331.46s4.871-6.415-0.11-15.263" fill="#09922f" stroke="#89ba1b" stroke-width=".63815"/>
  <path d="m272.18 321.01s3.177 12.516 7.731 9.802 3.977-3.728 4.55-2.713l0.571 1.016s0.055-12.762-12.852-8.105z" fill="#5aac32" stroke="#059036" stroke-width=".63815"/>
  <path d="m285.04 329.01s-2.647-7.509-12.851-8.103" fill="#5aac32" stroke="#059036" stroke-width=".63815"/>
  <path d="m282.38 337.85s9.624 8.561 11.94 3.802c2.311-4.755 1.268-5.274 2.311-4.755l1.045 0.521s-7.045-10.55-15.296 0.432z" fill="#c2d468" stroke="#059036" stroke-width=".63815"/>
  <path d="m297.64 337.32s-6.399-4.724-15.297 0.434" fill="#c2d468" stroke="#059036" stroke-width=".63815"/>
  <path d="m301.62 321.39s-8.783 9.661-4.063 11.941 5.259 1.231 4.717 2.276l-0.544 1.046s10.721-7.097-0.11-15.263z" fill="#09922f" stroke="#89ba1b" stroke-width=".63815"/>
  <path d="m301.82 336.61s4.872-6.416-0.107-15.263" fill="#09922f" stroke="#89ba1b" stroke-width=".63815"/>
  <path d="m285.14 326.16s3.176 12.518 7.73 9.803 3.977-3.729 4.55-2.714l0.57 1.016s0.056-12.76-12.85-8.105z" fill="#5aac32" stroke="#059036" stroke-width=".63815"/>
  <path d="m298.01 334.18s-2.648-7.512-12.851-8.104" fill="#5aac32" stroke="#059036" stroke-width=".63815"/>
 </g>
</svg>
