<?xml version="1.0" encoding="UTF-8"?>
<!DOCTYPE svg  PUBLIC '-//W3C//DTD SVG 1.0//EN'  'http://www.w3.org/TR/2001/REC-SVG-20010904/DTD/svg10.dtd'>
<svg width="18.179mm" height="25.856mm" clip-rule="evenodd" fill-rule="evenodd" image-rendering="optimizeQuality" shape-rendering="geometricPrecision" text-rendering="geometricPrecision" version="1.0" viewBox="0 0 166 236" xml:space="preserve" xmlns="http://www.w3.org/2000/svg">
 <defs>
  <style type="text/css">
   <![CDATA[
    .str0 {stroke:#2B2A29;stroke-width:0.044775}
    .fil0 {fill:#2B2A29}
    .fil1 {fill:#5B5B5B}
    .fil2 {fill:#86776F}
    .fil6 {fill:#EF7F1A}
    .fil3 {fill:#FFED00}
    .fil5 {fill:#534842}
    .fil4 {fill:#FEFEFE;fill-opacity:0.180392}
   ]]>
  </style>
 </defs>
   <path class="fil0 str0" d="m20 124c6 35 32 93 59 93s54-58 65-94c10-35 2-48-18-55-20-6-53-6-76 0-23 7-36 20-30 56z"/>
   <path class="fil0 str0" d="m79 15c42 1 38 6 78-14 3-2 1 0-1 6-3 5-6 13-8 19 4 7 6 16 4 26-4 35-32 55-72 55s-66-25-66-58c0-9 1-17 4-24-2-6-5-13-7-18-2-6-4-8-1-6 34 17 25 14 69 14z"/>
   <ellipse class="fil1" cx="115" cy="43" rx="34" ry="28"/>
   <ellipse class="fil1" cx="51" cy="43" rx="34" ry="28"/>
    <path class="fil2" d="m64 48c-1-9-11-23-17-24-7 0-11 1-14 2 10-12 42-9 31 22z"/>
    <path class="fil2" d="m50 20c9 0 16 7 16 16 0 8-7 15-16 15s-16-7-16-15c0-9 7-16 16-16z"/>
    <circle class="fil3" cx="50" cy="36" r="15"/>
    <circle class="fil0" cx="50" cy="36" r="12"/>
    <path class="fil4" d="m50 24c6 0 11 4 12 11-3-2-6-4-10-4-5-1-10-1-13 1 1-5 6-8 11-8z"/>
   <path class="fil5" d="m83 2c42 1 34 19 74-1 3-2 1 0-1 6-3 5-6 13-8 19-30-17-60-16-65 26-8-36-28-42-65-27-1-3-5-14-7-18s-4-8-1-6c34 17 29 1 73 1z"/>
    <path class="fil2" d="m97 48c2-9 11-23 18-24 6 0 10 1 13 2-10-12-41-9-31 22z"/>
    <path class="fil2" d="m111 20c-8 0-16 7-16 16 0 8 8 15 16 15 9 0 16-7 16-15 0-9-7-16-16-16z"/>
    <circle class="fil3" cx="111" cy="36" r="15"/>
    <circle class="fil0" cx="111" cy="36" r="12"/>
    <path class="fil4" d="m111 24c-6 0-11 4-11 11 2-2 6-4 9-4 5-1 10-1 14 1-2-5-6-8-12-8z"/>
   <path class="fil2" d="m137 8c2 0 4-1 7-1 6-2 11-6 15-7 0 0-1 2-3 7-2 4-6 13-8 19-30-17-60-16-65 26-8-36-28-42-65-27-1-3-5-14-7-18s-4-8-1-6c3 1 5 2 7 3 13 6 40 12 69 11 18 0 37-3 51-7z"/>
   <path class="fil6" d="m72 55c4 10 8 20 11 20 4 0 7-10 11-20-4-2-8-3-11-3-4 0-8 2-11 3z"/>
    <ellipse class="fil0" transform="matrix(.081037 .0083059 -.0068768 .067094 58.423 210.97)" rx="78" ry="190"/>
    <ellipse class="fil0" transform="matrix(.055728 .034546 -.038595 .049143 48.723 221.74)" rx="78" ry="190"/>
    <ellipse class="fil0" transform="matrix(-.062493 .02059 .025605 .056721 64.68 223.34)" rx="78" ry="190"/>
    <ellipse class="fil0" transform="matrix(.067066 .0068739 .0061583 -.060084 56.549 224.25)" rx="78" ry="190"/>
    <ellipse class="fil0" transform="matrix(-.081037 .0083059 .0068768 .067094 99.078 211.56)" rx="78" ry="190"/>
    <ellipse class="fil0" transform="matrix(-.055728 .034546 .038595 .049143 108.78 222.33)" rx="78" ry="190"/>
    <ellipse class="fil0" transform="matrix(.062493 .02059 -.025605 .056721 92.821 223.93)" rx="78" ry="190"/>
    <ellipse class="fil0" transform="matrix(-.067066 .0068739 -.0061583 -.060084 100.95 224.84)" rx="78" ry="190"/>
   <path class="fil2" d="m27 89c-4-6-9 1-15 13-6 13-13 31-12 49s9 34 17 42c7 8 14 6 18 2 5-5 7-13 11-15 3-3 8 0 9-2s-3-9-7-18c-4-8-8-18-11-33-3-14-6-32-10-38z"/>
   <path class="fil2" d="m139 83c4-5 9 1 15 14 6 12 13 31 12 48-1 18-9 35-16 43-8 7-15 6-19 1-5-4-7-12-10-15-4-2-9 0-10-2 0-2 4-9 7-17 4-9 8-19 11-33s6-33 10-39z"/>
</svg>
