<?xml version="1.0" encoding="UTF-8"?>
<svg viewBox="0 0 270 585" xmlns="http://www.w3.org/2000/svg">
 <defs>
  <filter id="f">
   <feGaussianBlur stdDeviation="3.76611"/>
  </filter>
  <radialGradient id="e" cx="15.116" cy="63.965" r="12.289" gradientTransform="scale(1.644 .60828)" gradientUnits="userSpaceOnUse">
   <stop offset="0"/>
   <stop stop-opacity="0" offset="1"/>
  </radialGradient>
  <radialGradient id="d" cx="20.181" cy="14.198" r="20.245" gradientUnits="userSpaceOnUse">
   <stop stop-color="#d3e9ff" offset="0"/>
   <stop stop-color="#d3e9ff" offset=".15517"/>
   <stop stop-color="#4074ae" offset=".75"/>
   <stop stop-color="#36486c" offset="1"/>
  </radialGradient>
  <radialGradient id="c" cx="11.827" cy="10.476" r="32.665" gradientTransform="scale(1.1795 .84779)" gradientUnits="userSpaceOnUse">
   <stop stop-color="#fff" offset="0"/>
   <stop stop-color="#fff" stop-opacity="0" offset="1"/>
  </radialGradient>
  <radialGradient id="a" cx="19.32" cy="16.865" r="42.191" fx="19.631" fy="17.178" gradientUnits="userSpaceOnUse">
   <stop stop-color="#fff" offset="0"/>
   <stop stop-color="#fefefe" offset=".37931"/>
   <stop stop-color="#1d1d1d" offset="1"/>
  </radialGradient>
  <radialGradient id="b" cx="18.395" cy="11.786" r="29.379" gradientUnits="userSpaceOnUse">
   <stop stop-color="#fff" offset="0"/>
   <stop stop-color="#fff" stop-opacity=".16495" offset="1"/>
  </radialGradient>
 </defs>
 <g transform="matrix(7.5293 0 0 7.5293 -57.219 236.48)">
  <path transform="matrix(.75909 0 0 .87785 5.7745 4.6058)" d="m45.053 38.909c0 4.1284-9.0452 7.4751-20.203 7.4751s-20.203-3.3467-20.203-7.4751 9.0452-7.4751 20.203-7.4751 20.203 3.3467 20.203 7.4751z" fill="url(#e)"/>
  <path d="m37.536 19.442c0 7.2288-5.8602 13.089-13.088 13.089s-13.088-5.8602-13.088-13.089 5.8599-13.088 13.088-13.088 13.088 5.8595 13.088 13.088z" fill="url(#d)" stroke="#39396c" stroke-width="2"/>
  <path transform="matrix(.56424 0 0 .67497 14.538 3.5898)" d="m30.709 15.271c0 5.1326-5.7889 9.2934-12.93 9.2934s-12.93-4.1608-12.93-9.2934 5.7889-9.2934 12.93-9.2934 12.93 4.1608 12.93 9.2934z" fill="url(#c)" opacity=".42159"/>
  <g transform="matrix(.66307 0 0 .66307 7.9464 3.747)" fill-opacity=".71345">
   <path d="m44.0713,20.7144 0,0-.5449.6172c-.334-.3936-.709-.7246-1.0898-1.0703l-.8359.123-.7637-.8633v1.0684l.6543.4951 .4355.4932 .582-.6582c.1465.2744.291.5488.4365.8232v.8223l-.6553.7402-1.1992.8232-.9082.9063-.582-.6602 .291-.7402-.5811-.6582-.9814-2.0977-.8359-.9453-.2188.2461 .3281,1.1934 .6172.6992c.3525,1.0176.7012,1.9902 1.1641,2.9629 .7178,0 1.3945-.0762 2.1074-.166v.5762l-.8721,2.1392-.7998.9043-.6543,1.4004v2.3027l.2188.9063-.3633.4102-.8008.4941-.8359.6992 .6914.7813-.9453.8242 .1816.5332-1.418,1.6055h-.9443l-.7998.4941h-.5098v-.6582l-.2168-1.3184c-.2813-.8262-.5742-1.6465-.8721-2.4668 0-.6055.0361-1.2051.0723-1.8105l.3643-.8223-.5098-.9883 .0371-1.3574-.6914-.7813 .3457-1.1309-.5625-.6382h-.9824l-.3271-.3701-.9814.6177-.3994-.4536-.9092.7817-1.8535-2.0981-.7266-1.7285 .6543-.9863-.3633-.4111 .7988-1.8936c.6563-.8164 1.3418-1.5996 2.0352-2.3857l1.2363-.3291 1.3809-.1641 .9453.2471 1.3447,1.3564 .4727-.5342 .6533-.082 1.2363.4111h.9453l.6543-.5762 .291-.4111-.6553-.4111-1.0908-.082c-.3027-.4199-.584-.8613-.9434-1.2344l-.3643.1641-.1455,1.0703-.6543-.7402-.1445-.8242-.7266-.5742h-.292l.7275.8223-.291.7402-.5811.1641 .3633-.7402-.6553-.3281-.5801-.6582-1.0918.2461-.1445.3281-.6543.4121-.3633.9053-.9082.4521-.4004-.4521h-.4355v-1.4814l.9453-.4941h.7266l-.1465-.5752-.5801-.5762 .9805-.2061 .5449-.6162 .4355-.7412h.8008l-.2188-.5752 .5098-.3291v.6582l1.0898.2461 1.0898-.9043 .0732-.4121 .9443-.6577c-.3418.0425-.6836.0737-1.0176.1646v-.7411l.3633-.8228h-.3633l-.7984.7402-.2188.4116 .2188.5767-.3643.9863-.5811-.3291-.5078-.5752-.8008.5752-.291-1.3159 1.3809-.9048v-.4941l.873-.5757 1.3809-.3296 .9453.3296 1.7441.3291-.4355.4932h-.9453l.9453.9873 .7266-.8223 .2207-.3618c0,0 2.7871,2.498 4.3799,5.2305s2.3408,5.9551 2.3408,6.6094z"/>
   <path d="m26.0703,9.2363-.0732.4932 .5098.3291 .8711-.5757-.4355-.4937-.582.3296-.29-.0825"/>
   <path d="m26.8701,5.8633-1.8906-.7407-2.1797.2466-2.6904.7402-.5088.4941 1.6719,1.1514v.6582l-.6543.6582 .873,1.729 .5801-.3301 .7285-1.1514c1.123-.3472 2.1299-.7407 3.1973-1.2344l.873-2.2212"/>
   <path d="m28.833,12.7749-.291-.7412-.5098.165 .1465.9043 .6543-.3281"/>
   <path d="m29.123,12.6089-.1455.9883 .7998-.165 .5811-.5752-.5088-.4941c-.1709-.4551-.3672-.8799-.5811-1.3164h-.4355v.4932l.29.3291v.7402"/>
   <path d="m18.3652,28.2422-.582-1.1523-1.0903-.2466-.5815-1.5625-1.4536.1641-1.2354-.9043-1.3091,1.1514v.1816c-.396-.1143-.8828-.1299-1.2354-.3467l-.291-.8223v-.9053l-.8721.082 .2183-1.7275h-.5093l-.5083.6582-.5093.2461-.7271-.4102-.0728-.9053 .1455-.9873 1.0908-.8223h.8721l.145-.4941 1.0903.2461 .7998.9883 .1455-1.6465 1.3813-1.1514 .5088-1.2344 1.0176-.4111 .5815-.8223 1.3081-.248 .6548-.9863h-1.9629l1.2358-.5762h.8716l1.2363-.4121 .1455-.4922-.4365-.4121-.5088-.165 .1455-.4932-.3633-.7402-.8726.3281 .1455-.6577-1.0176-.5762-.7993,1.3979 .0723.4941-.7993.3301-.5093,1.0693-.2178-.9873-1.3813-.5762-.2183-.7402 1.8174-1.0703 .7998-.7402 .0728-.9048-.436-.2471-.5815-.0825-.3633.9053c0,0-.6079.1191-.7642.1577-1.9961,1.8394-6.0293,5.8101-6.9663,13.3062 .0371.1738.6792,1.1816.6792,1.1816l1.5264.9043 1.5264.4121 .6548.8232 1.0171.7402 .5815-.082 .436.1963v.1328l-.5811,1.563-.4365.6582 .1455.3301-.3633,1.2324 1.3086,2.3867 1.3081,1.1523 .582.8223-.0732,1.7285 .4365.9863-.4365,1.8926c0,0-.0342-.0117.0215.1777s2.3291,1.4512 2.4736,1.3438l.2671-.2051-.145-.4102 .5811-.5762 .2183-.5762 .9453-.3301 .7266-1.8105-.2178-.4922 .5078-.7402 1.0908-.248 .582-1.3164-.1455-1.6445 .8721-1.2344 .1455-1.2344c-1.1934-.5918-2.377-1.2012-3.5615-1.8105"/>
   <path d="m16.7656,9.5649 .7266.4937h.582v-.5757l-.7266-.3291-.582.4111"/>
   <path d="m14.876,8.9072-.3638.9048h.7271l.3638-.8228 .9448-.6582 .7271.2471 1.4536.9868 .7275-.6577-.8003-.3291-.3638-.7407-1.3809-.1646-.0728-.4116-.6543.165-.2904.5758-.3638-.7407-.145.3291 .0728.8228-.5816.494"/>
   <path d="m17.4922,6.8496 .3638-.3286 .7271-.1646c.498-.2422.998-.4053 1.5264-.5762l-.29-.4937-.9385.1348-.4434.4419-.731.106-.6499.3052-.3159.1528-.1929.2583 .9443.1641"/>
   <path d="m18.7285,14.6665 .4365-.6582-.6548-.4932 .2183,1.1514"/>
  </g>
  <g transform="matrix(.66307 0 0 .66307 7.8101 3.6107)" fill="url(#a)">
   <g fill="url(#a)">
    <path d="m44.0713,20.7144 0,0-.5449.6172c-.334-.3936-.709-.7246-1.0898-1.0703l-.8359.123-.7637-.8633v1.0684l.6543.4951 .4355.4932 .582-.6582c.1465.2744.291.5488.4365.8232v.8223l-.6553.7402-1.1992.8232-.9082.9063-.582-.6602 .291-.7402-.5811-.6582-.9814-2.0977-.8359-.9453-.2188.2461 .3281,1.1934 .6172.6992c.3525,1.0176.7012,1.9902 1.1641,2.9629 .7178,0 1.3945-.0762 2.1074-.166v.5762l-.8721,2.1392-.7998.9043-.6543,1.4004v2.3027l.2188.9063-.3633.4102-.8008.4941-.8359.6992 .6914.7813-.9453.8242 .1816.5332-1.418,1.6055h-.9443l-.7998.4941h-.5098v-.6582l-.2168-1.3184c-.2813-.8262-.5742-1.6465-.8721-2.4668 0-.6055.0361-1.2051.0723-1.8105l.3643-.8223-.5098-.9883 .0371-1.3574-.6914-.7813 .3457-1.1309-.5625-.6382h-.9824l-.3271-.3701-.9814.6177-.3994-.4536-.9092.7817-1.8535-2.0981-.7266-1.7285 .6543-.9863-.3633-.4111 .7988-1.8936c.6563-.8164 1.3418-1.5996 2.0352-2.3857l1.2363-.3291 1.3809-.1641 .9453.2471 1.3447,1.3564 .4727-.5342 .6533-.082 1.2363.4111h.9453l.6543-.5762 .291-.4111-.6553-.4111-1.0908-.082c-.3027-.4199-.584-.8613-.9434-1.2344l-.3643.1641-.1455,1.0703-.6543-.7402-.1445-.8242-.7266-.5742h-.292l.7275.8223-.291.7402-.5811.1641 .3633-.7402-.6553-.3281-.5801-.6582-1.0918.2461-.1445.3281-.6543.4121-.3633.9053-.9082.4521-.4004-.4521h-.4355v-1.4814l.9453-.4941h.7266l-.1465-.5752-.5801-.5762 .9805-.2061 .5449-.6162 .4355-.7412h.8008l-.2188-.5752 .5098-.3291v.6582l1.0898.2461 1.0898-.9043 .0732-.4121 .9443-.6577c-.3418.0425-.6836.0737-1.0176.1646v-.7411l.3633-.8228h-.3633l-.7984.7402-.2188.4116 .2188.5767-.3643.9863-.5811-.3291-.5078-.5752-.8008.5752-.291-1.3159 1.3809-.9048v-.4941l.873-.5757 1.3809-.3296 .9453.3296 1.7441.3291-.4355.4932h-.9453l.9453.9873 .7266-.8223 .2207-.3618c0,0 2.7871,2.498 4.3799,5.2305s2.3408,5.9551 2.3408,6.6094z" fill="url(#a)"/>
   </g>
   <g fill="url(#a)">
    <path d="m26.0703,9.2363-.0732.4932 .5098.3291 .8711-.5757-.4355-.4937-.582.3296-.29-.0825" fill="url(#a)"/>
   </g>
   <g fill="url(#a)">
    <path d="m26.8701,5.8633-1.8906-.7407-2.1797.2466-2.6904.7402-.5088.4941 1.6719,1.1514v.6582l-.6543.6582 .873,1.729 .5801-.3301 .7285-1.1514c1.123-.3472 2.1299-.7407 3.1973-1.2344l.873-2.2212" fill="url(#a)"/>
   </g>
   <g fill="url(#a)">
    <path d="m28.833,12.7749-.291-.7412-.5098.165 .1465.9043 .6543-.3281" fill="url(#a)"/>
   </g>
   <g fill="url(#a)">
    <path d="m29.123,12.6089-.1455.9883 .7998-.165 .5811-.5752-.5088-.4941c-.1709-.4551-.3672-.8799-.5811-1.3164h-.4355v.4932l.29.3291v.7402" fill="url(#a)"/>
   </g>
   <g fill="url(#a)">
    <path d="m18.3652,28.2422-.582-1.1523-1.0903-.2466-.5815-1.5625-1.4536.1641-1.2354-.9043-1.3091,1.1514v.1816c-.396-.1143-.8828-.1299-1.2354-.3467l-.291-.8223v-.9053l-.8721.082 .2183-1.7275h-.5093l-.5083.6582-.5093.2461-.7271-.4102-.0728-.9053 .1455-.9873 1.0908-.8223h.8721l.145-.4941 1.0903.2461 .7998.9883 .1455-1.6465 1.3813-1.1514 .5088-1.2344 1.0176-.4111 .5815-.8223 1.3081-.248 .6548-.9863h-1.9629l1.2358-.5762h.8716l1.2363-.4121 .1455-.4922-.4365-.4121-.5088-.165 .1455-.4932-.3633-.7402-.8726.3281 .1455-.6577-1.0176-.5762-.7993,1.3979 .0723.4941-.7993.3301-.5093,1.0693-.2178-.9873-1.3813-.5762-.2183-.7402 1.8174-1.0703 .7998-.7402 .0728-.9048-.436-.2471-.5815-.0825-.3633.9053c0,0-.6079.1191-.7642.1577-1.9961,1.8394-6.0293,5.8101-6.9663,13.3062 .0371.1738.6792,1.1816.6792,1.1816l1.5264.9043 1.5264.4121 .6548.8232 1.0171.7402 .5815-.082 .436.1963v.1328l-.5811,1.563-.4365.6582 .1455.3301-.3633,1.2324 1.3086,2.3867 1.3081,1.1523 .582.8223-.0732,1.7285 .4365.9863-.4365,1.8926c0,0-.0342-.0117.0215.1777s2.3291,1.4512 2.4736,1.3438l.2671-.2051-.145-.4102 .5811-.5762 .2183-.5762 .9453-.3301 .7266-1.8105-.2178-.4922 .5078-.7402 1.0908-.248 .582-1.3164-.1455-1.6445 .8721-1.2344 .1455-1.2344c-1.1934-.5918-2.377-1.2012-3.5615-1.8105" fill="url(#a)"/>
   </g>
   <g fill="url(#a)">
    <path d="m16.7656,9.5649 .7266.4937h.582v-.5757l-.7266-.3291-.582.4111" fill="url(#a)"/>
   </g>
   <g fill="url(#a)">
    <path d="m14.876,8.9072-.3638.9048h.7271l.3638-.8228 .9448-.6582 .7271.2471 1.4536.9868 .7275-.6577-.8003-.3291-.3638-.7407-1.3809-.1646-.0728-.4116-.6543.165-.2904.5758-.3638-.7407-.145.3291 .0728.8228-.5816.494" fill="url(#a)"/>
   </g>
   <g fill="url(#a)">
    <path d="m17.4922,6.8496 .3638-.3286 .7271-.1646c.498-.2422.998-.4053 1.5264-.5762l-.29-.4937-.9385.1348-.4434.4419-.731.106-.6499.3052-.3159.1528-.1929.2583 .9443.1641" fill="url(#a)"/>
   </g>
   <g fill="url(#a)">
    <path d="m18.7285,14.6665 .4365-.6582-.6548-.4932 .2183,1.1514" fill="url(#a)"/>
   </g>
  </g>
  <path d="m36.872 19.442c0 6.8617-5.5626 12.424-12.423 12.424s-12.424-5.5626-12.424-12.424 5.5623-12.423 12.424-12.423 12.423 5.562 12.423 12.423z" fill="none" stroke="url(#b)"/>
 </g>
 <g transform="matrix(-.30581 .64352 -.56173 -.26694 362.01 -61.677)" fill="#84827d" filter="url(#f)">
  <path d="m532.31-18.95c10.133-11.43 31.454-7.351 37.655 6.3903 4.4056 9.2065-0.23463 23.557-11.509 23.524-9.8166-1.2248-18.727-10.923-20.002-20.857-0.0898-1.3557-0.11575-2.715-0.22618-4.0695m-84.842-8.6941c6.1874-9.7364 17.556-19.869 29.673-15.635 8.3959 1.9038 11.367 20.036 17.883 17.274 5.6076-11.61 19.9-12.617 29.896-6.9566 11.249 3.0134 12.081 18.708-0.12558 20.709-13.77 4.6179-19.812-11.278-28.167-18.508-5.8037-3.8883-13.07-4.9231-19.849-3.9965m-67.102 4.7422c-12.008-5.0105-25.346 10.99-16.953 21.874l0.84902 1.6689 0.67858 1.7496m64.017-20.55c-9.7561-5.5937-22.482-12.467-33.163-5.2351-13.19 5.4828-6.5333 24.438 6.8512 22.943 8.1875 2.0228 20.81 1.221 22.35-9.4075-0.62341-13.818-16.195-18.628-25.196-26.034-11.026-4.8644-24.197 4.406-25.669 15.95 0.95426 10.464 12.894 15.168 21.784 12.501 3.0283-0.34725 6.0834-0.73838 9.1334-0.44301m47.82-10.275c-8.1934-5.9248-31.806-6.3752-26.397 8.6046 6.1524 9.261 20.393 13.114 29.827 7.0189 2.8054-2.0753 4.3635-5.8049 3.5114-9.3006m-16.197 15.808c-11.828-6.4022-26.174 11.741-17.133 22.092 9.3843 7.0981 22.847 6.6311 32.552 0.46175 7.751-9.5877 5.8226-25.574-5.791-30.738-8.7488-8.2576-27.046 2.4125-18.041 13.57 8.6691 11.992 24.391 13.603 37.835 13.28 9.7542 1.4025 26.189-2.1006 22.862-15.67-2.889-10.579-13.055-17.327-22.687-20.493-13.596-5.5057-23.663 14.605-9.0174 20.555 12.38 6.4429 26.517 2.1697 39.518 0.52869 6.936-1.8836 15.75-3.206 20.026-9.5334 0.31092-1.6015-0.142-3.165-0.60439-4.6646m-145.85 28c10.612-5.8368 9.9031-22.835-1.9521-26.457-8.1745-6.0626-23.588-1.8444-22.846 10.044 0.72584 9.7897 5.6516 20.166 14.771 24.317m22.367-20.55c3.7631 11.911 16.993 16.98 28.255 17.013 12.081-5.2353 3.8417-21.514-4.3282-26.469-7.5365-6.3568-22.202-4.2511-26.685 4.852-7.0684-0.76457-7.0282 11.329-4.9554 15.67m6.0944 45.414c11.536 5.0495 26.47 0.04281 32.027-11.707 6.4729-8.6941 10.467-22.93 1.5853-31.439-5.6203-5.7466-15.712-12.857-23.13-6.1422m-7.3209 20.472c7.643-5.2014 22.414-13.544 25.107 1.2442 6.1973 11.158-1.8368 25.23-14.754 20.557-7.143-1.6595-12.46-7.8914-14.98-14.688m-16.197-20.55c-11.693-3.17-27.421 12.042-15.705 22.14 7.3618 7.6788 31.977 5.5976 25.968-8.7702-3.6141-8.6192-27.358-12.06-21.692 1.3257 8.5332 7.8824 18.786 13.36 26.291 22.572 5.6906 4.4412 8.6077-1.2793 8.0833-6.5369-1.5068-3.8894-4.8883-7.514-7.0583-11.248m-50.596 72.202c-3.7714 6.6803-13.332 3.3794-16.197-2.3711m2.3139-9.4845c-2.3678 12.529 21.257 9.7513 18.195-1.4302-3.8063-9.6761-15.188-6.3377-21.595-2.1634-8.4025 5.6726 2.6984 22.912 9.062 12.77l0.50885-1.2726m21.596-67.972c-11.833 4.5221-9.7833 26.12 3.3317 26.986 13.473 2.9118 19.892-17.339 10.234-25.49-4.8209-3.5041-15.364-2.7938-7.1971-9.7631l0.0995-0.96574-0.41066-1.0066m-2.9719 22.095c5.9487-7.5679 27.66-9.4497 25.469 3.8809-2.6721 5.0898-9.6243 6.9522-14.671 4.8132m11.658 14.615c9.8833 9.7918 23.819-10.119 12.269-17.003-8.5924-10.084-18.276 11.79-5.4162 11.872m-37.022-5.5326c-10.668 6.2659-5.8473 25.428 6.3631 25.893 11.719 0.67872 25.73-6.1951 27.653-19.125-0.70599-11.662-20.497-17.256-25.957-6.6366-2.7984 8.4177 6.0275 15.903 13.537 16.466m-46.817 15.748c-3.9308-13.443 14.957-25.985 24.963-16.178 9.9795 11.175-11.55 27.294-15.193 10.315-5.4873-9.7633-0.98047-24.35 11.522-22.847 3.6148-0.33125 7.2465-0.35508 10.871-0.47482" stroke="#484849" stroke-width=".93429"/>
  <path d="m397.74 59.042c-3.7576-1.0353-13.322-7.0362-4.9377-9.3228 7.7105-6.4524 12.034 3.0504 8.124 9.3944l-1.0366 0.05356-2.1497-0.12522-4e-5 1e-6z"/>
  <path d="m421.84 39.982c-5.0864-5.2138-9.4206-11.17-14.119-16.765 4.807-4.7631 10.666-4.4087 13.324-10.92 2.7575-6.072 4.4082-3.9994 6.8863 1.4751 6.0898 3.0215 4.2069 8.1672 2.7666 13.549-0.10658 5.9724-6.3896 7.649-8.858 12.661z"/>
  <path d="m438.43 55.625c-5.1081-0.5665-12.902-5.2459-11.071-11.323 1.0498-3.604 1.1304-7.9322 2.7709-11.095 5.5512-3.4062 15.175-10.134 19.153-1.2766 3.4638 7.1064 6.6999 21.887-4.3244 23.412-2.1594 0.17635-4.3706 0.81699-6.5284 0.283z"/>
  <path d="m459.12 9.8814c-0.18047-6.1353-12.707-11.742-2.6618-14.021 3.925-3.1576 3.9504-10.27 8.1442-3.0898 6.8251 2.6637 2.5816 10.243-2.1586 12.848-1.2605 0.67142-2.4 4.7868-3.3238 4.2636z"/>
  <path d="m491.73-17.162c-6.2002-7.3053-17.646-9.3567-26.348-6.1033-1.4532 3.3839-9.3839-1.4858-3.6266-1.2778 9.7852-2.0547 19.462-6.0177 29.58-4.5558 2.6755 3.2994 7.4906 15.286 10.702 7.6742 1.7072-7.5641 12.808 9.8608 3.2558 4.7677-5.2987-1.4118-9.9204 5.351-13.563-0.505z"/>
  <path d="m526.45-5.2223c2.972-0.54613 16.03-8.4459 10.088-0.80022-3.2446 0.07098-7.0756 1.8318-10.088 0.80022z"/>
  <path d="m545.35 2.4678c-3.7664-3.8788-8.673-10.676 0.52795-9.4284 4.8992-1.6665 17.434-2.7389 10.358 5.1161-3.2757 1.6004-7.3484 4.6717-10.886 4.3123z"/>
  <path d="m419.6-0.29739c-2.3211-7.0324-17.722-7.2254-9.6367-15.231 3.4149 3.5457 12.501 6.59 17.542 10.248-0.40391-0.00713-6.7261 9.2265-7.9058 4.983z"/>
  <path d="m374.95 75.353c-3.0856-8.5069 16.572-7.9454 6.4024-2.7087-1.6386 0.6049-7.353 8.0476-6.4024 2.7087z"/>
  <path d="m380.26 87.803c-4.6125-2.4368-6.9682-13.538-0.36238-5.1325 0.86216 0.65969 2.8476 7.8887 0.36238 5.1325z"/>
  <path d="m371.34 98.434c-8.207-3.3706-2.3225-7.4152 1.9124-1.0668 2.1594 1.6529-1.5305 1.2632-1.9124 1.0668z"/>
  <path d="m409.16 62.389c-2.4363-1.399 4.8458-3.6038 1.0965 0.6423l-1.0965-0.6423z"/>
  <path d="m414.12 56.201c-0.0567-4.9911 4.919 0.87253 0 0z"/>
  <path d="m360.47 92.644c4.9591-5.9752 3.9431 1.684 0 0z"/>
 </g>
 <g transform="matrix(.09425 -.32093 .32093 .09425 -111.47 97.383)">
  <g transform="matrix(-.14631 -.11948 -.11948 .14631 375.4 735.12)">
   <path d="m740 725.22c0.47104 27.193-3.1351 55.387 9.2666 80.806 9.1519 30.499 32.088 53.66 44.574 82.703 21.678 26.89 12.547 62.813 15.286 94.186-1.9541 19.435-14.121 13.647-5.801-2.3203 7.5779-31.159 16.416-68.85 49.237-82.592 21.088-10.425 44.52-19.343 57.211-40.708 22.724-29.116 30.371-65.88 33.572-101.79 0.32262-17.756 10.181-50.793-4.4459-59.021-16.547 19.396-43.696 16.619-66.261 21.337-26.335 2.3469-52.389-2.0214-78.442-4.0645-17.465 3.0974-42.445-6.4528-54.646 6.0251l0.44777 5.4403z" fill="#fc0"/>
   <path d="m753.01 712.87c-2.2958 29.76-11.955 61.824 1.7371 90.167 7.038 14.496 21.797 22.555 29.426 36.703 17.649 27.512 22.801 61.331 22.351 93.736 8.4484 24.227-12.631 45.202-12.867 68.863-0.16082 6.2472 4.7774 14.637 5.1798 3.6726 3.446-25.192-10.594-52.604 3.4071-76.078 24.171-22.01 62.319-5.2048 86.015-28.474 26.486-20.721 53.522-47.197 58.032-82.911 5.0372-27.5-4.6152-54.726-16.755-78.816-6.322-11.919-11.309-24.714-18.081-36.274-18.502-22.624-49.574-25.941-76.496-25.262-13.203-1.2035-25.197 4.1943-35.925 11.737-14.537 9.1452-28.998 19.468-46.025 22.936z" fill="#ff0" opacity=".51229"/>
   <path d="m761.43 710.93c-0.58666 20.622-7.1808 43.17 4.2552 62.111 5.2356 11.105 11.506 21.832 19.551 31.205 7.2503 9.2806 16.088 17.32 22.855 26.933 14.141 24.917 11.304 56.091 9e-3 81.508-0.69973 3.4088-4.1485 10.27-1.9792 2.2673 3.147-9.7754 5.0423-21.59 13.693-28.126 20.665-15.71 50.388-14.603 68.53-34.331 15.644-10.587 19.785-31.179 17.329-48.842-1.7264-14.801-7.4516-28.693-10.541-43.21-3.1535-12.193-9.2862-26.685-23.294-28.852-13.154-0.95976-26.371 1.4459-39.574 1.0442-11.918-0.80846-25.139 1.4261-36.114-3.6723-9.0844-6.1523-14.083-18.805-25.845-20.505-3.1382-0.22043-6.2189 0.87766-8.8783 2.4691z" fill="#f00" opacity=".51229"/>
   <path d="m768.57 716.65c-0.38078 22.66-6.256 47.469 5.971 68.194 8.8673 15.148 20.563 28.436 32.067 41.616 12.184 12.718 23.21 28.059 24.077 46.29 2.9145 19.661 1.2767 40.016-6.1065 58.554 4.387-11.352 6.0801-23.609 11.818-34.522 3.9245-9.6631 11.732-15.688 15.856-25.684 8.105-14.213 15.304-32.041 32.31-37.333 28.318-12.776-2.2562-46.273 24.861-61.522 13.221-7.7665 49.215-20.953 50.571-36.563 2.4879-15.262 35.524-7.9416 36.023-23.28-0.54909-12.719-10.167-27.736-24.57-25.224-18.361 2.006-36.644 5.2437-54.99 7.6671-36.803 3.801-73.486 14.162-110.72 9.6654-13.454-0.16363-24.816 8.1214-37.166 12.143z" fill="#f60" opacity=".51229"/>
   <path d="m842.86 706.65c-3.0456 15.167-21.021 17.514-30.867 26.855-12.868 7.2967-11.299 22.779-12.221 35.401-2.5588 18.399 16.585 27.181 26.228 39.72 8.9755 13.27 3.0249 31.53-2.8219 44.811-1.7239 16.447-8.4773 35.654 4.7875 49.229-1.4705 0.49995-12.031-25.801-0.22434-32.567 12.706-6.417 31.639 4.0672 39.063-13.599 10.04-12.605 12.324-28.947 17.852-43.708 4.8877-20.499 6.9764-42.231 4.3265-63.128-4.7477-14.313-11.793-28.171-20.656-40.341-8.6976-10.755-22.662 13.535-29.618 3.9677 1.2703-2.2854 2.9481-4.3049 4.1507-6.6403z" fill="#f00"/>
  </g>
  <g transform="matrix(.16134 .09824 -.09824 .16134 239.78 637.17)">
   <path d="m740 725.22c0.47104 27.193-3.1351 55.387 9.2666 80.806 9.1519 30.499 32.088 53.66 44.574 82.703 21.678 26.89 12.547 62.813 15.286 94.186-1.9541 19.435-14.121 13.647-5.801-2.3203 7.5779-31.159 16.416-68.85 49.237-82.592 21.088-10.425 44.52-19.343 57.211-40.708 22.724-29.116 30.371-65.88 33.572-101.79 0.32262-17.756 10.181-50.793-4.4459-59.021-16.547 19.396-43.696 16.619-66.261 21.337-26.335 2.3469-52.389-2.0214-78.442-4.0645-17.465 3.0974-42.445-6.4528-54.646 6.0251l0.44777 5.4403z" fill="#fc0"/>
   <path d="m753.01 712.87c-2.2958 29.76-11.955 61.824 1.7371 90.167 7.038 14.496 21.797 22.555 29.426 36.703 17.649 27.512 22.801 61.331 22.351 93.736 8.4484 24.227-12.631 45.202-12.867 68.863-0.16082 6.2472 4.7774 14.637 5.1798 3.6726 3.446-25.192-10.594-52.604 3.4071-76.078 24.171-22.01 62.319-5.2048 86.015-28.474 26.486-20.721 53.522-47.197 58.032-82.911 5.0372-27.5-4.6152-54.726-16.755-78.816-6.322-11.919-11.309-24.714-18.081-36.274-18.502-22.624-49.574-25.941-76.496-25.262-13.203-1.2035-25.197 4.1943-35.925 11.737-14.537 9.1452-28.998 19.468-46.025 22.936z" fill="#ff0" opacity=".51229"/>
   <path d="m761.43 710.93c-0.58666 20.622-7.1808 43.17 4.2552 62.111 5.2356 11.105 11.506 21.832 19.551 31.205 7.2503 9.2806 16.088 17.32 22.855 26.933 14.141 24.917 11.304 56.091 9e-3 81.508-0.69973 3.4088-4.1485 10.27-1.9792 2.2673 3.147-9.7754 5.0423-21.59 13.693-28.126 20.665-15.71 50.388-14.603 68.53-34.331 15.644-10.587 19.785-31.179 17.329-48.842-1.7264-14.801-7.4516-28.693-10.541-43.21-3.1535-12.193-9.2862-26.685-23.294-28.852-13.154-0.95976-26.371 1.4459-39.574 1.0442-11.918-0.80846-25.139 1.4261-36.114-3.6723-9.0844-6.1523-14.083-18.805-25.845-20.505-3.1382-0.22043-6.2189 0.87766-8.8783 2.4691z" fill="#f00" opacity=".51229"/>
   <path d="m768.57 716.65c-0.38078 22.66-6.256 47.469 5.971 68.194 8.8673 15.148 20.563 28.436 32.067 41.616 12.184 12.718 23.21 28.059 24.077 46.29 2.9145 19.661 1.2767 40.016-6.1065 58.554 4.387-11.352 6.0801-23.609 11.818-34.522 3.9245-9.6631 11.732-15.688 15.856-25.684 8.105-14.213 15.304-32.041 32.31-37.333 28.318-12.776-2.2562-46.273 24.861-61.522 13.221-7.7665 49.215-20.953 50.571-36.563 2.4879-15.262 35.524-7.9416 36.023-23.28-0.54909-12.719-10.167-27.736-24.57-25.224-18.361 2.006-36.644 5.2437-54.99 7.6671-36.803 3.801-73.486 14.162-110.72 9.6654-13.454-0.16363-24.816 8.1214-37.166 12.143z" fill="#f60" opacity=".51229"/>
   <path d="m842.86 706.65c-3.0456 15.167-21.021 17.514-30.867 26.855-12.868 7.2967-11.299 22.779-12.221 35.401-2.5588 18.399 16.585 27.181 26.228 39.72 8.9755 13.27 3.0249 31.53-2.8219 44.811-1.7239 16.447-8.4773 35.654 4.7875 49.229-1.4705 0.49995-12.031-25.801-0.22434-32.567 12.706-6.417 31.639 4.0672 39.063-13.599 10.04-12.605 12.324-28.947 17.852-43.708 4.8877-20.499 6.9764-42.231 4.3265-63.128-4.7477-14.313-11.793-28.171-20.656-40.341-8.6976-10.755-22.662 13.535-29.618 3.9677 1.2703-2.2854 2.9481-4.3049 4.1507-6.6403z" fill="#f00"/>
  </g>
  <g transform="matrix(.48043 .30088 -.49825 .69958 197.26 15.21)">
   <path d="m740 725.22c0.47104 27.193-3.1351 55.387 9.2666 80.806 9.1519 30.499 32.088 53.66 44.574 82.703 21.678 26.89 12.547 62.813 15.286 94.186-1.9541 19.435-14.121 13.647-5.801-2.3203 7.5779-31.159 16.416-68.85 49.237-82.592 21.088-10.425 44.52-19.343 57.211-40.708 22.724-29.116 30.371-65.88 33.572-101.79 0.32262-17.756 10.181-50.793-4.4459-59.021-16.547 19.396-43.696 16.619-66.261 21.337-26.335 2.3469-52.389-2.0214-78.442-4.0645-17.465 3.0974-42.445-6.4528-54.646 6.0251l0.44777 5.4403z" fill="#fc0"/>
   <path d="m753.01 712.87c-2.2958 29.76-11.955 61.824 1.7371 90.167 7.038 14.496 21.797 22.555 29.426 36.703 17.649 27.512 22.801 61.331 22.351 93.736 8.4484 24.227-12.631 45.202-12.867 68.863-0.16082 6.2472 4.7774 14.637 5.1798 3.6726 3.446-25.192-10.594-52.604 3.4071-76.078 24.171-22.01 62.319-5.2048 86.015-28.474 26.486-20.721 53.522-47.197 58.032-82.911 5.0372-27.5-4.6152-54.726-16.755-78.816-6.322-11.919-11.309-24.714-18.081-36.274-18.502-22.624-49.574-25.941-76.496-25.262-13.203-1.2035-25.197 4.1943-35.925 11.737-14.537 9.1452-28.998 19.468-46.025 22.936z" fill="#ff0" opacity=".51229"/>
   <path d="m761.43 710.93c-0.58666 20.622-7.1808 43.17 4.2552 62.111 5.2356 11.105 11.506 21.832 19.551 31.205 7.2503 9.2806 16.088 17.32 22.855 26.933 14.141 24.917 11.304 56.091 9e-3 81.508-0.69973 3.4088-4.1485 10.27-1.9792 2.2673 3.147-9.7754 5.0423-21.59 13.693-28.126 20.665-15.71 50.388-14.603 68.53-34.331 15.644-10.587 19.785-31.179 17.329-48.842-1.7264-14.801-7.4516-28.693-10.541-43.21-3.1535-12.193-9.2862-26.685-23.294-28.852-13.154-0.95976-26.371 1.4459-39.574 1.0442-11.918-0.80846-25.139 1.4261-36.114-3.6723-9.0844-6.1523-14.083-18.805-25.845-20.505-3.1382-0.22043-6.2189 0.87766-8.8783 2.4691z" fill="#f00" opacity=".51229"/>
   <path d="m768.57 716.65c-0.38078 22.66-6.256 47.469 5.971 68.194 8.8673 15.148 20.563 28.436 32.067 41.616 12.184 12.718 23.21 28.059 24.077 46.29 2.9145 19.661 1.2767 40.016-6.1065 58.554 4.387-11.352 6.0801-23.609 11.818-34.522 3.9245-9.6631 11.732-15.688 15.856-25.684 8.105-14.213 15.304-32.041 32.31-37.333 28.318-12.776-2.2562-46.273 24.861-61.522 13.221-7.7665 49.215-20.953 50.571-36.563 2.4879-15.262 35.524-7.9416 36.023-23.28-0.54909-12.719-10.167-27.736-24.57-25.224-18.361 2.006-36.644 5.2437-54.99 7.6671-36.803 3.801-73.486 14.162-110.72 9.6654-13.454-0.16363-24.816 8.1214-37.166 12.143z" fill="#f60" opacity=".51229"/>
   <path d="m842.86 706.65c-3.0456 15.167-21.021 17.514-30.867 26.855-12.868 7.2967-11.299 22.779-12.221 35.401-2.5588 18.399 16.585 27.181 26.228 39.72 8.9755 13.27 3.0249 31.53-2.8219 44.811-1.7239 16.447-8.4773 35.654 4.7875 49.229-1.4705 0.49995-12.031-25.801-0.22434-32.567 12.706-6.417 31.639 4.0672 39.063-13.599 10.04-12.605 12.324-28.947 17.852-43.708 4.8877-20.499 6.9764-42.231 4.3265-63.128-4.7477-14.313-11.793-28.171-20.656-40.341-8.6976-10.755-22.662 13.535-29.618 3.9677 1.2703-2.2854 2.9481-4.3049 4.1507-6.6403z" fill="#f00"/>
  </g>
  <g transform="matrix(-.14956 -.1646 -.17692 .12953 471.72 860.56)">
   <path d="m740 725.22c0.47104 27.193-3.1351 55.387 9.2666 80.806 9.1519 30.499 32.088 53.66 44.574 82.703 21.678 26.89 12.547 62.813 15.286 94.186-1.9541 19.435-14.121 13.647-5.801-2.3203 7.5779-31.159 16.416-68.85 49.237-82.592 21.088-10.425 44.52-19.343 57.211-40.708 22.724-29.116 30.371-65.88 33.572-101.79 0.32262-17.756 10.181-50.793-4.4459-59.021-16.547 19.396-43.696 16.619-66.261 21.337-26.335 2.3469-52.389-2.0214-78.442-4.0645-17.465 3.0974-42.445-6.4528-54.646 6.0251l0.44777 5.4403z" fill="#fc0"/>
   <path d="m753.01 712.87c-2.2958 29.76-11.955 61.824 1.7371 90.167 7.038 14.496 21.797 22.555 29.426 36.703 17.649 27.512 22.801 61.331 22.351 93.736 8.4484 24.227-12.631 45.202-12.867 68.863-0.16082 6.2472 4.7774 14.637 5.1798 3.6726 3.446-25.192-10.594-52.604 3.4071-76.078 24.171-22.01 62.319-5.2048 86.015-28.474 26.486-20.721 53.522-47.197 58.032-82.911 5.0372-27.5-4.6152-54.726-16.755-78.816-6.322-11.919-11.309-24.714-18.081-36.274-18.502-22.624-49.574-25.941-76.496-25.262-13.203-1.2035-25.197 4.1943-35.925 11.737-14.537 9.1452-28.998 19.468-46.025 22.936z" fill="#ff0" opacity=".51229"/>
   <path d="m761.43 710.93c-0.58666 20.622-7.1808 43.17 4.2552 62.111 5.2356 11.105 11.506 21.832 19.551 31.205 7.2503 9.2806 16.088 17.32 22.855 26.933 14.141 24.917 11.304 56.091 9e-3 81.508-0.69973 3.4088-4.1485 10.27-1.9792 2.2673 3.147-9.7754 5.0423-21.59 13.693-28.126 20.665-15.71 50.388-14.603 68.53-34.331 15.644-10.587 19.785-31.179 17.329-48.842-1.7264-14.801-7.4516-28.693-10.541-43.21-3.1535-12.193-9.2862-26.685-23.294-28.852-13.154-0.95976-26.371 1.4459-39.574 1.0442-11.918-0.80846-25.139 1.4261-36.114-3.6723-9.0844-6.1523-14.083-18.805-25.845-20.505-3.1382-0.22043-6.2189 0.87766-8.8783 2.4691z" fill="#f00" opacity=".51229"/>
   <path d="m768.57 716.65c-0.38078 22.66-6.256 47.469 5.971 68.194 8.8673 15.148 20.563 28.436 32.067 41.616 12.184 12.718 23.21 28.059 24.077 46.29 2.9145 19.661 1.2767 40.016-6.1065 58.554 4.387-11.352 6.0801-23.609 11.818-34.522 3.9245-9.6631 11.732-15.688 15.856-25.684 8.105-14.213 15.304-32.041 32.31-37.333 28.318-12.776-2.2562-46.273 24.861-61.522 13.221-7.7665 49.215-20.953 50.571-36.563 2.4879-15.262 35.524-7.9416 36.023-23.28-0.54909-12.719-10.167-27.736-24.57-25.224-18.361 2.006-36.644 5.2437-54.99 7.6671-36.803 3.801-73.486 14.162-110.72 9.6654-13.454-0.16363-24.816 8.1214-37.166 12.143z" fill="#f60" opacity=".51229"/>
   <path d="m842.86 706.65c-3.0456 15.167-21.021 17.514-30.867 26.855-12.868 7.2967-11.299 22.779-12.221 35.401-2.5588 18.399 16.585 27.181 26.228 39.72 8.9755 13.27 3.0249 31.53-2.8219 44.811-1.7239 16.447-8.4773 35.654 4.7875 49.229-1.4705 0.49995-12.031-25.801-0.22434-32.567 12.706-6.417 31.639 4.0672 39.063-13.599 10.04-12.605 12.324-28.947 17.852-43.708 4.8877-20.499 6.9764-42.231 4.3265-63.128-4.7477-14.313-11.793-28.171-20.656-40.341-8.6976-10.755-22.662 13.535-29.618 3.9677 1.2703-2.2854 2.9481-4.3049 4.1507-6.6403z" fill="#f00"/>
  </g>
  <path d="m416.2724,512.45544c-2.68417-.3908-5.57843-.44446-8.66296-.13548-1.23383.12359-2.50446.30239-3.79846.5415-2.588.47823-5.30029,1.18917-8.11567,2.14169-2.11159.71438-4.27161,1.56783-6.50232,2.557-7.43575,3.29724-15.5245,8.13484-24.10432,14.65038-1.06663.76775-2.14448,1.56401-3.23,2.37451-.84596.63166-1.69014,1.27786-2.54691,1.93452-.83229.63793-1.67014,1.27964-2.51207,1.94039l-.45358.35334c-.32331.25476-.64944.5269-.97404.78493-.0463.0367-.0962.0645-.14248.10134l-.78799.63721c-.56995.45657-1.14458.90955-1.71839,1.37577l-.8927.72702-.0814.0579c-.47492.38884-.94166.79825-1.41904,1.19343s-.96872.78163-1.45387,1.18756c-.53739.44953-1.07076.91886-1.611,1.37598l-1.10792.94145-.0407.029-.0407.029-1.15156.98781-.54378.46348c-.0736.0635-.13871.13342-.21231.19702l-1.67793,1.45424c-.3578.3124-.71136.61455-1.07016.9299-.12961.11393-.25124.23336-.38098.34766-.19848.17488-.39158.35151-.59036.52727-.0281.0249-.0562.0505-.0843.0753-.8246.72937-1.65424,1.45181-2.48354,2.19594l-.29664.27234c-1.91767,1.72374-3.85981,3.49309-5.79909,5.29028l-.25595.24339c-.10361.0961-.21334.19048-.317.28682-1.74747,1.62403-3.49803,3.27442-5.25845,4.95163-1.35829,1.2941-2.71967,2.60905-4.0836,3.93193-.52477.50897-1.04236,1.03146-1.56778,1.54444l-.4072.39697c-1.70181,1.66431-3.40743,3.34499-5.11347,5.04772-1.51052,1.50758-3.02067,3.03858-4.53192,4.57269l-1.59694,1.61116c-.13659.13947-.27355.27473-.41014.41439-1.95199,1.99588-3.90596,4.00215-5.85276,6.03341-2.0601,2.14945-4.11604,4.31953-6.16429,6.50024-.66028.70296-1.3109,1.41579-1.96952,2.12142-1.50049,1.6076-2.99584,3.21224-4.48596,4.83117-.3318.36047-.65795.72589-.98916,1.08683-1.75414,1.91158-3.5131,3.8202-5.24834,5.74133-.56179.62196-1.11628,1.24393-1.6758,1.8665-1.27558,1.41931-2.53707,2.84545-3.79973,4.26634-1.07353,1.20804-2.1431,2.40655-3.20622,3.61424l-2.2607,2.57377c-1.14567,1.31013-2.2874,2.61182-3.41874,3.91868-1.15701,1.3365-2.29276,2.67453-3.43342,4.00574-.49205.57424-.98348,1.14873-1.47231,1.72172-1.57074,1.84124-3.11762,3.67635-4.65272,5.5015-.35388.42074-.71889.83244-1.07076,1.25216-1.44498,1.72363-2.85968,3.43263-4.2688,5.13642l-1.28328,1.5566c-1.54177,1.87194-3.06398,3.73059-4.55705,5.57135l-.74496.9131-.45398.56818c-1.57855,1.9543-3.13343,3.89603-4.65039,5.80634-1.58749,1.99908-3.13617,3.97066-4.6506,5.91375-.81946,1.05143-1.60719,2.07156-2.40397,3.1048-.90513,1.17376-1.8088,2.33895-2.6834,3.48749-.11832.15538-.22861.30606-.34636.46095-.71197.93653-1.38754,1.84737-2.07816,2.76574-.12762-.18701-.27314-.3627-.44607-.54085-.26836-.27607-.58918-.53455-.95947-.7886l-.0174-.003c-.18191-.1248-.3781-.24787-.58285-.36691-.0686-.0398-.14062-.0861-.2117-.12524-.0515-.0283-.11257-.0537-.16533-.0816-.24077-.12754-.49351-.25872-.75993-.37886l-.24946-.1137c-.50536-.21708-1.05258-.40784-1.63629-.59827-.29065-.0949-.59403-.18956-.90238-.27753-1.03226-.29418-2.16122-.55209-3.36339-.76413-3.41415-.60176-7.429-.86896-11.54193-.69257-1.54159.0658-3.0906.20921-4.63432.40056-.13387.0166-.26705.0223-.40072.0399-1.01665.13363-2.02357.30181-3.0203.49362l-.77836.1553c-.42955.0901-.86075.18346-1.28377.28498l-.0755.0231c-.96169.23259-1.90052.4848-2.81761.77852-.30245.0969-.59823.21102-.89479.31475-.21152.0739-.42216.15652-.63045.23397-.19035.0708-.38482.13416-.57233.20794-.45259.17795-.89323.35077-1.32781.54619-.65594.33652-1.28481.68984-1.92972,1.03569-.91528.4907-1.8292.98261-2.72316,1.4929-.46474.26534-.93007.5336-1.38927.80446-.10794.0636-.21209.13285-.31973.19681-.89808.53378-1.77885,1.07354-2.65665,1.62947-.19064.12068-.37422.24879-.56393.37054-.79806.51242-1.59264,1.01968-2.37489,1.55163l-.061.0434c-.79549.54177-1.59503,1.09619-2.37509,1.65905-.3072.22161-.61378.44392-.91869.6689-.70723.52194-1.40088,1.0581-2.09627,1.5986l-.7647.60532c-.60203.4769-1.20901.95947-1.80276,1.4511-.15709.13005-.32033.25412-.47686.38522-.6014.50376-1.18917,1.02449-1.78261,1.54404-.47742.41786-.95824.83475-1.43079,1.26309l-.29665.27234c-1.77762,1.62314-3.51485,3.3363-5.23263,5.11717-.33706.34954-.68305.69023-1.01812,1.04613-.19268.20462-.37816.41346-.57021.62021-.36118.38889-.71739.78305-1.07644,1.17957-.74405.82151-1.49579,1.65198-2.23154,2.50705l-.62559.73624c-.30332.35757-.59706.7206-.89916,1.0841-.54862.6601-1.08175,1.32018-1.6267,2.00014-1.28584,1.60398-2.5775,3.25573-3.84752,4.97463l-.27944.3827c-.43871.5972-.86958,1.19185-1.30698,1.80333l-.0698.0957-.0262.0493c-.46946.65852-.94339,1.32584-1.41186,2.00054-.45005.64904-.90464,1.30955-1.35376,1.97453l-.0495.0812-.64635.96555c-.25335.37953-.51306.7581-.76572,1.14242-.34118.51896-.67509,1.03753-1.0162,1.56581-.12591.19471-.24101.38685-.36691.58285-.46892.72857-.94012,1.44959-1.40934,2.19798-.003.005.00013.0128-.003.0174-.0597.26264-.10774.53359-.15246.79811l-.009.0522c-.0363.21861-.0679.44496-.0942.66466s-.0427.44576-.0594.67053c-.002.0231-.0101.0465-.0117.0697-.005.0711-.0139.14072-.0179.2119-.002.0418-.001.0829-.003.12483-.0004.006-.003.0117-.003.0174-.00077.0181.009.0371.009.0552-.003.0709-.0157.14089-.0178.21189-.003.11915-.006.23777-.007.35709-.002.37488.003.73862.0269,1.11489l.006.0726c.00017.006-.003.0118-.003.0174 .0127.18282.0325.36295.0512.5459l.0285.25554c.004.0373.0126.073.0172.11036 .032.25768.0768.51464.12047.77249 .00083.005-.004.012-.003.0174 .05.29468.0932.57375.15803.86837s.14833.58583.22768.88011c.0737.27125.15333.53982.23943.81046l.0462.15105c.0805.2466.16097.49485.25118.7408 .0189.0521.0443.10194.0636.154l.026.0581c.0819.21648.15952.43493.24844.6508 .01.0244.013.0511.0231.0755 .1223.29425.25566.57877.39028.87171 .18537.40327.37482.80911.58416,1.20885 .0411.0786.0794.15687.12149.23539l.15044.2761 .0145.0203 .21989.39526c.40354.70413.85971,1.39932 1.33152,2.08705l.029.0407c.19399.28184.37143.55286.57616.83142l.16219.20644c.1949.26102.39846.52431.60239.78211 .14608.18593.29256.3741.44313.55826l.23752.29078 .46348.54378c.24689.28281.49616.56553.75324.84337 .35955.38857.73727.75926 1.11558,1.13728l.0608.064c.1909.19009.39002.3771.58538.56434l.66364.63126 .0464.0436c.99899.91506 2.04642,1.79435 3.13921,2.62468 .55905.42478 1.12834.83736 1.70765,1.23712 .0218.015.042.0316.0638.0466l.0174.003c.27568.18938.55826.36984.83798.55321 .26849.17603.53414.35961.8061.52992l.17687.11936c.17125.10622.3495.19906.522.30293l.2117.12524c.15226.0905.30212.18513.45529.27377l.14792.0786 .27842.1544c.0941.0531.18107.11942.27548.17182l.0174.003c.19021.10548.38286.20921.57425.31173 .39379.21092.78802.41391 1.18626.61194l.29877.13992c.0284.0139.0527.0357.0812.0495 .48554.23554.97434.44354 1.46488.65891 .21226.0933.41935.19631.63236.28572l.21758.0904c.49289.20355.98085.4074 1.47662.58926 .24179.0886.48601.16485.72824.24816l.2031.0701c.33366.1126.6669.22774 1.00099.32997 .9999.3063 2.00696.56709 3.00337.77506l.34827.0587 .13638.0409 .505.0851c.33026.0574.66689.10415.99552.14999l.49052.0648c.4926.0601.97554.1068 1.46296.13923 .32572.0216.65249.0481.97538.057 .24476.007.49159-.00088.73452-.001l.32226.00064 .0551-.009 .0522.009 .75781-.0334 .47038-.0281c.15286-.0117.30401-.0336.4559-.0485l.0174.003c.30709-.0304.61195-.0706.91474-.11439l.23812-.0315c.23098-.0364.45429-.0733.68249-.11774l.11035-.0172c.26378-.0528.52154-.10892.7813-.17271 .29488-.0724.59365-.15788.88305-.2451l.22658-.0692 .0785-.0405c.0252-.008.0505-.0149.0755-.0231l.18882-.0577 .30211-.0923c.56584-.20324 1.1193-.44156 1.65908-.70524 .004-.002.0133.005.0174.003 .54398-.26635 1.0697-.56693 1.58396-.897 1.88186-4.48439 3.51159-8.39351 5.05121-12.00688 .12522-.29387.2349-.56311.35871-.85287l.17496-.40031 .9419-2.18725c-.0366.3837-.0609.76727-.0864,1.14952-.005.071-.0134.14096-.0178.2119-.0367.59757-.06,1.2031-.0702,1.79696-.001.0836-.005.1661-.006.24967-.006.57867-.004,1.14667.0142,1.72164 .01.30745.025.61406.0418.92041 .0228.42276.0549.84824.0905,1.26888 .006.0669.0139.13352.0199.20036 .0576.64392.10994,1.27489.19669,1.9136 .004.0313.0158.0617.0201.0929 .17308,1.25362.39822,2.49973.67808,3.73194 .0341.1496.0681.29802.10366.4473 .1432.60207.31705,1.20433.48433,1.80092 .0121.0433.0194.0875.0317.1307 1.55348,5.48098 4.10203,10.73613 7.31541,15.66812 .0498.0763.10917.14771.15925.22385l-.0698.0957-.82069,1.0436c-.12651.16318-.24324.32848-.36965.49285-.4827.62768-.96797,1.25913-1.44943,1.90467-.49633.6654-.99511,1.35612-1.49033,2.04104-.1906.26367-.37428.5336-.56474.80022-.49379.69097-.98884,1.3854-1.48173,2.09622-.0598.0863-.12651.16852-.18629.25513-.22405.3243-.4428.6515-.6667.98003-.0275.0386-.0636.0711-.0902.11015-.32093.47205-.63423.93394-.95495,1.41497-.003.005.00011.0129-.003.0174-.0818.12316-.15955.24749-.24167.37116-.005.006-.0161.008-.0203.0145l-.0932.12757c-.4326.65268-.85171,1.31684-1.2841,1.98627l-.16594.24065c-.003.005.00011.013-.003.0174-.40456.62912-.8156,1.28123-1.22011,1.92543-.003.005.00013.0128-.003.0174-.43176.68771-.86987,1.38548-1.30172,2.09076-.0825.1346-.16507.27073-.24754.40598-.27792.45605-.56071.89944-.83872,1.36293l-.40195.6844c-.003.005.00014.0127-.003.0174-.46461.78058-.93585,1.55867-1.40094,2.36057-.18416.95625-.29139,1.92522-.34518,2.89677-.00041.006-.003.0115-.003.0174-.028.48136-.0367.97486-.0318,1.46317 .01.983.0872,1.96623.21793,2.9559 .0112.0853.0165.17023.0285.25554 .0504.35518.11285.71297.17797,1.06872 .0101.0551.0154.11049.0258.16553 .0823.4348.17832.86624.28204,1.30119 .0361.15075.0824.29953.12108.45023 .0157.061.0242.12486.0403.18588 .0825.31502.17773.62656.27112.94116 .0143.048.0142.10015.0287.14812 .20081.66457.43659,1.33508.68428,1.99582 .11348.30171.2267.59989.34958.90066 .002.005-.005.0126-.003.0174 .40064.98068.85746,1.94769 1.35317,2.91451 .24787.48341.50799.95973.77824,1.43858 .54049.9577 1.13526,1.90476 1.75977,2.8398 .93677,1.40256 1.9483,2.78024 3.04929,4.11386l.0174.003c.36427.44102.73882.88462 1.12104,1.3173l.0174.003c.15497.17533.30883.35257.46642.52637l.0144.0203c.21526.23582.4317.468.6519.70091 .0369.0394.0672.0858.10428.12504l.51866.53518c.61899.63846 1.25197,1.26582 1.90385,1.8791 .86056.80959 1.75216,1.60484 2.66358,2.36539 3.6457,3.0422 7.66581,5.66685 11.83058,7.68991 1.70862.82997 3.4467,1.55049 5.18687,2.16405 2.85496,1.0066 5.73091,1.71753 8.55483,2.05141 1.12955.13356 2.25587.21419 3.36441.22704 4.98842.0578 9.72297-1.14335 13.77462-3.94546 .74094-.84999 1.45817-1.71002 2.16775-2.55363 .48973-.58222.96555-1.16583 1.44042-1.74501s.9429-1.15821 1.40265-1.73347l1.11461-1.40595 .25027-.31597c1.16847-1.50211 2.29374-2.99483 3.37046-4.482l.46866-.65524c.41875-.58462.82014-1.16257 1.22558-1.74542l.52405-.77126c.20137-.29325.41613-.58854.61425-.88141 1.00905-1.49152 1.97417-2.97181 2.90008-4.45386 10.11123,3.12083 20.56072,3.71704 30.60688-.53412-1.20929,1.10715-2.44208,2.2119-3.76326,3.41286l-5.54021,5.02948c-.0702.29738-.13511.60042-.18752.89965-.18245,1.04156-.24762,2.09331-.22663,3.14957 .002.0829-.009.16676-.006.24967 .003.0736.0135.14416.017.21777s-.001.13175.003.19742c.0138.24195.0328.48384.0567.72592 .06.60844.14623,1.20948.26654,1.81793l.0145.0203c.0595.2999.11635.59216.18992.89165 .0754.30811.16672.61343.25664.92081 .0887.30309.17463.60424.27698.90633s.21656.59691.33217.89773c.10188.26566.20182.52406.31496.78738 .52378,1.23699 1.16545,2.45151 1.89178,3.65005 .002.004-.005.0136-.003.0174 .70166,1.15675 1.48383,2.28419 2.34808,3.38672l.0174.003c.21419.27305.42557.55672.64875.82575l.0174.003c.22325.26893.45467.54958.68652.81421 .70422.80393 1.4431,1.58506 2.21942,2.34422 1.55306,1.51853 3.24137,2.93738 5.01746,4.23083 .59188.43108 1.18451.85028 1.79469,1.25179 1.22072.80319 2.47219,1.53647 3.74684,2.20778l.0174.003c2.22586,1.17118 4.51215,2.13631 6.79399,2.82904 .65329.1983 1.31964.37526 1.97026.52922 1.30157.30806 2.59438.53483 3.86592.65187 .63567.0585 1.26067.0776 1.88398.0849 1.24685.0147 2.46893-.0769 3.64702-.28049 .589-.10182 1.16413-.22884 1.7311-.38864 1.41748-.39946 2.75946-.97371 4.00396-1.76047 .56872-.71534 1.13406-1.42493 1.68503-2.13357l.36671-.47544c.387-.50028.7512-.9958 1.12926-1.49302l.82657-1.07843c.23555-.3138.46378-.62664.69571-.93932 .40244-.54357.79588-1.0861 1.18758-1.62646 .0938-.12922.18621-.25365.27943-.3827 .48079-.6666.94731-1.33839 1.41187-2.00054 .0345-.0492.0791-.0929.11353-.14204l-.0174-.003c12.47787-17.82182 19.11795-34.10198 21.66856-52.88475 1.07543-12.84454-6.23767-30.08332-12.0854-34.00528 25.40186-37.7109 55.208-92.669 75.47237-140.64595 .58997-1.39671 1.18817-2.79602 1.76152-4.18021 .29803-.71929.58741-1.4281.88082-2.14382 .27282-.66564.55091-1.33059.81962-1.99296 .34183-.8421.67996-1.67858 1.01508-2.51518 .21558-.53825.41457-1.0597.62722-1.59558 .76018-1.91402 1.50618-3.79596 2.22888-5.67739 .30515-.79484.60342-1.58454.90161-2.37313l.45521-1.21268c.34329-.91505.68196-1.82401 1.01548-2.73002l.29769-.80943c.85705-2.34137 1.68676-4.65038 2.47513-6.92531 .35423-.96867.67974-1.92032 1.00414-2.8752 .64885-1.90974 1.24399-3.79462 1.77589-5.64631 .53366-1.85773 1.0049-3.67733 1.42427-5.47279 .20912-.89491.41015-1.77953.5915-2.65824 .54559-2.64255.95802-5.19792 1.26036-7.68531 .10052-.82724.19441-1.63489.26884-2.44401 .22281-2.42119.32746-4.76905.32398-7.0194l.003-.0174c-.003-1.50375-.0575-2.95574-.15717-4.37837-.84495-12.09393-5.13907-21.19128-11.84203-26.10222-3.15439-2.31104-6.90342-3.806-11.19808-4.43128z" fill="#1a1a1a" fill-rule="evenodd" stroke="#1a1a1a" stroke-width="5.6511"/>
  <path d="m427.48 516.89c-12.617-9.2441-34.925-5.5225-62.38 15.327-60.791 43.758-153.29 158.37-160.26 181.2-9.6264 30.988 6.6758 61.856 30.962 78.482 0.73596 0.50381 1.4906 1.0009 2.2421 1.4785 6.0121 3.8209 12.51 6.7924 19.253 8.7144 0.84298 0.24026 1.6839 0.46127 2.5342 0.66841 17.856 4.35 33.533 0.0976 54.99-10.811 31.334-29.354 92.776-137.97 118-210.76 11.337-30.997 7.2784-55.057-5.339-64.301z" fill="#3771c8" fill-rule="evenodd"/>
  <path d="m321.69 784.45c-25.354 1.6064-51.895-5.5683-72.194-19.934-20.27-14.345-33.919-35.229-40.847-59.628-1.703 2.7251-3.4073 5.4655-5.1178 8.2556-23.87 33.729 4.0904 65.321 28.736 82.202 0.74684 0.51151 1.5125 1.0164 2.2748 1.5017 23.738 15.88 55.559 30.103 80.17-4.6723 2.2354-2.7264 5.0299-5.285 6.9784-7.7246z" fill="#01004e" fill-rule="evenodd"/>
  <path d="m427.48 516.89c-12.617-9.2441-34.925-5.5225-62.38 15.327-8.5488 6.1535-17.734 13.713-27.211 22.217 3.5907 17.622 13.862 34.214 30.051 45.671 15.99 11.316 34.788 15.532 52.411 13.25 4.7326-11.204 8.9506-22.031 12.46-32.158 11.337-30.997 7.2856-55.063-5.3318-64.307z" fill="#808080" fill-rule="evenodd"/>
  <path d="m427.48 516.89c-12.617-9.2441-34.925-5.5225-62.38 15.327-55.319 39.819-136.89 138.3-156.38 172.92l-0.0668-0.24195c-1.703 2.7251-3.4144 5.4605-5.1249 8.2505-16.763 23.687-7.9385 46.31 7.328 63.534 14.222-34.516 36.3-70.06 64.328-113.86 54.889-79.829 114.95-143.37 152.3-145.93z" fill="#1c2224" fill-rule="evenodd" opacity=".36885"/>
  <path d="m277.86 725.92c-6.3767-4.1893-16.023-3.9596-26.784 2.5069-24.755 13.797-43.546 28.511-62.822 61.745-2.964 15.392 11.429 33.139 28.088 41.231 1.7086 0.82998 3.4468 1.5645 5.187 2.178 9.1359 3.2211 18.48 3.2965 25.683-1.685 0.74094-0.85 1.4635-1.7074 2.1731-2.551 21.997-26.152 29.15-49.356 35.163-77.231 3.1864-12.266 0.0999-21.735-6.6882-26.195z" fill="#293ed2" fill-rule="evenodd"/>
  <path d="m209.52 705.11c-9.3662 17.34-13.185 26.49-21.415 46.103-16.456 10.562-48.945-12.081-44.746-30.453 14.952-23.848 29.759-38.403 49.801-48.686 15.452-6.9484 42.9-2.7523 36.928 4.8575-9.1047 11.602-13.708 16.947-20.567 28.178z" fill="#293ed2" fill-rule="evenodd"/>
  <path d="m320.36 783.55c-13.238 14.6-20.597 21.245-36.356 35.53-4.4875 19.033 27.672 42.14 43.602 32.07 17.517-22.033 26.319-40.837 29.35-63.158 1.4135-16.883-11.673-41.373-16.863-33.21-7.9131 12.445-11.423 18.565-19.733 28.769z" fill="#293ed2" fill-rule="evenodd"/>
  <path d="m193.16 739.21c-9.3757 0.0969-18.647-2.5308-26.623-8.1751-7.5412-5.3369-12.941-12.67-16.065-20.953-2.3848 3.3339-4.7473 6.8883-7.1179 10.669-4.199 18.372 28.297 41.022 44.753 30.46 1.8819-4.4844 3.5134-8.3875 5.053-12.001z" fill="#01004e" fill-rule="evenodd"/>
  <path d="m293.64 810.32c3.027 8.8741 8.5888 16.744 16.564 22.388 7.5412 5.3369 16.253 7.9904 25.104 8.1818-2.3509 3.3578-4.9172 6.768-7.6945 10.261-15.93 10.07-48.098-13.042-43.611-32.075 3.6032-3.2662 6.7414-6.103 9.637-8.7568z" fill="#01004e" fill-rule="evenodd"/>
  <path d="m199.42 772.87c-3.7353 5.1663-7.439 10.881-11.164 17.304-2.964 15.392 11.429 33.139 28.088 41.231 1.7086 0.82998 3.4468 1.5644 5.187 2.178 9.1359 3.2211 18.48 3.2965 25.683-1.685 0.74095-0.84999 1.4636-1.7074 2.1731-2.551 3.9178-4.6578 7.3542-9.2144 10.408-13.728-12.91 0.0878-25.868-3.6602-37.091-11.603-11.23-7.9476-19.074-18.932-23.283-31.145z" fill="#01004e" fill-rule="evenodd"/>
  <path transform="matrix(.437 .30926 -.30926 .437 178.26 512.1)" d="m425.71 160.22c0 22.486-18.228 40.714-40.714 40.714s-40.714-18.228-40.714-40.714 18.228-40.714 40.714-40.714 40.714 18.228 40.714 40.714z" fill="#333"/>
  <g transform="matrix(.75482 .53418 -.53418 .75482 331.77 44.237)" fill="#fff" font-family="Sans" font-size="40" letter-spacing="0" word-spacing="0">
   <path d="m371.54 612.91h6.4453v-22.246l-7.0117 1.4062v-3.5938l6.9727-1.4062h3.9453v25.84h6.4453v3.3203h-16.797v-3.3203" fill="#3771c8"/>
  </g>
  <path transform="matrix(.63812 .45159 -.40634 .57418 139.59 107.41)" d="m661.65 455.87c0 33.195-26.91 60.104-60.104 60.104s-60.104-26.91-60.104-60.104 26.91-60.104 60.104-60.104 60.104 26.91 60.104 60.104z" fill="#333" fill-rule="evenodd"/>
  <path transform="matrix(.46128 .32645 -.3047 .43056 201.17 249.89)" d="m661.65 455.87c0 33.195-26.91 60.104-60.104 60.104s-60.104-26.91-60.104-60.104 26.91-60.104 60.104-60.104 60.104 26.91 60.104 60.104z" fill="#1a1a1a" fill-rule="evenodd"/>
  <path transform="matrix(.46128 .32645 -.29792 .42097 194.45 251.57)" d="m661.65 455.87c0 33.195-26.91 60.104-60.104 60.104s-60.104-26.91-60.104-60.104 26.91-60.104 60.104-60.104 60.104 26.91 60.104 60.104z" fill="#666" fill-rule="evenodd"/>
  <path transform="matrix(.46128 .32645 -.29373 .41506 194.33 255.64)" d="m661.65 455.87c0 33.195-26.91 60.104-60.104 60.104s-60.104-26.91-60.104-60.104 26.91-60.104 60.104-60.104 60.104 26.91 60.104 60.104z" fill="#80b3ff" fill-rule="evenodd"/>
  <path d="m364.68 631.22c-2.0645-9.68-14.935-3.2454-11.791 4.9861 0.53954 7.9709 9.3238 18.684 0.0891 24.722-3.7033 0.90912-7.3605 7.8639-0.95236 6.1455 6.7394-5.0162 11.356-12.967 14.427-20.622 1.0176-5.0345 0.94506-10.716-1.7731-15.232z" fill="#d5e5ff"/>
  <path d="m323.67 639.26c-1.7456-3.1375-2.3134-7.4384-6.2721-8.6706-3.6216-0.45562-5.4804 4.006-5.6861 7.0043-0.43152 3.8579 1.3606 7.618 4.4386 9.9168 2.2655 1.9252 4.8614 3.3964 7.3002 5.0812 3.7482-0.4954 4.05-5.4081 2.711-8.1803-0.67422-1.7894-1.668-3.4313-2.4916-5.1515z" fill="#d5e5ff"/>
  <path d="m276.41 725.07c-6.3426-3.2713-15.362-2.631-25.333 3.3607-19.971 11.131-36.064 22.874-51.658 44.442-0.46945 0.64929-0.92896 1.3075-1.3976 1.9749-0.43082 0.61352-0.86107 1.2261-1.2914 1.8553l-0.29585 0.41803c-0.32093 0.47205-0.63998 0.93763-0.9607 1.4187-0.0852 0.12758-0.16567 0.25678-0.25082 0.385l-0.10202 0.14415c-0.43261 0.65268-0.86253 1.3132-1.2949 1.9826-0.0547 0.0848-0.1043 0.17019-0.159 0.25526-0.41085 0.63813-0.81447 1.2916-1.2253 1.9454-0.46195 0.73575-0.92822 1.4838-1.3903 2.2396-0.46668 0.76345-0.93528 1.5332-1.4023 2.3177s-0.92704 1.5621-1.3938 2.367c-0.0926 0.481-0.16227 0.95894-0.22157 1.4442-0.11974 0.97559-0.17978 1.942-0.16987 2.9302 0.01 0.98301 0.0855 1.9758 0.21622 2.9655 0.32681 2.4742 1.0161 4.9689 2.0177 7.4206 0.40065 0.98068 0.85354 1.9568 1.3492 2.9236 0.24786 0.48342 0.50795 0.95889 0.7782 1.4377 0.54049 0.9577 1.1288 1.9067 1.7533 2.8418 1.249 1.8701 2.6441 3.6837 4.185 5.428l0.0144 0.0102c0.56977 0.64457 1.1648 1.2782 1.7697 1.9015 2.8485-16.106 10.259-33.818 22.035-50.456 15.707-22.194 35.783-37.701 54.427-43.953z" fill="#2b0000" fill-rule="evenodd" opacity=".38115"/>
  <path d="m229.01 671.99c-5.9246-4.0648-24.275-5.1281-35.864 0.0832-16.864 8.6521-30.017 20.32-42.674 38.014l-0.0714 0.10091c-0.48034 0.67248-0.9551 1.3671-1.4342 2.0571l-0.27544 0.38921c-0.37885 0.54848-0.75582 1.104-1.1341 1.6637-0.46664 0.69169-0.93503 1.3932-1.4011 2.1022-0.34118 0.51897-0.68258 1.0405-1.0237 1.5688-0.59287 0.91686-1.1849 1.8416-1.7779 2.7874-0.45927 2.0094-0.4766 4.0782-0.12707 6.1408 0.05 0.29467 0.097 0.57715 0.16189 0.87177 0.32402 1.4772 0.84549 2.9488 1.5138 4.403 0.22141 0.48179 0.45903 0.95934 0.71454 1.436 0.0501 0.0933 0.0977 0.18547 0.14903 0.27855 0.47552 0.86329 0.99729 1.7034 1.5754 2.5428 3e-3 5e-3 0.0113 6e-3 0.0144 0.0102 0.95616 1.3866 2.0425 2.7516 3.2387 4.0444 1.6802 1.8158 3.5705 3.524 5.6061 5.0708 8.1426 6.187 18.586 9.8271 26.898 7.7859 1.4844-0.3644 2.902-0.91603 4.2258-1.6608 0.26477-0.14896 0.52506-0.29824 0.78219-0.46327 1.8818-4.4844 3.5134-8.3875 5.053-12.001 5.194-12.19 9.1211-20.727 16.346-34.103 6.8592-11.231 11.471-16.586 20.576-28.188 1.493-1.9024 0.90218-3.5797-1.0727-4.9346z" fill="#2a0000" fill-opacity=".38039" fill-rule="evenodd"/>
  <path d="m329.54928,771.21857c-2.6529,3.91882-5.42146,7.7161-9.18815,12.34128-10.2111,11.26205-16.95615,17.80505-26.7246,26.75768l-4.08744,3.72751-5.54958,5.0293c-.0701.29738-.12432.59251-.17672.89174-.26209,1.49618-.31084,3.01654-.16079,4.53764 .0304.30834.075.62096.12109.92944 .0449.30025.0821.6005.14149.90061l.0144.0102c.0595.2999.11716.5927.19072.89218 .0754.30811.16867.6112.25858.91858 .0887.30309.16644.60205.26879.90415l.0144.0102c.10101.29753.20415.59945.31802.89573 .20376.5313.43269,1.05593.67618,1.58188 7.07582-5.08155 15.31231-12.98053 23.17052-22.65271 11.74566-14.45699 19.45161-28.92325 20.71308-37.67541z" fill="#290000" fill-opacity=".1451" fill-rule="evenodd"/>
  <path d="m433.56 554.8c-2.2795 10.918-2.8962 18.013-21.073 31.33 15.612-17.379 14.586-58.114 17.694-54.574 5.4071 1.7225 5.7635 11.825 3.3794 23.244z" fill="#fff" opacity=".21312"/>
  <path d="m359.7 604.38c-20.779-12.731-46.964-8.9019-59.841 9.2929-12.886 18.208-7.7689 44.198 11.182 59.555-15.199-16.404-18.584-39.772-6.7857-56.444 11.789-16.658 34.931-21.253 55.444-12.404z" fill="#2b2b2b" fill-rule="evenodd"/>
  <path transform="matrix(.55724 .09396 -.09396 .55724 119.92 408.03)" d="m512.86 578.79c0 10.651-3.198 19.286-7.1429 19.286s-7.1428-8.6345-7.1428-19.286 3.198-19.286 7.1428-19.286 7.1429 8.6345 7.1429 19.286z" fill="#fff" opacity=".21312"/>
  <path transform="matrix(.66692 .46129 -.47589 .61898 206.88 154.04)" d="m512.86 578.79c0 10.651-3.198 19.286-7.1429 19.286s-7.1428-8.6345-7.1428-19.286 3.198-19.286 7.1428-19.286 7.1429 8.6345 7.1429 19.286z" fill="#fff" opacity=".21312"/>
 </g>
</svg>
